G04 PROTEUS RS274X GERBER FILE*
%FSLAX45Y45*%
%MOMM*%
G01*
%ADD10C,0.508000*%
%ADD11C,0.762000*%
%ADD12R,1.510000X1.510000*%
%ADD13C,1.510000*%
%ADD14C,1.524000*%
%ADD15C,1.397000*%
%ADD16C,0.000000*%
%ADD17C,3.048000*%
%ADD18C,1.778000*%
%ADD19C,1.100000*%
%ADD70R,1.100000X1.100000*%
%ADD71R,1.308100X1.308100*%
%ADD20C,1.308100*%
%ADD21R,1.940000X1.940000*%
%ADD22C,0.254000*%
%ADD23C,1.940000*%
%ADD24R,2.032000X2.032000*%
%ADD25C,0.203200*%
D10*
X+6896862Y+8407313D02*
X+6925596Y+8378579D01*
X+7428579Y+8378579D01*
X+7550000Y+8500000D01*
X+7500000Y+9500000D02*
X+7422132Y+9577868D01*
X+7422132Y+9867835D01*
X+5880156Y+9673559D02*
X+6139946Y+9673559D01*
X+6165309Y+9698922D01*
D11*
X+6896862Y+8407313D03*
X+6800000Y+8500000D03*
X+7422132Y+9867835D03*
X+5880156Y+9673559D03*
X+6165309Y+9698922D03*
D12*
X+6726000Y+7306000D03*
D13*
X+6726000Y+7052000D03*
X+6726000Y+6798000D03*
X+6726000Y+6544000D03*
X+6726000Y+6290000D03*
X+6726000Y+6036000D03*
X+6726000Y+5782000D03*
X+6726000Y+5528000D03*
X+6726000Y+5274000D03*
X+6726000Y+5020000D03*
X+6726000Y+4766000D03*
X+6726000Y+4512000D03*
X+6726000Y+4258000D03*
X+6726000Y+4004000D03*
X+6726000Y+3750000D03*
X+8250000Y+3750000D03*
X+8250000Y+4004000D03*
X+8250000Y+4258000D03*
X+8250000Y+4512000D03*
X+8250000Y+4766000D03*
X+8250000Y+5020000D03*
X+8250000Y+5274000D03*
X+8250000Y+5528000D03*
X+8250000Y+5782000D03*
X+8250000Y+6036000D03*
X+8250000Y+6290000D03*
X+8250000Y+6544000D03*
X+8250000Y+6798000D03*
X+8250000Y+7052000D03*
X+8250000Y+7306000D03*
D14*
X+6726000Y+3496000D03*
X+8250000Y+3496000D03*
X+6726000Y+7560000D03*
X+8250000Y+7560000D03*
D15*
X+5750000Y+9500000D03*
D16*
X+5750000Y+9500000D03*
D15*
X+5550000Y+9500000D03*
D16*
X+5550000Y+9500000D03*
D15*
X+5350000Y+9500000D03*
D16*
X+5350000Y+9500000D03*
D15*
X+6450000Y+9500000D03*
D16*
X+6450000Y+9500000D03*
D15*
X+6250000Y+9500000D03*
D16*
X+6250000Y+9500000D03*
D15*
X+6050000Y+9500000D03*
D16*
X+6050000Y+9500000D03*
D15*
X+7200000Y+9500000D03*
D16*
X+7200000Y+9500000D03*
D15*
X+7000000Y+9500000D03*
D16*
X+7000000Y+9500000D03*
D15*
X+6800000Y+9500000D03*
D16*
X+6800000Y+9500000D03*
D15*
X+7900000Y+9500000D03*
D16*
X+7900000Y+9500000D03*
D15*
X+7700000Y+9500000D03*
D16*
X+7700000Y+9500000D03*
D15*
X+7500000Y+9500000D03*
D16*
X+7500000Y+9500000D03*
D15*
X+8650000Y+9500000D03*
D16*
X+8650000Y+9500000D03*
D15*
X+8450000Y+9500000D03*
D16*
X+8450000Y+9500000D03*
D15*
X+8250000Y+9500000D03*
D16*
X+8250000Y+9500000D03*
D15*
X+9400000Y+9500000D03*
D16*
X+9400000Y+9500000D03*
D15*
X+9200000Y+9500000D03*
D16*
X+9200000Y+9500000D03*
D15*
X+9000000Y+9500000D03*
D16*
X+9000000Y+9500000D03*
D15*
X+5750000Y+8500000D03*
D16*
X+5750000Y+8500000D03*
D15*
X+5550000Y+8500000D03*
D16*
X+5550000Y+8500000D03*
D15*
X+5350000Y+8500000D03*
D16*
X+5350000Y+8500000D03*
D15*
X+6450000Y+8500000D03*
D16*
X+6450000Y+8500000D03*
D15*
X+6250000Y+8500000D03*
D16*
X+6250000Y+8500000D03*
D15*
X+6050000Y+8500000D03*
D16*
X+6050000Y+8500000D03*
D15*
X+7200000Y+8500000D03*
D16*
X+7200000Y+8500000D03*
D15*
X+7000000Y+8500000D03*
D16*
X+7000000Y+8500000D03*
D15*
X+6800000Y+8500000D03*
D16*
X+6800000Y+8500000D03*
D15*
X+7950000Y+8500000D03*
D16*
X+7950000Y+8500000D03*
D15*
X+7750000Y+8500000D03*
D16*
X+7750000Y+8500000D03*
D15*
X+7550000Y+8500000D03*
D16*
X+7550000Y+8500000D03*
D15*
X+8700000Y+8500000D03*
D16*
X+8700000Y+8500000D03*
D15*
X+8500000Y+8500000D03*
D16*
X+8500000Y+8500000D03*
D15*
X+8300000Y+8500000D03*
D16*
X+8300000Y+8500000D03*
D15*
X+9400000Y+8500000D03*
D16*
X+9400000Y+8500000D03*
D15*
X+9200000Y+8500000D03*
D16*
X+9200000Y+8500000D03*
D15*
X+9000000Y+8500000D03*
D16*
X+9000000Y+8500000D03*
D17*
X+5750000Y+5250000D03*
X+5750000Y+5750380D03*
D18*
X+5250000Y+3250000D03*
X+6266000Y+3250000D03*
D19*
X+9250000Y+7000000D03*
D70*
X+9000000Y+7000000D03*
D19*
X+9250000Y+6250000D03*
D70*
X+9000000Y+6250000D03*
D19*
X+5875000Y+6750000D03*
D70*
X+5625000Y+6750000D03*
D71*
X+9250000Y+5200000D03*
D20*
X+9250000Y+5000000D03*
X+9250000Y+4800000D03*
X+8750000Y+5200000D03*
X+8750000Y+5000000D03*
X+8750000Y+4800000D03*
D21*
X+9000000Y+3492000D03*
D22*
X+9000000Y+3492000D03*
D23*
X+9000000Y+3746000D03*
X+9000000Y+4000000D03*
D24*
X+5500000Y+4000000D03*
X+5754000Y+4000000D03*
D25*
X+5000000Y+2667000D02*
X+9699000Y+2667000D01*
X+9699000Y+10033000D01*
X+5000000Y+10033000D01*
X+5000000Y+2667000D01*
M02*
