G04 PROTEUS RS274X GERBER FILE*
%FSLAX45Y45*%
%MOMM*%
G01*
%ADD25C,0.203200*%
%ADD28C,0.127000*%
%ADD56C,0.063500*%
D25*
X+6896862Y+8470813D02*
X+6896862Y+8343813D01*
X+6833362Y+8407313D02*
X+6960362Y+8407313D01*
X+6800000Y+8563500D02*
X+6800000Y+8436500D01*
X+6736500Y+8500000D02*
X+6863500Y+8500000D01*
X+7422132Y+9931335D02*
X+7422132Y+9804335D01*
X+7358632Y+9867835D02*
X+7485632Y+9867835D01*
X+5880156Y+9737059D02*
X+5880156Y+9610059D01*
X+5816656Y+9673559D02*
X+5943656Y+9673559D01*
X+6165309Y+9762422D02*
X+6165309Y+9635422D01*
X+6101809Y+9698922D02*
X+6228809Y+9698922D01*
X+6789500Y+7306000D02*
X+6789283Y+7311247D01*
X+6787518Y+7321742D01*
X+6783826Y+7332237D01*
X+6777798Y+7342732D01*
X+6768576Y+7353112D01*
X+6758081Y+7360800D01*
X+6747586Y+7365718D01*
X+6737091Y+7368524D01*
X+6726596Y+7369497D01*
X+6726000Y+7369500D01*
X+6662500Y+7306000D02*
X+6662717Y+7311247D01*
X+6664482Y+7321742D01*
X+6668174Y+7332237D01*
X+6674202Y+7342732D01*
X+6683424Y+7353112D01*
X+6693919Y+7360800D01*
X+6704414Y+7365718D01*
X+6714909Y+7368524D01*
X+6725404Y+7369497D01*
X+6726000Y+7369500D01*
X+6662500Y+7306000D02*
X+6662717Y+7300753D01*
X+6664482Y+7290258D01*
X+6668174Y+7279763D01*
X+6674202Y+7269268D01*
X+6683424Y+7258888D01*
X+6693919Y+7251200D01*
X+6704414Y+7246282D01*
X+6714909Y+7243476D01*
X+6725404Y+7242503D01*
X+6726000Y+7242500D01*
X+6789500Y+7306000D02*
X+6789283Y+7300753D01*
X+6787518Y+7290258D01*
X+6783826Y+7279763D01*
X+6777798Y+7269268D01*
X+6768576Y+7258888D01*
X+6758081Y+7251200D01*
X+6747586Y+7246282D01*
X+6737091Y+7243476D01*
X+6726596Y+7242503D01*
X+6726000Y+7242500D01*
X+6726000Y+7369500D02*
X+6726000Y+7242500D01*
X+6662500Y+7306000D02*
X+6789500Y+7306000D01*
X+6789283Y+7311247D01*
X+6787518Y+7321742D01*
X+6783826Y+7332237D01*
X+6777798Y+7342732D01*
X+6768576Y+7353112D01*
X+6758081Y+7360800D01*
X+6747586Y+7365718D01*
X+6737091Y+7368524D01*
X+6726596Y+7369497D01*
X+6726000Y+7369500D01*
X+6662500Y+7306000D02*
X+6662717Y+7311247D01*
X+6664482Y+7321742D01*
X+6668174Y+7332237D01*
X+6674202Y+7342732D01*
X+6683424Y+7353112D01*
X+6693919Y+7360800D01*
X+6704414Y+7365718D01*
X+6714909Y+7368524D01*
X+6725404Y+7369497D01*
X+6726000Y+7369500D01*
X+6662500Y+7306000D02*
X+6662717Y+7300753D01*
X+6664482Y+7290258D01*
X+6668174Y+7279763D01*
X+6674202Y+7269268D01*
X+6683424Y+7258888D01*
X+6693919Y+7251200D01*
X+6704414Y+7246282D01*
X+6714909Y+7243476D01*
X+6725404Y+7242503D01*
X+6726000Y+7242500D01*
X+6789500Y+7306000D02*
X+6789283Y+7300753D01*
X+6787518Y+7290258D01*
X+6783826Y+7279763D01*
X+6777798Y+7269268D01*
X+6768576Y+7258888D01*
X+6758081Y+7251200D01*
X+6747586Y+7246282D01*
X+6737091Y+7243476D01*
X+6726596Y+7242503D01*
X+6726000Y+7242500D01*
X+6681099Y+7350901D02*
X+6770901Y+7261099D01*
X+6681099Y+7261099D02*
X+6770901Y+7350901D01*
X+6789500Y+7052000D02*
X+6789283Y+7057247D01*
X+6787518Y+7067742D01*
X+6783826Y+7078237D01*
X+6777798Y+7088732D01*
X+6768576Y+7099112D01*
X+6758081Y+7106800D01*
X+6747586Y+7111718D01*
X+6737091Y+7114524D01*
X+6726596Y+7115497D01*
X+6726000Y+7115500D01*
X+6662500Y+7052000D02*
X+6662717Y+7057247D01*
X+6664482Y+7067742D01*
X+6668174Y+7078237D01*
X+6674202Y+7088732D01*
X+6683424Y+7099112D01*
X+6693919Y+7106800D01*
X+6704414Y+7111718D01*
X+6714909Y+7114524D01*
X+6725404Y+7115497D01*
X+6726000Y+7115500D01*
X+6662500Y+7052000D02*
X+6662717Y+7046753D01*
X+6664482Y+7036258D01*
X+6668174Y+7025763D01*
X+6674202Y+7015268D01*
X+6683424Y+7004888D01*
X+6693919Y+6997200D01*
X+6704414Y+6992282D01*
X+6714909Y+6989476D01*
X+6725404Y+6988503D01*
X+6726000Y+6988500D01*
X+6789500Y+7052000D02*
X+6789283Y+7046753D01*
X+6787518Y+7036258D01*
X+6783826Y+7025763D01*
X+6777798Y+7015268D01*
X+6768576Y+7004888D01*
X+6758081Y+6997200D01*
X+6747586Y+6992282D01*
X+6737091Y+6989476D01*
X+6726596Y+6988503D01*
X+6726000Y+6988500D01*
X+6726000Y+7115500D02*
X+6726000Y+6988500D01*
X+6662500Y+7052000D02*
X+6789500Y+7052000D01*
X+6789283Y+7057247D01*
X+6787518Y+7067742D01*
X+6783826Y+7078237D01*
X+6777798Y+7088732D01*
X+6768576Y+7099112D01*
X+6758081Y+7106800D01*
X+6747586Y+7111718D01*
X+6737091Y+7114524D01*
X+6726596Y+7115497D01*
X+6726000Y+7115500D01*
X+6662500Y+7052000D02*
X+6662717Y+7057247D01*
X+6664482Y+7067742D01*
X+6668174Y+7078237D01*
X+6674202Y+7088732D01*
X+6683424Y+7099112D01*
X+6693919Y+7106800D01*
X+6704414Y+7111718D01*
X+6714909Y+7114524D01*
X+6725404Y+7115497D01*
X+6726000Y+7115500D01*
X+6662500Y+7052000D02*
X+6662717Y+7046753D01*
X+6664482Y+7036258D01*
X+6668174Y+7025763D01*
X+6674202Y+7015268D01*
X+6683424Y+7004888D01*
X+6693919Y+6997200D01*
X+6704414Y+6992282D01*
X+6714909Y+6989476D01*
X+6725404Y+6988503D01*
X+6726000Y+6988500D01*
X+6789500Y+7052000D02*
X+6789283Y+7046753D01*
X+6787518Y+7036258D01*
X+6783826Y+7025763D01*
X+6777798Y+7015268D01*
X+6768576Y+7004888D01*
X+6758081Y+6997200D01*
X+6747586Y+6992282D01*
X+6737091Y+6989476D01*
X+6726596Y+6988503D01*
X+6726000Y+6988500D01*
X+6681099Y+7096901D02*
X+6770901Y+7007099D01*
X+6681099Y+7007099D02*
X+6770901Y+7096901D01*
X+6789500Y+6798000D02*
X+6789283Y+6803247D01*
X+6787518Y+6813742D01*
X+6783826Y+6824237D01*
X+6777798Y+6834732D01*
X+6768576Y+6845112D01*
X+6758081Y+6852800D01*
X+6747586Y+6857718D01*
X+6737091Y+6860524D01*
X+6726596Y+6861497D01*
X+6726000Y+6861500D01*
X+6662500Y+6798000D02*
X+6662717Y+6803247D01*
X+6664482Y+6813742D01*
X+6668174Y+6824237D01*
X+6674202Y+6834732D01*
X+6683424Y+6845112D01*
X+6693919Y+6852800D01*
X+6704414Y+6857718D01*
X+6714909Y+6860524D01*
X+6725404Y+6861497D01*
X+6726000Y+6861500D01*
X+6662500Y+6798000D02*
X+6662717Y+6792753D01*
X+6664482Y+6782258D01*
X+6668174Y+6771763D01*
X+6674202Y+6761268D01*
X+6683424Y+6750888D01*
X+6693919Y+6743200D01*
X+6704414Y+6738282D01*
X+6714909Y+6735476D01*
X+6725404Y+6734503D01*
X+6726000Y+6734500D01*
X+6789500Y+6798000D02*
X+6789283Y+6792753D01*
X+6787518Y+6782258D01*
X+6783826Y+6771763D01*
X+6777798Y+6761268D01*
X+6768576Y+6750888D01*
X+6758081Y+6743200D01*
X+6747586Y+6738282D01*
X+6737091Y+6735476D01*
X+6726596Y+6734503D01*
X+6726000Y+6734500D01*
X+6726000Y+6861500D02*
X+6726000Y+6734500D01*
X+6662500Y+6798000D02*
X+6789500Y+6798000D01*
X+6789283Y+6803247D01*
X+6787518Y+6813742D01*
X+6783826Y+6824237D01*
X+6777798Y+6834732D01*
X+6768576Y+6845112D01*
X+6758081Y+6852800D01*
X+6747586Y+6857718D01*
X+6737091Y+6860524D01*
X+6726596Y+6861497D01*
X+6726000Y+6861500D01*
X+6662500Y+6798000D02*
X+6662717Y+6803247D01*
X+6664482Y+6813742D01*
X+6668174Y+6824237D01*
X+6674202Y+6834732D01*
X+6683424Y+6845112D01*
X+6693919Y+6852800D01*
X+6704414Y+6857718D01*
X+6714909Y+6860524D01*
X+6725404Y+6861497D01*
X+6726000Y+6861500D01*
X+6662500Y+6798000D02*
X+6662717Y+6792753D01*
X+6664482Y+6782258D01*
X+6668174Y+6771763D01*
X+6674202Y+6761268D01*
X+6683424Y+6750888D01*
X+6693919Y+6743200D01*
X+6704414Y+6738282D01*
X+6714909Y+6735476D01*
X+6725404Y+6734503D01*
X+6726000Y+6734500D01*
X+6789500Y+6798000D02*
X+6789283Y+6792753D01*
X+6787518Y+6782258D01*
X+6783826Y+6771763D01*
X+6777798Y+6761268D01*
X+6768576Y+6750888D01*
X+6758081Y+6743200D01*
X+6747586Y+6738282D01*
X+6737091Y+6735476D01*
X+6726596Y+6734503D01*
X+6726000Y+6734500D01*
X+6681099Y+6842901D02*
X+6770901Y+6753099D01*
X+6681099Y+6753099D02*
X+6770901Y+6842901D01*
X+6789500Y+6544000D02*
X+6789283Y+6549247D01*
X+6787518Y+6559742D01*
X+6783826Y+6570237D01*
X+6777798Y+6580732D01*
X+6768576Y+6591112D01*
X+6758081Y+6598800D01*
X+6747586Y+6603718D01*
X+6737091Y+6606524D01*
X+6726596Y+6607497D01*
X+6726000Y+6607500D01*
X+6662500Y+6544000D02*
X+6662717Y+6549247D01*
X+6664482Y+6559742D01*
X+6668174Y+6570237D01*
X+6674202Y+6580732D01*
X+6683424Y+6591112D01*
X+6693919Y+6598800D01*
X+6704414Y+6603718D01*
X+6714909Y+6606524D01*
X+6725404Y+6607497D01*
X+6726000Y+6607500D01*
X+6662500Y+6544000D02*
X+6662717Y+6538753D01*
X+6664482Y+6528258D01*
X+6668174Y+6517763D01*
X+6674202Y+6507268D01*
X+6683424Y+6496888D01*
X+6693919Y+6489200D01*
X+6704414Y+6484282D01*
X+6714909Y+6481476D01*
X+6725404Y+6480503D01*
X+6726000Y+6480500D01*
X+6789500Y+6544000D02*
X+6789283Y+6538753D01*
X+6787518Y+6528258D01*
X+6783826Y+6517763D01*
X+6777798Y+6507268D01*
X+6768576Y+6496888D01*
X+6758081Y+6489200D01*
X+6747586Y+6484282D01*
X+6737091Y+6481476D01*
X+6726596Y+6480503D01*
X+6726000Y+6480500D01*
X+6726000Y+6607500D02*
X+6726000Y+6480500D01*
X+6662500Y+6544000D02*
X+6789500Y+6544000D01*
X+6789283Y+6549247D01*
X+6787518Y+6559742D01*
X+6783826Y+6570237D01*
X+6777798Y+6580732D01*
X+6768576Y+6591112D01*
X+6758081Y+6598800D01*
X+6747586Y+6603718D01*
X+6737091Y+6606524D01*
X+6726596Y+6607497D01*
X+6726000Y+6607500D01*
X+6662500Y+6544000D02*
X+6662717Y+6549247D01*
X+6664482Y+6559742D01*
X+6668174Y+6570237D01*
X+6674202Y+6580732D01*
X+6683424Y+6591112D01*
X+6693919Y+6598800D01*
X+6704414Y+6603718D01*
X+6714909Y+6606524D01*
X+6725404Y+6607497D01*
X+6726000Y+6607500D01*
X+6662500Y+6544000D02*
X+6662717Y+6538753D01*
X+6664482Y+6528258D01*
X+6668174Y+6517763D01*
X+6674202Y+6507268D01*
X+6683424Y+6496888D01*
X+6693919Y+6489200D01*
X+6704414Y+6484282D01*
X+6714909Y+6481476D01*
X+6725404Y+6480503D01*
X+6726000Y+6480500D01*
X+6789500Y+6544000D02*
X+6789283Y+6538753D01*
X+6787518Y+6528258D01*
X+6783826Y+6517763D01*
X+6777798Y+6507268D01*
X+6768576Y+6496888D01*
X+6758081Y+6489200D01*
X+6747586Y+6484282D01*
X+6737091Y+6481476D01*
X+6726596Y+6480503D01*
X+6726000Y+6480500D01*
X+6681099Y+6588901D02*
X+6770901Y+6499099D01*
X+6681099Y+6499099D02*
X+6770901Y+6588901D01*
X+6789500Y+6290000D02*
X+6789283Y+6295247D01*
X+6787518Y+6305742D01*
X+6783826Y+6316237D01*
X+6777798Y+6326732D01*
X+6768576Y+6337112D01*
X+6758081Y+6344800D01*
X+6747586Y+6349718D01*
X+6737091Y+6352524D01*
X+6726596Y+6353497D01*
X+6726000Y+6353500D01*
X+6662500Y+6290000D02*
X+6662717Y+6295247D01*
X+6664482Y+6305742D01*
X+6668174Y+6316237D01*
X+6674202Y+6326732D01*
X+6683424Y+6337112D01*
X+6693919Y+6344800D01*
X+6704414Y+6349718D01*
X+6714909Y+6352524D01*
X+6725404Y+6353497D01*
X+6726000Y+6353500D01*
X+6662500Y+6290000D02*
X+6662717Y+6284753D01*
X+6664482Y+6274258D01*
X+6668174Y+6263763D01*
X+6674202Y+6253268D01*
X+6683424Y+6242888D01*
X+6693919Y+6235200D01*
X+6704414Y+6230282D01*
X+6714909Y+6227476D01*
X+6725404Y+6226503D01*
X+6726000Y+6226500D01*
X+6789500Y+6290000D02*
X+6789283Y+6284753D01*
X+6787518Y+6274258D01*
X+6783826Y+6263763D01*
X+6777798Y+6253268D01*
X+6768576Y+6242888D01*
X+6758081Y+6235200D01*
X+6747586Y+6230282D01*
X+6737091Y+6227476D01*
X+6726596Y+6226503D01*
X+6726000Y+6226500D01*
X+6726000Y+6353500D02*
X+6726000Y+6226500D01*
X+6662500Y+6290000D02*
X+6789500Y+6290000D01*
X+6789283Y+6295247D01*
X+6787518Y+6305742D01*
X+6783826Y+6316237D01*
X+6777798Y+6326732D01*
X+6768576Y+6337112D01*
X+6758081Y+6344800D01*
X+6747586Y+6349718D01*
X+6737091Y+6352524D01*
X+6726596Y+6353497D01*
X+6726000Y+6353500D01*
X+6662500Y+6290000D02*
X+6662717Y+6295247D01*
X+6664482Y+6305742D01*
X+6668174Y+6316237D01*
X+6674202Y+6326732D01*
X+6683424Y+6337112D01*
X+6693919Y+6344800D01*
X+6704414Y+6349718D01*
X+6714909Y+6352524D01*
X+6725404Y+6353497D01*
X+6726000Y+6353500D01*
X+6662500Y+6290000D02*
X+6662717Y+6284753D01*
X+6664482Y+6274258D01*
X+6668174Y+6263763D01*
X+6674202Y+6253268D01*
X+6683424Y+6242888D01*
X+6693919Y+6235200D01*
X+6704414Y+6230282D01*
X+6714909Y+6227476D01*
X+6725404Y+6226503D01*
X+6726000Y+6226500D01*
X+6789500Y+6290000D02*
X+6789283Y+6284753D01*
X+6787518Y+6274258D01*
X+6783826Y+6263763D01*
X+6777798Y+6253268D01*
X+6768576Y+6242888D01*
X+6758081Y+6235200D01*
X+6747586Y+6230282D01*
X+6737091Y+6227476D01*
X+6726596Y+6226503D01*
X+6726000Y+6226500D01*
X+6681099Y+6334901D02*
X+6770901Y+6245099D01*
X+6681099Y+6245099D02*
X+6770901Y+6334901D01*
X+6789500Y+6036000D02*
X+6789283Y+6041247D01*
X+6787518Y+6051742D01*
X+6783826Y+6062237D01*
X+6777798Y+6072732D01*
X+6768576Y+6083112D01*
X+6758081Y+6090800D01*
X+6747586Y+6095718D01*
X+6737091Y+6098524D01*
X+6726596Y+6099497D01*
X+6726000Y+6099500D01*
X+6662500Y+6036000D02*
X+6662717Y+6041247D01*
X+6664482Y+6051742D01*
X+6668174Y+6062237D01*
X+6674202Y+6072732D01*
X+6683424Y+6083112D01*
X+6693919Y+6090800D01*
X+6704414Y+6095718D01*
X+6714909Y+6098524D01*
X+6725404Y+6099497D01*
X+6726000Y+6099500D01*
X+6662500Y+6036000D02*
X+6662717Y+6030753D01*
X+6664482Y+6020258D01*
X+6668174Y+6009763D01*
X+6674202Y+5999268D01*
X+6683424Y+5988888D01*
X+6693919Y+5981200D01*
X+6704414Y+5976282D01*
X+6714909Y+5973476D01*
X+6725404Y+5972503D01*
X+6726000Y+5972500D01*
X+6789500Y+6036000D02*
X+6789283Y+6030753D01*
X+6787518Y+6020258D01*
X+6783826Y+6009763D01*
X+6777798Y+5999268D01*
X+6768576Y+5988888D01*
X+6758081Y+5981200D01*
X+6747586Y+5976282D01*
X+6737091Y+5973476D01*
X+6726596Y+5972503D01*
X+6726000Y+5972500D01*
X+6726000Y+6099500D02*
X+6726000Y+5972500D01*
X+6662500Y+6036000D02*
X+6789500Y+6036000D01*
X+6789283Y+6041247D01*
X+6787518Y+6051742D01*
X+6783826Y+6062237D01*
X+6777798Y+6072732D01*
X+6768576Y+6083112D01*
X+6758081Y+6090800D01*
X+6747586Y+6095718D01*
X+6737091Y+6098524D01*
X+6726596Y+6099497D01*
X+6726000Y+6099500D01*
X+6662500Y+6036000D02*
X+6662717Y+6041247D01*
X+6664482Y+6051742D01*
X+6668174Y+6062237D01*
X+6674202Y+6072732D01*
X+6683424Y+6083112D01*
X+6693919Y+6090800D01*
X+6704414Y+6095718D01*
X+6714909Y+6098524D01*
X+6725404Y+6099497D01*
X+6726000Y+6099500D01*
X+6662500Y+6036000D02*
X+6662717Y+6030753D01*
X+6664482Y+6020258D01*
X+6668174Y+6009763D01*
X+6674202Y+5999268D01*
X+6683424Y+5988888D01*
X+6693919Y+5981200D01*
X+6704414Y+5976282D01*
X+6714909Y+5973476D01*
X+6725404Y+5972503D01*
X+6726000Y+5972500D01*
X+6789500Y+6036000D02*
X+6789283Y+6030753D01*
X+6787518Y+6020258D01*
X+6783826Y+6009763D01*
X+6777798Y+5999268D01*
X+6768576Y+5988888D01*
X+6758081Y+5981200D01*
X+6747586Y+5976282D01*
X+6737091Y+5973476D01*
X+6726596Y+5972503D01*
X+6726000Y+5972500D01*
X+6681099Y+6080901D02*
X+6770901Y+5991099D01*
X+6681099Y+5991099D02*
X+6770901Y+6080901D01*
X+6789500Y+5782000D02*
X+6789283Y+5787247D01*
X+6787518Y+5797742D01*
X+6783826Y+5808237D01*
X+6777798Y+5818732D01*
X+6768576Y+5829112D01*
X+6758081Y+5836800D01*
X+6747586Y+5841718D01*
X+6737091Y+5844524D01*
X+6726596Y+5845497D01*
X+6726000Y+5845500D01*
X+6662500Y+5782000D02*
X+6662717Y+5787247D01*
X+6664482Y+5797742D01*
X+6668174Y+5808237D01*
X+6674202Y+5818732D01*
X+6683424Y+5829112D01*
X+6693919Y+5836800D01*
X+6704414Y+5841718D01*
X+6714909Y+5844524D01*
X+6725404Y+5845497D01*
X+6726000Y+5845500D01*
X+6662500Y+5782000D02*
X+6662717Y+5776753D01*
X+6664482Y+5766258D01*
X+6668174Y+5755763D01*
X+6674202Y+5745268D01*
X+6683424Y+5734888D01*
X+6693919Y+5727200D01*
X+6704414Y+5722282D01*
X+6714909Y+5719476D01*
X+6725404Y+5718503D01*
X+6726000Y+5718500D01*
X+6789500Y+5782000D02*
X+6789283Y+5776753D01*
X+6787518Y+5766258D01*
X+6783826Y+5755763D01*
X+6777798Y+5745268D01*
X+6768576Y+5734888D01*
X+6758081Y+5727200D01*
X+6747586Y+5722282D01*
X+6737091Y+5719476D01*
X+6726596Y+5718503D01*
X+6726000Y+5718500D01*
X+6726000Y+5845500D02*
X+6726000Y+5718500D01*
X+6662500Y+5782000D02*
X+6789500Y+5782000D01*
X+6789283Y+5787247D01*
X+6787518Y+5797742D01*
X+6783826Y+5808237D01*
X+6777798Y+5818732D01*
X+6768576Y+5829112D01*
X+6758081Y+5836800D01*
X+6747586Y+5841718D01*
X+6737091Y+5844524D01*
X+6726596Y+5845497D01*
X+6726000Y+5845500D01*
X+6662500Y+5782000D02*
X+6662717Y+5787247D01*
X+6664482Y+5797742D01*
X+6668174Y+5808237D01*
X+6674202Y+5818732D01*
X+6683424Y+5829112D01*
X+6693919Y+5836800D01*
X+6704414Y+5841718D01*
X+6714909Y+5844524D01*
X+6725404Y+5845497D01*
X+6726000Y+5845500D01*
X+6662500Y+5782000D02*
X+6662717Y+5776753D01*
X+6664482Y+5766258D01*
X+6668174Y+5755763D01*
X+6674202Y+5745268D01*
X+6683424Y+5734888D01*
X+6693919Y+5727200D01*
X+6704414Y+5722282D01*
X+6714909Y+5719476D01*
X+6725404Y+5718503D01*
X+6726000Y+5718500D01*
X+6789500Y+5782000D02*
X+6789283Y+5776753D01*
X+6787518Y+5766258D01*
X+6783826Y+5755763D01*
X+6777798Y+5745268D01*
X+6768576Y+5734888D01*
X+6758081Y+5727200D01*
X+6747586Y+5722282D01*
X+6737091Y+5719476D01*
X+6726596Y+5718503D01*
X+6726000Y+5718500D01*
X+6681099Y+5826901D02*
X+6770901Y+5737099D01*
X+6681099Y+5737099D02*
X+6770901Y+5826901D01*
X+6789500Y+5528000D02*
X+6789283Y+5533247D01*
X+6787518Y+5543742D01*
X+6783826Y+5554237D01*
X+6777798Y+5564732D01*
X+6768576Y+5575112D01*
X+6758081Y+5582800D01*
X+6747586Y+5587718D01*
X+6737091Y+5590524D01*
X+6726596Y+5591497D01*
X+6726000Y+5591500D01*
X+6662500Y+5528000D02*
X+6662717Y+5533247D01*
X+6664482Y+5543742D01*
X+6668174Y+5554237D01*
X+6674202Y+5564732D01*
X+6683424Y+5575112D01*
X+6693919Y+5582800D01*
X+6704414Y+5587718D01*
X+6714909Y+5590524D01*
X+6725404Y+5591497D01*
X+6726000Y+5591500D01*
X+6662500Y+5528000D02*
X+6662717Y+5522753D01*
X+6664482Y+5512258D01*
X+6668174Y+5501763D01*
X+6674202Y+5491268D01*
X+6683424Y+5480888D01*
X+6693919Y+5473200D01*
X+6704414Y+5468282D01*
X+6714909Y+5465476D01*
X+6725404Y+5464503D01*
X+6726000Y+5464500D01*
X+6789500Y+5528000D02*
X+6789283Y+5522753D01*
X+6787518Y+5512258D01*
X+6783826Y+5501763D01*
X+6777798Y+5491268D01*
X+6768576Y+5480888D01*
X+6758081Y+5473200D01*
X+6747586Y+5468282D01*
X+6737091Y+5465476D01*
X+6726596Y+5464503D01*
X+6726000Y+5464500D01*
X+6726000Y+5591500D02*
X+6726000Y+5464500D01*
X+6662500Y+5528000D02*
X+6789500Y+5528000D01*
X+6789283Y+5533247D01*
X+6787518Y+5543742D01*
X+6783826Y+5554237D01*
X+6777798Y+5564732D01*
X+6768576Y+5575112D01*
X+6758081Y+5582800D01*
X+6747586Y+5587718D01*
X+6737091Y+5590524D01*
X+6726596Y+5591497D01*
X+6726000Y+5591500D01*
X+6662500Y+5528000D02*
X+6662717Y+5533247D01*
X+6664482Y+5543742D01*
X+6668174Y+5554237D01*
X+6674202Y+5564732D01*
X+6683424Y+5575112D01*
X+6693919Y+5582800D01*
X+6704414Y+5587718D01*
X+6714909Y+5590524D01*
X+6725404Y+5591497D01*
X+6726000Y+5591500D01*
X+6662500Y+5528000D02*
X+6662717Y+5522753D01*
X+6664482Y+5512258D01*
X+6668174Y+5501763D01*
X+6674202Y+5491268D01*
X+6683424Y+5480888D01*
X+6693919Y+5473200D01*
X+6704414Y+5468282D01*
X+6714909Y+5465476D01*
X+6725404Y+5464503D01*
X+6726000Y+5464500D01*
X+6789500Y+5528000D02*
X+6789283Y+5522753D01*
X+6787518Y+5512258D01*
X+6783826Y+5501763D01*
X+6777798Y+5491268D01*
X+6768576Y+5480888D01*
X+6758081Y+5473200D01*
X+6747586Y+5468282D01*
X+6737091Y+5465476D01*
X+6726596Y+5464503D01*
X+6726000Y+5464500D01*
X+6681099Y+5572901D02*
X+6770901Y+5483099D01*
X+6681099Y+5483099D02*
X+6770901Y+5572901D01*
X+6789500Y+5274000D02*
X+6789283Y+5279247D01*
X+6787518Y+5289742D01*
X+6783826Y+5300237D01*
X+6777798Y+5310732D01*
X+6768576Y+5321112D01*
X+6758081Y+5328800D01*
X+6747586Y+5333718D01*
X+6737091Y+5336524D01*
X+6726596Y+5337497D01*
X+6726000Y+5337500D01*
X+6662500Y+5274000D02*
X+6662717Y+5279247D01*
X+6664482Y+5289742D01*
X+6668174Y+5300237D01*
X+6674202Y+5310732D01*
X+6683424Y+5321112D01*
X+6693919Y+5328800D01*
X+6704414Y+5333718D01*
X+6714909Y+5336524D01*
X+6725404Y+5337497D01*
X+6726000Y+5337500D01*
X+6662500Y+5274000D02*
X+6662717Y+5268753D01*
X+6664482Y+5258258D01*
X+6668174Y+5247763D01*
X+6674202Y+5237268D01*
X+6683424Y+5226888D01*
X+6693919Y+5219200D01*
X+6704414Y+5214282D01*
X+6714909Y+5211476D01*
X+6725404Y+5210503D01*
X+6726000Y+5210500D01*
X+6789500Y+5274000D02*
X+6789283Y+5268753D01*
X+6787518Y+5258258D01*
X+6783826Y+5247763D01*
X+6777798Y+5237268D01*
X+6768576Y+5226888D01*
X+6758081Y+5219200D01*
X+6747586Y+5214282D01*
X+6737091Y+5211476D01*
X+6726596Y+5210503D01*
X+6726000Y+5210500D01*
X+6726000Y+5337500D02*
X+6726000Y+5210500D01*
X+6662500Y+5274000D02*
X+6789500Y+5274000D01*
X+6789283Y+5279247D01*
X+6787518Y+5289742D01*
X+6783826Y+5300237D01*
X+6777798Y+5310732D01*
X+6768576Y+5321112D01*
X+6758081Y+5328800D01*
X+6747586Y+5333718D01*
X+6737091Y+5336524D01*
X+6726596Y+5337497D01*
X+6726000Y+5337500D01*
X+6662500Y+5274000D02*
X+6662717Y+5279247D01*
X+6664482Y+5289742D01*
X+6668174Y+5300237D01*
X+6674202Y+5310732D01*
X+6683424Y+5321112D01*
X+6693919Y+5328800D01*
X+6704414Y+5333718D01*
X+6714909Y+5336524D01*
X+6725404Y+5337497D01*
X+6726000Y+5337500D01*
X+6662500Y+5274000D02*
X+6662717Y+5268753D01*
X+6664482Y+5258258D01*
X+6668174Y+5247763D01*
X+6674202Y+5237268D01*
X+6683424Y+5226888D01*
X+6693919Y+5219200D01*
X+6704414Y+5214282D01*
X+6714909Y+5211476D01*
X+6725404Y+5210503D01*
X+6726000Y+5210500D01*
X+6789500Y+5274000D02*
X+6789283Y+5268753D01*
X+6787518Y+5258258D01*
X+6783826Y+5247763D01*
X+6777798Y+5237268D01*
X+6768576Y+5226888D01*
X+6758081Y+5219200D01*
X+6747586Y+5214282D01*
X+6737091Y+5211476D01*
X+6726596Y+5210503D01*
X+6726000Y+5210500D01*
X+6681099Y+5318901D02*
X+6770901Y+5229099D01*
X+6681099Y+5229099D02*
X+6770901Y+5318901D01*
X+6789500Y+5020000D02*
X+6789283Y+5025247D01*
X+6787518Y+5035742D01*
X+6783826Y+5046237D01*
X+6777798Y+5056732D01*
X+6768576Y+5067112D01*
X+6758081Y+5074800D01*
X+6747586Y+5079718D01*
X+6737091Y+5082524D01*
X+6726596Y+5083497D01*
X+6726000Y+5083500D01*
X+6662500Y+5020000D02*
X+6662717Y+5025247D01*
X+6664482Y+5035742D01*
X+6668174Y+5046237D01*
X+6674202Y+5056732D01*
X+6683424Y+5067112D01*
X+6693919Y+5074800D01*
X+6704414Y+5079718D01*
X+6714909Y+5082524D01*
X+6725404Y+5083497D01*
X+6726000Y+5083500D01*
X+6662500Y+5020000D02*
X+6662717Y+5014753D01*
X+6664482Y+5004258D01*
X+6668174Y+4993763D01*
X+6674202Y+4983268D01*
X+6683424Y+4972888D01*
X+6693919Y+4965200D01*
X+6704414Y+4960282D01*
X+6714909Y+4957476D01*
X+6725404Y+4956503D01*
X+6726000Y+4956500D01*
X+6789500Y+5020000D02*
X+6789283Y+5014753D01*
X+6787518Y+5004258D01*
X+6783826Y+4993763D01*
X+6777798Y+4983268D01*
X+6768576Y+4972888D01*
X+6758081Y+4965200D01*
X+6747586Y+4960282D01*
X+6737091Y+4957476D01*
X+6726596Y+4956503D01*
X+6726000Y+4956500D01*
X+6726000Y+5083500D02*
X+6726000Y+4956500D01*
X+6662500Y+5020000D02*
X+6789500Y+5020000D01*
X+6789283Y+5025247D01*
X+6787518Y+5035742D01*
X+6783826Y+5046237D01*
X+6777798Y+5056732D01*
X+6768576Y+5067112D01*
X+6758081Y+5074800D01*
X+6747586Y+5079718D01*
X+6737091Y+5082524D01*
X+6726596Y+5083497D01*
X+6726000Y+5083500D01*
X+6662500Y+5020000D02*
X+6662717Y+5025247D01*
X+6664482Y+5035742D01*
X+6668174Y+5046237D01*
X+6674202Y+5056732D01*
X+6683424Y+5067112D01*
X+6693919Y+5074800D01*
X+6704414Y+5079718D01*
X+6714909Y+5082524D01*
X+6725404Y+5083497D01*
X+6726000Y+5083500D01*
X+6662500Y+5020000D02*
X+6662717Y+5014753D01*
X+6664482Y+5004258D01*
X+6668174Y+4993763D01*
X+6674202Y+4983268D01*
X+6683424Y+4972888D01*
X+6693919Y+4965200D01*
X+6704414Y+4960282D01*
X+6714909Y+4957476D01*
X+6725404Y+4956503D01*
X+6726000Y+4956500D01*
X+6789500Y+5020000D02*
X+6789283Y+5014753D01*
X+6787518Y+5004258D01*
X+6783826Y+4993763D01*
X+6777798Y+4983268D01*
X+6768576Y+4972888D01*
X+6758081Y+4965200D01*
X+6747586Y+4960282D01*
X+6737091Y+4957476D01*
X+6726596Y+4956503D01*
X+6726000Y+4956500D01*
X+6681099Y+5064901D02*
X+6770901Y+4975099D01*
X+6681099Y+4975099D02*
X+6770901Y+5064901D01*
X+6789500Y+4766000D02*
X+6789283Y+4771247D01*
X+6787518Y+4781742D01*
X+6783826Y+4792237D01*
X+6777798Y+4802732D01*
X+6768576Y+4813112D01*
X+6758081Y+4820800D01*
X+6747586Y+4825718D01*
X+6737091Y+4828524D01*
X+6726596Y+4829497D01*
X+6726000Y+4829500D01*
X+6662500Y+4766000D02*
X+6662717Y+4771247D01*
X+6664482Y+4781742D01*
X+6668174Y+4792237D01*
X+6674202Y+4802732D01*
X+6683424Y+4813112D01*
X+6693919Y+4820800D01*
X+6704414Y+4825718D01*
X+6714909Y+4828524D01*
X+6725404Y+4829497D01*
X+6726000Y+4829500D01*
X+6662500Y+4766000D02*
X+6662717Y+4760753D01*
X+6664482Y+4750258D01*
X+6668174Y+4739763D01*
X+6674202Y+4729268D01*
X+6683424Y+4718888D01*
X+6693919Y+4711200D01*
X+6704414Y+4706282D01*
X+6714909Y+4703476D01*
X+6725404Y+4702503D01*
X+6726000Y+4702500D01*
X+6789500Y+4766000D02*
X+6789283Y+4760753D01*
X+6787518Y+4750258D01*
X+6783826Y+4739763D01*
X+6777798Y+4729268D01*
X+6768576Y+4718888D01*
X+6758081Y+4711200D01*
X+6747586Y+4706282D01*
X+6737091Y+4703476D01*
X+6726596Y+4702503D01*
X+6726000Y+4702500D01*
X+6726000Y+4829500D02*
X+6726000Y+4702500D01*
X+6662500Y+4766000D02*
X+6789500Y+4766000D01*
X+6789283Y+4771247D01*
X+6787518Y+4781742D01*
X+6783826Y+4792237D01*
X+6777798Y+4802732D01*
X+6768576Y+4813112D01*
X+6758081Y+4820800D01*
X+6747586Y+4825718D01*
X+6737091Y+4828524D01*
X+6726596Y+4829497D01*
X+6726000Y+4829500D01*
X+6662500Y+4766000D02*
X+6662717Y+4771247D01*
X+6664482Y+4781742D01*
X+6668174Y+4792237D01*
X+6674202Y+4802732D01*
X+6683424Y+4813112D01*
X+6693919Y+4820800D01*
X+6704414Y+4825718D01*
X+6714909Y+4828524D01*
X+6725404Y+4829497D01*
X+6726000Y+4829500D01*
X+6662500Y+4766000D02*
X+6662717Y+4760753D01*
X+6664482Y+4750258D01*
X+6668174Y+4739763D01*
X+6674202Y+4729268D01*
X+6683424Y+4718888D01*
X+6693919Y+4711200D01*
X+6704414Y+4706282D01*
X+6714909Y+4703476D01*
X+6725404Y+4702503D01*
X+6726000Y+4702500D01*
X+6789500Y+4766000D02*
X+6789283Y+4760753D01*
X+6787518Y+4750258D01*
X+6783826Y+4739763D01*
X+6777798Y+4729268D01*
X+6768576Y+4718888D01*
X+6758081Y+4711200D01*
X+6747586Y+4706282D01*
X+6737091Y+4703476D01*
X+6726596Y+4702503D01*
X+6726000Y+4702500D01*
X+6681099Y+4810901D02*
X+6770901Y+4721099D01*
X+6681099Y+4721099D02*
X+6770901Y+4810901D01*
X+6789500Y+4512000D02*
X+6789283Y+4517247D01*
X+6787518Y+4527742D01*
X+6783826Y+4538237D01*
X+6777798Y+4548732D01*
X+6768576Y+4559112D01*
X+6758081Y+4566800D01*
X+6747586Y+4571718D01*
X+6737091Y+4574524D01*
X+6726596Y+4575497D01*
X+6726000Y+4575500D01*
X+6662500Y+4512000D02*
X+6662717Y+4517247D01*
X+6664482Y+4527742D01*
X+6668174Y+4538237D01*
X+6674202Y+4548732D01*
X+6683424Y+4559112D01*
X+6693919Y+4566800D01*
X+6704414Y+4571718D01*
X+6714909Y+4574524D01*
X+6725404Y+4575497D01*
X+6726000Y+4575500D01*
X+6662500Y+4512000D02*
X+6662717Y+4506753D01*
X+6664482Y+4496258D01*
X+6668174Y+4485763D01*
X+6674202Y+4475268D01*
X+6683424Y+4464888D01*
X+6693919Y+4457200D01*
X+6704414Y+4452282D01*
X+6714909Y+4449476D01*
X+6725404Y+4448503D01*
X+6726000Y+4448500D01*
X+6789500Y+4512000D02*
X+6789283Y+4506753D01*
X+6787518Y+4496258D01*
X+6783826Y+4485763D01*
X+6777798Y+4475268D01*
X+6768576Y+4464888D01*
X+6758081Y+4457200D01*
X+6747586Y+4452282D01*
X+6737091Y+4449476D01*
X+6726596Y+4448503D01*
X+6726000Y+4448500D01*
X+6726000Y+4575500D02*
X+6726000Y+4448500D01*
X+6662500Y+4512000D02*
X+6789500Y+4512000D01*
X+6789283Y+4517247D01*
X+6787518Y+4527742D01*
X+6783826Y+4538237D01*
X+6777798Y+4548732D01*
X+6768576Y+4559112D01*
X+6758081Y+4566800D01*
X+6747586Y+4571718D01*
X+6737091Y+4574524D01*
X+6726596Y+4575497D01*
X+6726000Y+4575500D01*
X+6662500Y+4512000D02*
X+6662717Y+4517247D01*
X+6664482Y+4527742D01*
X+6668174Y+4538237D01*
X+6674202Y+4548732D01*
X+6683424Y+4559112D01*
X+6693919Y+4566800D01*
X+6704414Y+4571718D01*
X+6714909Y+4574524D01*
X+6725404Y+4575497D01*
X+6726000Y+4575500D01*
X+6662500Y+4512000D02*
X+6662717Y+4506753D01*
X+6664482Y+4496258D01*
X+6668174Y+4485763D01*
X+6674202Y+4475268D01*
X+6683424Y+4464888D01*
X+6693919Y+4457200D01*
X+6704414Y+4452282D01*
X+6714909Y+4449476D01*
X+6725404Y+4448503D01*
X+6726000Y+4448500D01*
X+6789500Y+4512000D02*
X+6789283Y+4506753D01*
X+6787518Y+4496258D01*
X+6783826Y+4485763D01*
X+6777798Y+4475268D01*
X+6768576Y+4464888D01*
X+6758081Y+4457200D01*
X+6747586Y+4452282D01*
X+6737091Y+4449476D01*
X+6726596Y+4448503D01*
X+6726000Y+4448500D01*
X+6681099Y+4556901D02*
X+6770901Y+4467099D01*
X+6681099Y+4467099D02*
X+6770901Y+4556901D01*
X+6789500Y+4258000D02*
X+6789283Y+4263247D01*
X+6787518Y+4273742D01*
X+6783826Y+4284237D01*
X+6777798Y+4294732D01*
X+6768576Y+4305112D01*
X+6758081Y+4312800D01*
X+6747586Y+4317718D01*
X+6737091Y+4320524D01*
X+6726596Y+4321497D01*
X+6726000Y+4321500D01*
X+6662500Y+4258000D02*
X+6662717Y+4263247D01*
X+6664482Y+4273742D01*
X+6668174Y+4284237D01*
X+6674202Y+4294732D01*
X+6683424Y+4305112D01*
X+6693919Y+4312800D01*
X+6704414Y+4317718D01*
X+6714909Y+4320524D01*
X+6725404Y+4321497D01*
X+6726000Y+4321500D01*
X+6662500Y+4258000D02*
X+6662717Y+4252753D01*
X+6664482Y+4242258D01*
X+6668174Y+4231763D01*
X+6674202Y+4221268D01*
X+6683424Y+4210888D01*
X+6693919Y+4203200D01*
X+6704414Y+4198282D01*
X+6714909Y+4195476D01*
X+6725404Y+4194503D01*
X+6726000Y+4194500D01*
X+6789500Y+4258000D02*
X+6789283Y+4252753D01*
X+6787518Y+4242258D01*
X+6783826Y+4231763D01*
X+6777798Y+4221268D01*
X+6768576Y+4210888D01*
X+6758081Y+4203200D01*
X+6747586Y+4198282D01*
X+6737091Y+4195476D01*
X+6726596Y+4194503D01*
X+6726000Y+4194500D01*
X+6726000Y+4321500D02*
X+6726000Y+4194500D01*
X+6662500Y+4258000D02*
X+6789500Y+4258000D01*
X+6789283Y+4263247D01*
X+6787518Y+4273742D01*
X+6783826Y+4284237D01*
X+6777798Y+4294732D01*
X+6768576Y+4305112D01*
X+6758081Y+4312800D01*
X+6747586Y+4317718D01*
X+6737091Y+4320524D01*
X+6726596Y+4321497D01*
X+6726000Y+4321500D01*
X+6662500Y+4258000D02*
X+6662717Y+4263247D01*
X+6664482Y+4273742D01*
X+6668174Y+4284237D01*
X+6674202Y+4294732D01*
X+6683424Y+4305112D01*
X+6693919Y+4312800D01*
X+6704414Y+4317718D01*
X+6714909Y+4320524D01*
X+6725404Y+4321497D01*
X+6726000Y+4321500D01*
X+6662500Y+4258000D02*
X+6662717Y+4252753D01*
X+6664482Y+4242258D01*
X+6668174Y+4231763D01*
X+6674202Y+4221268D01*
X+6683424Y+4210888D01*
X+6693919Y+4203200D01*
X+6704414Y+4198282D01*
X+6714909Y+4195476D01*
X+6725404Y+4194503D01*
X+6726000Y+4194500D01*
X+6789500Y+4258000D02*
X+6789283Y+4252753D01*
X+6787518Y+4242258D01*
X+6783826Y+4231763D01*
X+6777798Y+4221268D01*
X+6768576Y+4210888D01*
X+6758081Y+4203200D01*
X+6747586Y+4198282D01*
X+6737091Y+4195476D01*
X+6726596Y+4194503D01*
X+6726000Y+4194500D01*
X+6681099Y+4302901D02*
X+6770901Y+4213099D01*
X+6681099Y+4213099D02*
X+6770901Y+4302901D01*
X+6789500Y+4004000D02*
X+6789283Y+4009247D01*
X+6787518Y+4019742D01*
X+6783826Y+4030237D01*
X+6777798Y+4040732D01*
X+6768576Y+4051112D01*
X+6758081Y+4058800D01*
X+6747586Y+4063718D01*
X+6737091Y+4066524D01*
X+6726596Y+4067497D01*
X+6726000Y+4067500D01*
X+6662500Y+4004000D02*
X+6662717Y+4009247D01*
X+6664482Y+4019742D01*
X+6668174Y+4030237D01*
X+6674202Y+4040732D01*
X+6683424Y+4051112D01*
X+6693919Y+4058800D01*
X+6704414Y+4063718D01*
X+6714909Y+4066524D01*
X+6725404Y+4067497D01*
X+6726000Y+4067500D01*
X+6662500Y+4004000D02*
X+6662717Y+3998753D01*
X+6664482Y+3988258D01*
X+6668174Y+3977763D01*
X+6674202Y+3967268D01*
X+6683424Y+3956888D01*
X+6693919Y+3949200D01*
X+6704414Y+3944282D01*
X+6714909Y+3941476D01*
X+6725404Y+3940503D01*
X+6726000Y+3940500D01*
X+6789500Y+4004000D02*
X+6789283Y+3998753D01*
X+6787518Y+3988258D01*
X+6783826Y+3977763D01*
X+6777798Y+3967268D01*
X+6768576Y+3956888D01*
X+6758081Y+3949200D01*
X+6747586Y+3944282D01*
X+6737091Y+3941476D01*
X+6726596Y+3940503D01*
X+6726000Y+3940500D01*
X+6726000Y+4067500D02*
X+6726000Y+3940500D01*
X+6662500Y+4004000D02*
X+6789500Y+4004000D01*
X+6789283Y+4009247D01*
X+6787518Y+4019742D01*
X+6783826Y+4030237D01*
X+6777798Y+4040732D01*
X+6768576Y+4051112D01*
X+6758081Y+4058800D01*
X+6747586Y+4063718D01*
X+6737091Y+4066524D01*
X+6726596Y+4067497D01*
X+6726000Y+4067500D01*
X+6662500Y+4004000D02*
X+6662717Y+4009247D01*
X+6664482Y+4019742D01*
X+6668174Y+4030237D01*
X+6674202Y+4040732D01*
X+6683424Y+4051112D01*
X+6693919Y+4058800D01*
X+6704414Y+4063718D01*
X+6714909Y+4066524D01*
X+6725404Y+4067497D01*
X+6726000Y+4067500D01*
X+6662500Y+4004000D02*
X+6662717Y+3998753D01*
X+6664482Y+3988258D01*
X+6668174Y+3977763D01*
X+6674202Y+3967268D01*
X+6683424Y+3956888D01*
X+6693919Y+3949200D01*
X+6704414Y+3944282D01*
X+6714909Y+3941476D01*
X+6725404Y+3940503D01*
X+6726000Y+3940500D01*
X+6789500Y+4004000D02*
X+6789283Y+3998753D01*
X+6787518Y+3988258D01*
X+6783826Y+3977763D01*
X+6777798Y+3967268D01*
X+6768576Y+3956888D01*
X+6758081Y+3949200D01*
X+6747586Y+3944282D01*
X+6737091Y+3941476D01*
X+6726596Y+3940503D01*
X+6726000Y+3940500D01*
X+6681099Y+4048901D02*
X+6770901Y+3959099D01*
X+6681099Y+3959099D02*
X+6770901Y+4048901D01*
X+6789500Y+3750000D02*
X+6789283Y+3755247D01*
X+6787518Y+3765742D01*
X+6783826Y+3776237D01*
X+6777798Y+3786732D01*
X+6768576Y+3797112D01*
X+6758081Y+3804800D01*
X+6747586Y+3809718D01*
X+6737091Y+3812524D01*
X+6726596Y+3813497D01*
X+6726000Y+3813500D01*
X+6662500Y+3750000D02*
X+6662717Y+3755247D01*
X+6664482Y+3765742D01*
X+6668174Y+3776237D01*
X+6674202Y+3786732D01*
X+6683424Y+3797112D01*
X+6693919Y+3804800D01*
X+6704414Y+3809718D01*
X+6714909Y+3812524D01*
X+6725404Y+3813497D01*
X+6726000Y+3813500D01*
X+6662500Y+3750000D02*
X+6662717Y+3744753D01*
X+6664482Y+3734258D01*
X+6668174Y+3723763D01*
X+6674202Y+3713268D01*
X+6683424Y+3702888D01*
X+6693919Y+3695200D01*
X+6704414Y+3690282D01*
X+6714909Y+3687476D01*
X+6725404Y+3686503D01*
X+6726000Y+3686500D01*
X+6789500Y+3750000D02*
X+6789283Y+3744753D01*
X+6787518Y+3734258D01*
X+6783826Y+3723763D01*
X+6777798Y+3713268D01*
X+6768576Y+3702888D01*
X+6758081Y+3695200D01*
X+6747586Y+3690282D01*
X+6737091Y+3687476D01*
X+6726596Y+3686503D01*
X+6726000Y+3686500D01*
X+6726000Y+3813500D02*
X+6726000Y+3686500D01*
X+6662500Y+3750000D02*
X+6789500Y+3750000D01*
X+6789283Y+3755247D01*
X+6787518Y+3765742D01*
X+6783826Y+3776237D01*
X+6777798Y+3786732D01*
X+6768576Y+3797112D01*
X+6758081Y+3804800D01*
X+6747586Y+3809718D01*
X+6737091Y+3812524D01*
X+6726596Y+3813497D01*
X+6726000Y+3813500D01*
X+6662500Y+3750000D02*
X+6662717Y+3755247D01*
X+6664482Y+3765742D01*
X+6668174Y+3776237D01*
X+6674202Y+3786732D01*
X+6683424Y+3797112D01*
X+6693919Y+3804800D01*
X+6704414Y+3809718D01*
X+6714909Y+3812524D01*
X+6725404Y+3813497D01*
X+6726000Y+3813500D01*
X+6662500Y+3750000D02*
X+6662717Y+3744753D01*
X+6664482Y+3734258D01*
X+6668174Y+3723763D01*
X+6674202Y+3713268D01*
X+6683424Y+3702888D01*
X+6693919Y+3695200D01*
X+6704414Y+3690282D01*
X+6714909Y+3687476D01*
X+6725404Y+3686503D01*
X+6726000Y+3686500D01*
X+6789500Y+3750000D02*
X+6789283Y+3744753D01*
X+6787518Y+3734258D01*
X+6783826Y+3723763D01*
X+6777798Y+3713268D01*
X+6768576Y+3702888D01*
X+6758081Y+3695200D01*
X+6747586Y+3690282D01*
X+6737091Y+3687476D01*
X+6726596Y+3686503D01*
X+6726000Y+3686500D01*
X+6681099Y+3794901D02*
X+6770901Y+3705099D01*
X+6681099Y+3705099D02*
X+6770901Y+3794901D01*
X+8313500Y+3750000D02*
X+8313283Y+3755247D01*
X+8311518Y+3765742D01*
X+8307826Y+3776237D01*
X+8301798Y+3786732D01*
X+8292576Y+3797112D01*
X+8282081Y+3804800D01*
X+8271586Y+3809718D01*
X+8261091Y+3812524D01*
X+8250596Y+3813497D01*
X+8250000Y+3813500D01*
X+8186500Y+3750000D02*
X+8186717Y+3755247D01*
X+8188482Y+3765742D01*
X+8192174Y+3776237D01*
X+8198202Y+3786732D01*
X+8207424Y+3797112D01*
X+8217919Y+3804800D01*
X+8228414Y+3809718D01*
X+8238909Y+3812524D01*
X+8249404Y+3813497D01*
X+8250000Y+3813500D01*
X+8186500Y+3750000D02*
X+8186717Y+3744753D01*
X+8188482Y+3734258D01*
X+8192174Y+3723763D01*
X+8198202Y+3713268D01*
X+8207424Y+3702888D01*
X+8217919Y+3695200D01*
X+8228414Y+3690282D01*
X+8238909Y+3687476D01*
X+8249404Y+3686503D01*
X+8250000Y+3686500D01*
X+8313500Y+3750000D02*
X+8313283Y+3744753D01*
X+8311518Y+3734258D01*
X+8307826Y+3723763D01*
X+8301798Y+3713268D01*
X+8292576Y+3702888D01*
X+8282081Y+3695200D01*
X+8271586Y+3690282D01*
X+8261091Y+3687476D01*
X+8250596Y+3686503D01*
X+8250000Y+3686500D01*
X+8250000Y+3813500D02*
X+8250000Y+3686500D01*
X+8186500Y+3750000D02*
X+8313500Y+3750000D01*
X+8313283Y+3755247D01*
X+8311518Y+3765742D01*
X+8307826Y+3776237D01*
X+8301798Y+3786732D01*
X+8292576Y+3797112D01*
X+8282081Y+3804800D01*
X+8271586Y+3809718D01*
X+8261091Y+3812524D01*
X+8250596Y+3813497D01*
X+8250000Y+3813500D01*
X+8186500Y+3750000D02*
X+8186717Y+3755247D01*
X+8188482Y+3765742D01*
X+8192174Y+3776237D01*
X+8198202Y+3786732D01*
X+8207424Y+3797112D01*
X+8217919Y+3804800D01*
X+8228414Y+3809718D01*
X+8238909Y+3812524D01*
X+8249404Y+3813497D01*
X+8250000Y+3813500D01*
X+8186500Y+3750000D02*
X+8186717Y+3744753D01*
X+8188482Y+3734258D01*
X+8192174Y+3723763D01*
X+8198202Y+3713268D01*
X+8207424Y+3702888D01*
X+8217919Y+3695200D01*
X+8228414Y+3690282D01*
X+8238909Y+3687476D01*
X+8249404Y+3686503D01*
X+8250000Y+3686500D01*
X+8313500Y+3750000D02*
X+8313283Y+3744753D01*
X+8311518Y+3734258D01*
X+8307826Y+3723763D01*
X+8301798Y+3713268D01*
X+8292576Y+3702888D01*
X+8282081Y+3695200D01*
X+8271586Y+3690282D01*
X+8261091Y+3687476D01*
X+8250596Y+3686503D01*
X+8250000Y+3686500D01*
X+8205099Y+3794901D02*
X+8294901Y+3705099D01*
X+8205099Y+3705099D02*
X+8294901Y+3794901D01*
X+8313500Y+4004000D02*
X+8313283Y+4009247D01*
X+8311518Y+4019742D01*
X+8307826Y+4030237D01*
X+8301798Y+4040732D01*
X+8292576Y+4051112D01*
X+8282081Y+4058800D01*
X+8271586Y+4063718D01*
X+8261091Y+4066524D01*
X+8250596Y+4067497D01*
X+8250000Y+4067500D01*
X+8186500Y+4004000D02*
X+8186717Y+4009247D01*
X+8188482Y+4019742D01*
X+8192174Y+4030237D01*
X+8198202Y+4040732D01*
X+8207424Y+4051112D01*
X+8217919Y+4058800D01*
X+8228414Y+4063718D01*
X+8238909Y+4066524D01*
X+8249404Y+4067497D01*
X+8250000Y+4067500D01*
X+8186500Y+4004000D02*
X+8186717Y+3998753D01*
X+8188482Y+3988258D01*
X+8192174Y+3977763D01*
X+8198202Y+3967268D01*
X+8207424Y+3956888D01*
X+8217919Y+3949200D01*
X+8228414Y+3944282D01*
X+8238909Y+3941476D01*
X+8249404Y+3940503D01*
X+8250000Y+3940500D01*
X+8313500Y+4004000D02*
X+8313283Y+3998753D01*
X+8311518Y+3988258D01*
X+8307826Y+3977763D01*
X+8301798Y+3967268D01*
X+8292576Y+3956888D01*
X+8282081Y+3949200D01*
X+8271586Y+3944282D01*
X+8261091Y+3941476D01*
X+8250596Y+3940503D01*
X+8250000Y+3940500D01*
X+8250000Y+4067500D02*
X+8250000Y+3940500D01*
X+8186500Y+4004000D02*
X+8313500Y+4004000D01*
X+8313283Y+4009247D01*
X+8311518Y+4019742D01*
X+8307826Y+4030237D01*
X+8301798Y+4040732D01*
X+8292576Y+4051112D01*
X+8282081Y+4058800D01*
X+8271586Y+4063718D01*
X+8261091Y+4066524D01*
X+8250596Y+4067497D01*
X+8250000Y+4067500D01*
X+8186500Y+4004000D02*
X+8186717Y+4009247D01*
X+8188482Y+4019742D01*
X+8192174Y+4030237D01*
X+8198202Y+4040732D01*
X+8207424Y+4051112D01*
X+8217919Y+4058800D01*
X+8228414Y+4063718D01*
X+8238909Y+4066524D01*
X+8249404Y+4067497D01*
X+8250000Y+4067500D01*
X+8186500Y+4004000D02*
X+8186717Y+3998753D01*
X+8188482Y+3988258D01*
X+8192174Y+3977763D01*
X+8198202Y+3967268D01*
X+8207424Y+3956888D01*
X+8217919Y+3949200D01*
X+8228414Y+3944282D01*
X+8238909Y+3941476D01*
X+8249404Y+3940503D01*
X+8250000Y+3940500D01*
X+8313500Y+4004000D02*
X+8313283Y+3998753D01*
X+8311518Y+3988258D01*
X+8307826Y+3977763D01*
X+8301798Y+3967268D01*
X+8292576Y+3956888D01*
X+8282081Y+3949200D01*
X+8271586Y+3944282D01*
X+8261091Y+3941476D01*
X+8250596Y+3940503D01*
X+8250000Y+3940500D01*
X+8205099Y+4048901D02*
X+8294901Y+3959099D01*
X+8205099Y+3959099D02*
X+8294901Y+4048901D01*
X+8313500Y+4258000D02*
X+8313283Y+4263247D01*
X+8311518Y+4273742D01*
X+8307826Y+4284237D01*
X+8301798Y+4294732D01*
X+8292576Y+4305112D01*
X+8282081Y+4312800D01*
X+8271586Y+4317718D01*
X+8261091Y+4320524D01*
X+8250596Y+4321497D01*
X+8250000Y+4321500D01*
X+8186500Y+4258000D02*
X+8186717Y+4263247D01*
X+8188482Y+4273742D01*
X+8192174Y+4284237D01*
X+8198202Y+4294732D01*
X+8207424Y+4305112D01*
X+8217919Y+4312800D01*
X+8228414Y+4317718D01*
X+8238909Y+4320524D01*
X+8249404Y+4321497D01*
X+8250000Y+4321500D01*
X+8186500Y+4258000D02*
X+8186717Y+4252753D01*
X+8188482Y+4242258D01*
X+8192174Y+4231763D01*
X+8198202Y+4221268D01*
X+8207424Y+4210888D01*
X+8217919Y+4203200D01*
X+8228414Y+4198282D01*
X+8238909Y+4195476D01*
X+8249404Y+4194503D01*
X+8250000Y+4194500D01*
X+8313500Y+4258000D02*
X+8313283Y+4252753D01*
X+8311518Y+4242258D01*
X+8307826Y+4231763D01*
X+8301798Y+4221268D01*
X+8292576Y+4210888D01*
X+8282081Y+4203200D01*
X+8271586Y+4198282D01*
X+8261091Y+4195476D01*
X+8250596Y+4194503D01*
X+8250000Y+4194500D01*
X+8250000Y+4321500D02*
X+8250000Y+4194500D01*
X+8186500Y+4258000D02*
X+8313500Y+4258000D01*
X+8313283Y+4263247D01*
X+8311518Y+4273742D01*
X+8307826Y+4284237D01*
X+8301798Y+4294732D01*
X+8292576Y+4305112D01*
X+8282081Y+4312800D01*
X+8271586Y+4317718D01*
X+8261091Y+4320524D01*
X+8250596Y+4321497D01*
X+8250000Y+4321500D01*
X+8186500Y+4258000D02*
X+8186717Y+4263247D01*
X+8188482Y+4273742D01*
X+8192174Y+4284237D01*
X+8198202Y+4294732D01*
X+8207424Y+4305112D01*
X+8217919Y+4312800D01*
X+8228414Y+4317718D01*
X+8238909Y+4320524D01*
X+8249404Y+4321497D01*
X+8250000Y+4321500D01*
X+8186500Y+4258000D02*
X+8186717Y+4252753D01*
X+8188482Y+4242258D01*
X+8192174Y+4231763D01*
X+8198202Y+4221268D01*
X+8207424Y+4210888D01*
X+8217919Y+4203200D01*
X+8228414Y+4198282D01*
X+8238909Y+4195476D01*
X+8249404Y+4194503D01*
X+8250000Y+4194500D01*
X+8313500Y+4258000D02*
X+8313283Y+4252753D01*
X+8311518Y+4242258D01*
X+8307826Y+4231763D01*
X+8301798Y+4221268D01*
X+8292576Y+4210888D01*
X+8282081Y+4203200D01*
X+8271586Y+4198282D01*
X+8261091Y+4195476D01*
X+8250596Y+4194503D01*
X+8250000Y+4194500D01*
X+8205099Y+4302901D02*
X+8294901Y+4213099D01*
X+8205099Y+4213099D02*
X+8294901Y+4302901D01*
X+8313500Y+4512000D02*
X+8313283Y+4517247D01*
X+8311518Y+4527742D01*
X+8307826Y+4538237D01*
X+8301798Y+4548732D01*
X+8292576Y+4559112D01*
X+8282081Y+4566800D01*
X+8271586Y+4571718D01*
X+8261091Y+4574524D01*
X+8250596Y+4575497D01*
X+8250000Y+4575500D01*
X+8186500Y+4512000D02*
X+8186717Y+4517247D01*
X+8188482Y+4527742D01*
X+8192174Y+4538237D01*
X+8198202Y+4548732D01*
X+8207424Y+4559112D01*
X+8217919Y+4566800D01*
X+8228414Y+4571718D01*
X+8238909Y+4574524D01*
X+8249404Y+4575497D01*
X+8250000Y+4575500D01*
X+8186500Y+4512000D02*
X+8186717Y+4506753D01*
X+8188482Y+4496258D01*
X+8192174Y+4485763D01*
X+8198202Y+4475268D01*
X+8207424Y+4464888D01*
X+8217919Y+4457200D01*
X+8228414Y+4452282D01*
X+8238909Y+4449476D01*
X+8249404Y+4448503D01*
X+8250000Y+4448500D01*
X+8313500Y+4512000D02*
X+8313283Y+4506753D01*
X+8311518Y+4496258D01*
X+8307826Y+4485763D01*
X+8301798Y+4475268D01*
X+8292576Y+4464888D01*
X+8282081Y+4457200D01*
X+8271586Y+4452282D01*
X+8261091Y+4449476D01*
X+8250596Y+4448503D01*
X+8250000Y+4448500D01*
X+8250000Y+4575500D02*
X+8250000Y+4448500D01*
X+8186500Y+4512000D02*
X+8313500Y+4512000D01*
X+8313283Y+4517247D01*
X+8311518Y+4527742D01*
X+8307826Y+4538237D01*
X+8301798Y+4548732D01*
X+8292576Y+4559112D01*
X+8282081Y+4566800D01*
X+8271586Y+4571718D01*
X+8261091Y+4574524D01*
X+8250596Y+4575497D01*
X+8250000Y+4575500D01*
X+8186500Y+4512000D02*
X+8186717Y+4517247D01*
X+8188482Y+4527742D01*
X+8192174Y+4538237D01*
X+8198202Y+4548732D01*
X+8207424Y+4559112D01*
X+8217919Y+4566800D01*
X+8228414Y+4571718D01*
X+8238909Y+4574524D01*
X+8249404Y+4575497D01*
X+8250000Y+4575500D01*
X+8186500Y+4512000D02*
X+8186717Y+4506753D01*
X+8188482Y+4496258D01*
X+8192174Y+4485763D01*
X+8198202Y+4475268D01*
X+8207424Y+4464888D01*
X+8217919Y+4457200D01*
X+8228414Y+4452282D01*
X+8238909Y+4449476D01*
X+8249404Y+4448503D01*
X+8250000Y+4448500D01*
X+8313500Y+4512000D02*
X+8313283Y+4506753D01*
X+8311518Y+4496258D01*
X+8307826Y+4485763D01*
X+8301798Y+4475268D01*
X+8292576Y+4464888D01*
X+8282081Y+4457200D01*
X+8271586Y+4452282D01*
X+8261091Y+4449476D01*
X+8250596Y+4448503D01*
X+8250000Y+4448500D01*
X+8205099Y+4556901D02*
X+8294901Y+4467099D01*
X+8205099Y+4467099D02*
X+8294901Y+4556901D01*
X+8313500Y+4766000D02*
X+8313283Y+4771247D01*
X+8311518Y+4781742D01*
X+8307826Y+4792237D01*
X+8301798Y+4802732D01*
X+8292576Y+4813112D01*
X+8282081Y+4820800D01*
X+8271586Y+4825718D01*
X+8261091Y+4828524D01*
X+8250596Y+4829497D01*
X+8250000Y+4829500D01*
X+8186500Y+4766000D02*
X+8186717Y+4771247D01*
X+8188482Y+4781742D01*
X+8192174Y+4792237D01*
X+8198202Y+4802732D01*
X+8207424Y+4813112D01*
X+8217919Y+4820800D01*
X+8228414Y+4825718D01*
X+8238909Y+4828524D01*
X+8249404Y+4829497D01*
X+8250000Y+4829500D01*
X+8186500Y+4766000D02*
X+8186717Y+4760753D01*
X+8188482Y+4750258D01*
X+8192174Y+4739763D01*
X+8198202Y+4729268D01*
X+8207424Y+4718888D01*
X+8217919Y+4711200D01*
X+8228414Y+4706282D01*
X+8238909Y+4703476D01*
X+8249404Y+4702503D01*
X+8250000Y+4702500D01*
X+8313500Y+4766000D02*
X+8313283Y+4760753D01*
X+8311518Y+4750258D01*
X+8307826Y+4739763D01*
X+8301798Y+4729268D01*
X+8292576Y+4718888D01*
X+8282081Y+4711200D01*
X+8271586Y+4706282D01*
X+8261091Y+4703476D01*
X+8250596Y+4702503D01*
X+8250000Y+4702500D01*
X+8250000Y+4829500D02*
X+8250000Y+4702500D01*
X+8186500Y+4766000D02*
X+8313500Y+4766000D01*
X+8313283Y+4771247D01*
X+8311518Y+4781742D01*
X+8307826Y+4792237D01*
X+8301798Y+4802732D01*
X+8292576Y+4813112D01*
X+8282081Y+4820800D01*
X+8271586Y+4825718D01*
X+8261091Y+4828524D01*
X+8250596Y+4829497D01*
X+8250000Y+4829500D01*
X+8186500Y+4766000D02*
X+8186717Y+4771247D01*
X+8188482Y+4781742D01*
X+8192174Y+4792237D01*
X+8198202Y+4802732D01*
X+8207424Y+4813112D01*
X+8217919Y+4820800D01*
X+8228414Y+4825718D01*
X+8238909Y+4828524D01*
X+8249404Y+4829497D01*
X+8250000Y+4829500D01*
X+8186500Y+4766000D02*
X+8186717Y+4760753D01*
X+8188482Y+4750258D01*
X+8192174Y+4739763D01*
X+8198202Y+4729268D01*
X+8207424Y+4718888D01*
X+8217919Y+4711200D01*
X+8228414Y+4706282D01*
X+8238909Y+4703476D01*
X+8249404Y+4702503D01*
X+8250000Y+4702500D01*
X+8313500Y+4766000D02*
X+8313283Y+4760753D01*
X+8311518Y+4750258D01*
X+8307826Y+4739763D01*
X+8301798Y+4729268D01*
X+8292576Y+4718888D01*
X+8282081Y+4711200D01*
X+8271586Y+4706282D01*
X+8261091Y+4703476D01*
X+8250596Y+4702503D01*
X+8250000Y+4702500D01*
X+8205099Y+4810901D02*
X+8294901Y+4721099D01*
X+8205099Y+4721099D02*
X+8294901Y+4810901D01*
X+8313500Y+5020000D02*
X+8313283Y+5025247D01*
X+8311518Y+5035742D01*
X+8307826Y+5046237D01*
X+8301798Y+5056732D01*
X+8292576Y+5067112D01*
X+8282081Y+5074800D01*
X+8271586Y+5079718D01*
X+8261091Y+5082524D01*
X+8250596Y+5083497D01*
X+8250000Y+5083500D01*
X+8186500Y+5020000D02*
X+8186717Y+5025247D01*
X+8188482Y+5035742D01*
X+8192174Y+5046237D01*
X+8198202Y+5056732D01*
X+8207424Y+5067112D01*
X+8217919Y+5074800D01*
X+8228414Y+5079718D01*
X+8238909Y+5082524D01*
X+8249404Y+5083497D01*
X+8250000Y+5083500D01*
X+8186500Y+5020000D02*
X+8186717Y+5014753D01*
X+8188482Y+5004258D01*
X+8192174Y+4993763D01*
X+8198202Y+4983268D01*
X+8207424Y+4972888D01*
X+8217919Y+4965200D01*
X+8228414Y+4960282D01*
X+8238909Y+4957476D01*
X+8249404Y+4956503D01*
X+8250000Y+4956500D01*
X+8313500Y+5020000D02*
X+8313283Y+5014753D01*
X+8311518Y+5004258D01*
X+8307826Y+4993763D01*
X+8301798Y+4983268D01*
X+8292576Y+4972888D01*
X+8282081Y+4965200D01*
X+8271586Y+4960282D01*
X+8261091Y+4957476D01*
X+8250596Y+4956503D01*
X+8250000Y+4956500D01*
X+8250000Y+5083500D02*
X+8250000Y+4956500D01*
X+8186500Y+5020000D02*
X+8313500Y+5020000D01*
X+8313283Y+5025247D01*
X+8311518Y+5035742D01*
X+8307826Y+5046237D01*
X+8301798Y+5056732D01*
X+8292576Y+5067112D01*
X+8282081Y+5074800D01*
X+8271586Y+5079718D01*
X+8261091Y+5082524D01*
X+8250596Y+5083497D01*
X+8250000Y+5083500D01*
X+8186500Y+5020000D02*
X+8186717Y+5025247D01*
X+8188482Y+5035742D01*
X+8192174Y+5046237D01*
X+8198202Y+5056732D01*
X+8207424Y+5067112D01*
X+8217919Y+5074800D01*
X+8228414Y+5079718D01*
X+8238909Y+5082524D01*
X+8249404Y+5083497D01*
X+8250000Y+5083500D01*
X+8186500Y+5020000D02*
X+8186717Y+5014753D01*
X+8188482Y+5004258D01*
X+8192174Y+4993763D01*
X+8198202Y+4983268D01*
X+8207424Y+4972888D01*
X+8217919Y+4965200D01*
X+8228414Y+4960282D01*
X+8238909Y+4957476D01*
X+8249404Y+4956503D01*
X+8250000Y+4956500D01*
X+8313500Y+5020000D02*
X+8313283Y+5014753D01*
X+8311518Y+5004258D01*
X+8307826Y+4993763D01*
X+8301798Y+4983268D01*
X+8292576Y+4972888D01*
X+8282081Y+4965200D01*
X+8271586Y+4960282D01*
X+8261091Y+4957476D01*
X+8250596Y+4956503D01*
X+8250000Y+4956500D01*
X+8205099Y+5064901D02*
X+8294901Y+4975099D01*
X+8205099Y+4975099D02*
X+8294901Y+5064901D01*
X+8313500Y+5274000D02*
X+8313283Y+5279247D01*
X+8311518Y+5289742D01*
X+8307826Y+5300237D01*
X+8301798Y+5310732D01*
X+8292576Y+5321112D01*
X+8282081Y+5328800D01*
X+8271586Y+5333718D01*
X+8261091Y+5336524D01*
X+8250596Y+5337497D01*
X+8250000Y+5337500D01*
X+8186500Y+5274000D02*
X+8186717Y+5279247D01*
X+8188482Y+5289742D01*
X+8192174Y+5300237D01*
X+8198202Y+5310732D01*
X+8207424Y+5321112D01*
X+8217919Y+5328800D01*
X+8228414Y+5333718D01*
X+8238909Y+5336524D01*
X+8249404Y+5337497D01*
X+8250000Y+5337500D01*
X+8186500Y+5274000D02*
X+8186717Y+5268753D01*
X+8188482Y+5258258D01*
X+8192174Y+5247763D01*
X+8198202Y+5237268D01*
X+8207424Y+5226888D01*
X+8217919Y+5219200D01*
X+8228414Y+5214282D01*
X+8238909Y+5211476D01*
X+8249404Y+5210503D01*
X+8250000Y+5210500D01*
X+8313500Y+5274000D02*
X+8313283Y+5268753D01*
X+8311518Y+5258258D01*
X+8307826Y+5247763D01*
X+8301798Y+5237268D01*
X+8292576Y+5226888D01*
X+8282081Y+5219200D01*
X+8271586Y+5214282D01*
X+8261091Y+5211476D01*
X+8250596Y+5210503D01*
X+8250000Y+5210500D01*
X+8250000Y+5337500D02*
X+8250000Y+5210500D01*
X+8186500Y+5274000D02*
X+8313500Y+5274000D01*
X+8313283Y+5279247D01*
X+8311518Y+5289742D01*
X+8307826Y+5300237D01*
X+8301798Y+5310732D01*
X+8292576Y+5321112D01*
X+8282081Y+5328800D01*
X+8271586Y+5333718D01*
X+8261091Y+5336524D01*
X+8250596Y+5337497D01*
X+8250000Y+5337500D01*
X+8186500Y+5274000D02*
X+8186717Y+5279247D01*
X+8188482Y+5289742D01*
X+8192174Y+5300237D01*
X+8198202Y+5310732D01*
X+8207424Y+5321112D01*
X+8217919Y+5328800D01*
X+8228414Y+5333718D01*
X+8238909Y+5336524D01*
X+8249404Y+5337497D01*
X+8250000Y+5337500D01*
X+8186500Y+5274000D02*
X+8186717Y+5268753D01*
X+8188482Y+5258258D01*
X+8192174Y+5247763D01*
X+8198202Y+5237268D01*
X+8207424Y+5226888D01*
X+8217919Y+5219200D01*
X+8228414Y+5214282D01*
X+8238909Y+5211476D01*
X+8249404Y+5210503D01*
X+8250000Y+5210500D01*
X+8313500Y+5274000D02*
X+8313283Y+5268753D01*
X+8311518Y+5258258D01*
X+8307826Y+5247763D01*
X+8301798Y+5237268D01*
X+8292576Y+5226888D01*
X+8282081Y+5219200D01*
X+8271586Y+5214282D01*
X+8261091Y+5211476D01*
X+8250596Y+5210503D01*
X+8250000Y+5210500D01*
X+8205099Y+5318901D02*
X+8294901Y+5229099D01*
X+8205099Y+5229099D02*
X+8294901Y+5318901D01*
X+8313500Y+5528000D02*
X+8313283Y+5533247D01*
X+8311518Y+5543742D01*
X+8307826Y+5554237D01*
X+8301798Y+5564732D01*
X+8292576Y+5575112D01*
X+8282081Y+5582800D01*
X+8271586Y+5587718D01*
X+8261091Y+5590524D01*
X+8250596Y+5591497D01*
X+8250000Y+5591500D01*
X+8186500Y+5528000D02*
X+8186717Y+5533247D01*
X+8188482Y+5543742D01*
X+8192174Y+5554237D01*
X+8198202Y+5564732D01*
X+8207424Y+5575112D01*
X+8217919Y+5582800D01*
X+8228414Y+5587718D01*
X+8238909Y+5590524D01*
X+8249404Y+5591497D01*
X+8250000Y+5591500D01*
X+8186500Y+5528000D02*
X+8186717Y+5522753D01*
X+8188482Y+5512258D01*
X+8192174Y+5501763D01*
X+8198202Y+5491268D01*
X+8207424Y+5480888D01*
X+8217919Y+5473200D01*
X+8228414Y+5468282D01*
X+8238909Y+5465476D01*
X+8249404Y+5464503D01*
X+8250000Y+5464500D01*
X+8313500Y+5528000D02*
X+8313283Y+5522753D01*
X+8311518Y+5512258D01*
X+8307826Y+5501763D01*
X+8301798Y+5491268D01*
X+8292576Y+5480888D01*
X+8282081Y+5473200D01*
X+8271586Y+5468282D01*
X+8261091Y+5465476D01*
X+8250596Y+5464503D01*
X+8250000Y+5464500D01*
X+8250000Y+5591500D02*
X+8250000Y+5464500D01*
X+8186500Y+5528000D02*
X+8313500Y+5528000D01*
X+8313283Y+5533247D01*
X+8311518Y+5543742D01*
X+8307826Y+5554237D01*
X+8301798Y+5564732D01*
X+8292576Y+5575112D01*
X+8282081Y+5582800D01*
X+8271586Y+5587718D01*
X+8261091Y+5590524D01*
X+8250596Y+5591497D01*
X+8250000Y+5591500D01*
X+8186500Y+5528000D02*
X+8186717Y+5533247D01*
X+8188482Y+5543742D01*
X+8192174Y+5554237D01*
X+8198202Y+5564732D01*
X+8207424Y+5575112D01*
X+8217919Y+5582800D01*
X+8228414Y+5587718D01*
X+8238909Y+5590524D01*
X+8249404Y+5591497D01*
X+8250000Y+5591500D01*
X+8186500Y+5528000D02*
X+8186717Y+5522753D01*
X+8188482Y+5512258D01*
X+8192174Y+5501763D01*
X+8198202Y+5491268D01*
X+8207424Y+5480888D01*
X+8217919Y+5473200D01*
X+8228414Y+5468282D01*
X+8238909Y+5465476D01*
X+8249404Y+5464503D01*
X+8250000Y+5464500D01*
X+8313500Y+5528000D02*
X+8313283Y+5522753D01*
X+8311518Y+5512258D01*
X+8307826Y+5501763D01*
X+8301798Y+5491268D01*
X+8292576Y+5480888D01*
X+8282081Y+5473200D01*
X+8271586Y+5468282D01*
X+8261091Y+5465476D01*
X+8250596Y+5464503D01*
X+8250000Y+5464500D01*
X+8205099Y+5572901D02*
X+8294901Y+5483099D01*
X+8205099Y+5483099D02*
X+8294901Y+5572901D01*
X+8313500Y+5782000D02*
X+8313283Y+5787247D01*
X+8311518Y+5797742D01*
X+8307826Y+5808237D01*
X+8301798Y+5818732D01*
X+8292576Y+5829112D01*
X+8282081Y+5836800D01*
X+8271586Y+5841718D01*
X+8261091Y+5844524D01*
X+8250596Y+5845497D01*
X+8250000Y+5845500D01*
X+8186500Y+5782000D02*
X+8186717Y+5787247D01*
X+8188482Y+5797742D01*
X+8192174Y+5808237D01*
X+8198202Y+5818732D01*
X+8207424Y+5829112D01*
X+8217919Y+5836800D01*
X+8228414Y+5841718D01*
X+8238909Y+5844524D01*
X+8249404Y+5845497D01*
X+8250000Y+5845500D01*
X+8186500Y+5782000D02*
X+8186717Y+5776753D01*
X+8188482Y+5766258D01*
X+8192174Y+5755763D01*
X+8198202Y+5745268D01*
X+8207424Y+5734888D01*
X+8217919Y+5727200D01*
X+8228414Y+5722282D01*
X+8238909Y+5719476D01*
X+8249404Y+5718503D01*
X+8250000Y+5718500D01*
X+8313500Y+5782000D02*
X+8313283Y+5776753D01*
X+8311518Y+5766258D01*
X+8307826Y+5755763D01*
X+8301798Y+5745268D01*
X+8292576Y+5734888D01*
X+8282081Y+5727200D01*
X+8271586Y+5722282D01*
X+8261091Y+5719476D01*
X+8250596Y+5718503D01*
X+8250000Y+5718500D01*
X+8250000Y+5845500D02*
X+8250000Y+5718500D01*
X+8186500Y+5782000D02*
X+8313500Y+5782000D01*
X+8313283Y+5787247D01*
X+8311518Y+5797742D01*
X+8307826Y+5808237D01*
X+8301798Y+5818732D01*
X+8292576Y+5829112D01*
X+8282081Y+5836800D01*
X+8271586Y+5841718D01*
X+8261091Y+5844524D01*
X+8250596Y+5845497D01*
X+8250000Y+5845500D01*
X+8186500Y+5782000D02*
X+8186717Y+5787247D01*
X+8188482Y+5797742D01*
X+8192174Y+5808237D01*
X+8198202Y+5818732D01*
X+8207424Y+5829112D01*
X+8217919Y+5836800D01*
X+8228414Y+5841718D01*
X+8238909Y+5844524D01*
X+8249404Y+5845497D01*
X+8250000Y+5845500D01*
X+8186500Y+5782000D02*
X+8186717Y+5776753D01*
X+8188482Y+5766258D01*
X+8192174Y+5755763D01*
X+8198202Y+5745268D01*
X+8207424Y+5734888D01*
X+8217919Y+5727200D01*
X+8228414Y+5722282D01*
X+8238909Y+5719476D01*
X+8249404Y+5718503D01*
X+8250000Y+5718500D01*
X+8313500Y+5782000D02*
X+8313283Y+5776753D01*
X+8311518Y+5766258D01*
X+8307826Y+5755763D01*
X+8301798Y+5745268D01*
X+8292576Y+5734888D01*
X+8282081Y+5727200D01*
X+8271586Y+5722282D01*
X+8261091Y+5719476D01*
X+8250596Y+5718503D01*
X+8250000Y+5718500D01*
X+8205099Y+5826901D02*
X+8294901Y+5737099D01*
X+8205099Y+5737099D02*
X+8294901Y+5826901D01*
X+8313500Y+6036000D02*
X+8313283Y+6041247D01*
X+8311518Y+6051742D01*
X+8307826Y+6062237D01*
X+8301798Y+6072732D01*
X+8292576Y+6083112D01*
X+8282081Y+6090800D01*
X+8271586Y+6095718D01*
X+8261091Y+6098524D01*
X+8250596Y+6099497D01*
X+8250000Y+6099500D01*
X+8186500Y+6036000D02*
X+8186717Y+6041247D01*
X+8188482Y+6051742D01*
X+8192174Y+6062237D01*
X+8198202Y+6072732D01*
X+8207424Y+6083112D01*
X+8217919Y+6090800D01*
X+8228414Y+6095718D01*
X+8238909Y+6098524D01*
X+8249404Y+6099497D01*
X+8250000Y+6099500D01*
X+8186500Y+6036000D02*
X+8186717Y+6030753D01*
X+8188482Y+6020258D01*
X+8192174Y+6009763D01*
X+8198202Y+5999268D01*
X+8207424Y+5988888D01*
X+8217919Y+5981200D01*
X+8228414Y+5976282D01*
X+8238909Y+5973476D01*
X+8249404Y+5972503D01*
X+8250000Y+5972500D01*
X+8313500Y+6036000D02*
X+8313283Y+6030753D01*
X+8311518Y+6020258D01*
X+8307826Y+6009763D01*
X+8301798Y+5999268D01*
X+8292576Y+5988888D01*
X+8282081Y+5981200D01*
X+8271586Y+5976282D01*
X+8261091Y+5973476D01*
X+8250596Y+5972503D01*
X+8250000Y+5972500D01*
X+8250000Y+6099500D02*
X+8250000Y+5972500D01*
X+8186500Y+6036000D02*
X+8313500Y+6036000D01*
X+8313283Y+6041247D01*
X+8311518Y+6051742D01*
X+8307826Y+6062237D01*
X+8301798Y+6072732D01*
X+8292576Y+6083112D01*
X+8282081Y+6090800D01*
X+8271586Y+6095718D01*
X+8261091Y+6098524D01*
X+8250596Y+6099497D01*
X+8250000Y+6099500D01*
X+8186500Y+6036000D02*
X+8186717Y+6041247D01*
X+8188482Y+6051742D01*
X+8192174Y+6062237D01*
X+8198202Y+6072732D01*
X+8207424Y+6083112D01*
X+8217919Y+6090800D01*
X+8228414Y+6095718D01*
X+8238909Y+6098524D01*
X+8249404Y+6099497D01*
X+8250000Y+6099500D01*
X+8186500Y+6036000D02*
X+8186717Y+6030753D01*
X+8188482Y+6020258D01*
X+8192174Y+6009763D01*
X+8198202Y+5999268D01*
X+8207424Y+5988888D01*
X+8217919Y+5981200D01*
X+8228414Y+5976282D01*
X+8238909Y+5973476D01*
X+8249404Y+5972503D01*
X+8250000Y+5972500D01*
X+8313500Y+6036000D02*
X+8313283Y+6030753D01*
X+8311518Y+6020258D01*
X+8307826Y+6009763D01*
X+8301798Y+5999268D01*
X+8292576Y+5988888D01*
X+8282081Y+5981200D01*
X+8271586Y+5976282D01*
X+8261091Y+5973476D01*
X+8250596Y+5972503D01*
X+8250000Y+5972500D01*
X+8205099Y+6080901D02*
X+8294901Y+5991099D01*
X+8205099Y+5991099D02*
X+8294901Y+6080901D01*
X+8313500Y+6290000D02*
X+8313283Y+6295247D01*
X+8311518Y+6305742D01*
X+8307826Y+6316237D01*
X+8301798Y+6326732D01*
X+8292576Y+6337112D01*
X+8282081Y+6344800D01*
X+8271586Y+6349718D01*
X+8261091Y+6352524D01*
X+8250596Y+6353497D01*
X+8250000Y+6353500D01*
X+8186500Y+6290000D02*
X+8186717Y+6295247D01*
X+8188482Y+6305742D01*
X+8192174Y+6316237D01*
X+8198202Y+6326732D01*
X+8207424Y+6337112D01*
X+8217919Y+6344800D01*
X+8228414Y+6349718D01*
X+8238909Y+6352524D01*
X+8249404Y+6353497D01*
X+8250000Y+6353500D01*
X+8186500Y+6290000D02*
X+8186717Y+6284753D01*
X+8188482Y+6274258D01*
X+8192174Y+6263763D01*
X+8198202Y+6253268D01*
X+8207424Y+6242888D01*
X+8217919Y+6235200D01*
X+8228414Y+6230282D01*
X+8238909Y+6227476D01*
X+8249404Y+6226503D01*
X+8250000Y+6226500D01*
X+8313500Y+6290000D02*
X+8313283Y+6284753D01*
X+8311518Y+6274258D01*
X+8307826Y+6263763D01*
X+8301798Y+6253268D01*
X+8292576Y+6242888D01*
X+8282081Y+6235200D01*
X+8271586Y+6230282D01*
X+8261091Y+6227476D01*
X+8250596Y+6226503D01*
X+8250000Y+6226500D01*
X+8250000Y+6353500D02*
X+8250000Y+6226500D01*
X+8186500Y+6290000D02*
X+8313500Y+6290000D01*
X+8313283Y+6295247D01*
X+8311518Y+6305742D01*
X+8307826Y+6316237D01*
X+8301798Y+6326732D01*
X+8292576Y+6337112D01*
X+8282081Y+6344800D01*
X+8271586Y+6349718D01*
X+8261091Y+6352524D01*
X+8250596Y+6353497D01*
X+8250000Y+6353500D01*
X+8186500Y+6290000D02*
X+8186717Y+6295247D01*
X+8188482Y+6305742D01*
X+8192174Y+6316237D01*
X+8198202Y+6326732D01*
X+8207424Y+6337112D01*
X+8217919Y+6344800D01*
X+8228414Y+6349718D01*
X+8238909Y+6352524D01*
X+8249404Y+6353497D01*
X+8250000Y+6353500D01*
X+8186500Y+6290000D02*
X+8186717Y+6284753D01*
X+8188482Y+6274258D01*
X+8192174Y+6263763D01*
X+8198202Y+6253268D01*
X+8207424Y+6242888D01*
X+8217919Y+6235200D01*
X+8228414Y+6230282D01*
X+8238909Y+6227476D01*
X+8249404Y+6226503D01*
X+8250000Y+6226500D01*
X+8313500Y+6290000D02*
X+8313283Y+6284753D01*
X+8311518Y+6274258D01*
X+8307826Y+6263763D01*
X+8301798Y+6253268D01*
X+8292576Y+6242888D01*
X+8282081Y+6235200D01*
X+8271586Y+6230282D01*
X+8261091Y+6227476D01*
X+8250596Y+6226503D01*
X+8250000Y+6226500D01*
X+8205099Y+6334901D02*
X+8294901Y+6245099D01*
X+8205099Y+6245099D02*
X+8294901Y+6334901D01*
X+8313500Y+6544000D02*
X+8313283Y+6549247D01*
X+8311518Y+6559742D01*
X+8307826Y+6570237D01*
X+8301798Y+6580732D01*
X+8292576Y+6591112D01*
X+8282081Y+6598800D01*
X+8271586Y+6603718D01*
X+8261091Y+6606524D01*
X+8250596Y+6607497D01*
X+8250000Y+6607500D01*
X+8186500Y+6544000D02*
X+8186717Y+6549247D01*
X+8188482Y+6559742D01*
X+8192174Y+6570237D01*
X+8198202Y+6580732D01*
X+8207424Y+6591112D01*
X+8217919Y+6598800D01*
X+8228414Y+6603718D01*
X+8238909Y+6606524D01*
X+8249404Y+6607497D01*
X+8250000Y+6607500D01*
X+8186500Y+6544000D02*
X+8186717Y+6538753D01*
X+8188482Y+6528258D01*
X+8192174Y+6517763D01*
X+8198202Y+6507268D01*
X+8207424Y+6496888D01*
X+8217919Y+6489200D01*
X+8228414Y+6484282D01*
X+8238909Y+6481476D01*
X+8249404Y+6480503D01*
X+8250000Y+6480500D01*
X+8313500Y+6544000D02*
X+8313283Y+6538753D01*
X+8311518Y+6528258D01*
X+8307826Y+6517763D01*
X+8301798Y+6507268D01*
X+8292576Y+6496888D01*
X+8282081Y+6489200D01*
X+8271586Y+6484282D01*
X+8261091Y+6481476D01*
X+8250596Y+6480503D01*
X+8250000Y+6480500D01*
X+8250000Y+6607500D02*
X+8250000Y+6480500D01*
X+8186500Y+6544000D02*
X+8313500Y+6544000D01*
X+8313283Y+6549247D01*
X+8311518Y+6559742D01*
X+8307826Y+6570237D01*
X+8301798Y+6580732D01*
X+8292576Y+6591112D01*
X+8282081Y+6598800D01*
X+8271586Y+6603718D01*
X+8261091Y+6606524D01*
X+8250596Y+6607497D01*
X+8250000Y+6607500D01*
X+8186500Y+6544000D02*
X+8186717Y+6549247D01*
X+8188482Y+6559742D01*
X+8192174Y+6570237D01*
X+8198202Y+6580732D01*
X+8207424Y+6591112D01*
X+8217919Y+6598800D01*
X+8228414Y+6603718D01*
X+8238909Y+6606524D01*
X+8249404Y+6607497D01*
X+8250000Y+6607500D01*
X+8186500Y+6544000D02*
X+8186717Y+6538753D01*
X+8188482Y+6528258D01*
X+8192174Y+6517763D01*
X+8198202Y+6507268D01*
X+8207424Y+6496888D01*
X+8217919Y+6489200D01*
X+8228414Y+6484282D01*
X+8238909Y+6481476D01*
X+8249404Y+6480503D01*
X+8250000Y+6480500D01*
X+8313500Y+6544000D02*
X+8313283Y+6538753D01*
X+8311518Y+6528258D01*
X+8307826Y+6517763D01*
X+8301798Y+6507268D01*
X+8292576Y+6496888D01*
X+8282081Y+6489200D01*
X+8271586Y+6484282D01*
X+8261091Y+6481476D01*
X+8250596Y+6480503D01*
X+8250000Y+6480500D01*
X+8205099Y+6588901D02*
X+8294901Y+6499099D01*
X+8205099Y+6499099D02*
X+8294901Y+6588901D01*
X+8313500Y+6798000D02*
X+8313283Y+6803247D01*
X+8311518Y+6813742D01*
X+8307826Y+6824237D01*
X+8301798Y+6834732D01*
X+8292576Y+6845112D01*
X+8282081Y+6852800D01*
X+8271586Y+6857718D01*
X+8261091Y+6860524D01*
X+8250596Y+6861497D01*
X+8250000Y+6861500D01*
X+8186500Y+6798000D02*
X+8186717Y+6803247D01*
X+8188482Y+6813742D01*
X+8192174Y+6824237D01*
X+8198202Y+6834732D01*
X+8207424Y+6845112D01*
X+8217919Y+6852800D01*
X+8228414Y+6857718D01*
X+8238909Y+6860524D01*
X+8249404Y+6861497D01*
X+8250000Y+6861500D01*
X+8186500Y+6798000D02*
X+8186717Y+6792753D01*
X+8188482Y+6782258D01*
X+8192174Y+6771763D01*
X+8198202Y+6761268D01*
X+8207424Y+6750888D01*
X+8217919Y+6743200D01*
X+8228414Y+6738282D01*
X+8238909Y+6735476D01*
X+8249404Y+6734503D01*
X+8250000Y+6734500D01*
X+8313500Y+6798000D02*
X+8313283Y+6792753D01*
X+8311518Y+6782258D01*
X+8307826Y+6771763D01*
X+8301798Y+6761268D01*
X+8292576Y+6750888D01*
X+8282081Y+6743200D01*
X+8271586Y+6738282D01*
X+8261091Y+6735476D01*
X+8250596Y+6734503D01*
X+8250000Y+6734500D01*
X+8250000Y+6861500D02*
X+8250000Y+6734500D01*
X+8186500Y+6798000D02*
X+8313500Y+6798000D01*
X+8313283Y+6803247D01*
X+8311518Y+6813742D01*
X+8307826Y+6824237D01*
X+8301798Y+6834732D01*
X+8292576Y+6845112D01*
X+8282081Y+6852800D01*
X+8271586Y+6857718D01*
X+8261091Y+6860524D01*
X+8250596Y+6861497D01*
X+8250000Y+6861500D01*
X+8186500Y+6798000D02*
X+8186717Y+6803247D01*
X+8188482Y+6813742D01*
X+8192174Y+6824237D01*
X+8198202Y+6834732D01*
X+8207424Y+6845112D01*
X+8217919Y+6852800D01*
X+8228414Y+6857718D01*
X+8238909Y+6860524D01*
X+8249404Y+6861497D01*
X+8250000Y+6861500D01*
X+8186500Y+6798000D02*
X+8186717Y+6792753D01*
X+8188482Y+6782258D01*
X+8192174Y+6771763D01*
X+8198202Y+6761268D01*
X+8207424Y+6750888D01*
X+8217919Y+6743200D01*
X+8228414Y+6738282D01*
X+8238909Y+6735476D01*
X+8249404Y+6734503D01*
X+8250000Y+6734500D01*
X+8313500Y+6798000D02*
X+8313283Y+6792753D01*
X+8311518Y+6782258D01*
X+8307826Y+6771763D01*
X+8301798Y+6761268D01*
X+8292576Y+6750888D01*
X+8282081Y+6743200D01*
X+8271586Y+6738282D01*
X+8261091Y+6735476D01*
X+8250596Y+6734503D01*
X+8250000Y+6734500D01*
X+8205099Y+6842901D02*
X+8294901Y+6753099D01*
X+8205099Y+6753099D02*
X+8294901Y+6842901D01*
X+8313500Y+7052000D02*
X+8313283Y+7057247D01*
X+8311518Y+7067742D01*
X+8307826Y+7078237D01*
X+8301798Y+7088732D01*
X+8292576Y+7099112D01*
X+8282081Y+7106800D01*
X+8271586Y+7111718D01*
X+8261091Y+7114524D01*
X+8250596Y+7115497D01*
X+8250000Y+7115500D01*
X+8186500Y+7052000D02*
X+8186717Y+7057247D01*
X+8188482Y+7067742D01*
X+8192174Y+7078237D01*
X+8198202Y+7088732D01*
X+8207424Y+7099112D01*
X+8217919Y+7106800D01*
X+8228414Y+7111718D01*
X+8238909Y+7114524D01*
X+8249404Y+7115497D01*
X+8250000Y+7115500D01*
X+8186500Y+7052000D02*
X+8186717Y+7046753D01*
X+8188482Y+7036258D01*
X+8192174Y+7025763D01*
X+8198202Y+7015268D01*
X+8207424Y+7004888D01*
X+8217919Y+6997200D01*
X+8228414Y+6992282D01*
X+8238909Y+6989476D01*
X+8249404Y+6988503D01*
X+8250000Y+6988500D01*
X+8313500Y+7052000D02*
X+8313283Y+7046753D01*
X+8311518Y+7036258D01*
X+8307826Y+7025763D01*
X+8301798Y+7015268D01*
X+8292576Y+7004888D01*
X+8282081Y+6997200D01*
X+8271586Y+6992282D01*
X+8261091Y+6989476D01*
X+8250596Y+6988503D01*
X+8250000Y+6988500D01*
X+8250000Y+7115500D02*
X+8250000Y+6988500D01*
X+8186500Y+7052000D02*
X+8313500Y+7052000D01*
X+8313283Y+7057247D01*
X+8311518Y+7067742D01*
X+8307826Y+7078237D01*
X+8301798Y+7088732D01*
X+8292576Y+7099112D01*
X+8282081Y+7106800D01*
X+8271586Y+7111718D01*
X+8261091Y+7114524D01*
X+8250596Y+7115497D01*
X+8250000Y+7115500D01*
X+8186500Y+7052000D02*
X+8186717Y+7057247D01*
X+8188482Y+7067742D01*
X+8192174Y+7078237D01*
X+8198202Y+7088732D01*
X+8207424Y+7099112D01*
X+8217919Y+7106800D01*
X+8228414Y+7111718D01*
X+8238909Y+7114524D01*
X+8249404Y+7115497D01*
X+8250000Y+7115500D01*
X+8186500Y+7052000D02*
X+8186717Y+7046753D01*
X+8188482Y+7036258D01*
X+8192174Y+7025763D01*
X+8198202Y+7015268D01*
X+8207424Y+7004888D01*
X+8217919Y+6997200D01*
X+8228414Y+6992282D01*
X+8238909Y+6989476D01*
X+8249404Y+6988503D01*
X+8250000Y+6988500D01*
X+8313500Y+7052000D02*
X+8313283Y+7046753D01*
X+8311518Y+7036258D01*
X+8307826Y+7025763D01*
X+8301798Y+7015268D01*
X+8292576Y+7004888D01*
X+8282081Y+6997200D01*
X+8271586Y+6992282D01*
X+8261091Y+6989476D01*
X+8250596Y+6988503D01*
X+8250000Y+6988500D01*
X+8205099Y+7096901D02*
X+8294901Y+7007099D01*
X+8205099Y+7007099D02*
X+8294901Y+7096901D01*
X+8313500Y+7306000D02*
X+8313283Y+7311247D01*
X+8311518Y+7321742D01*
X+8307826Y+7332237D01*
X+8301798Y+7342732D01*
X+8292576Y+7353112D01*
X+8282081Y+7360800D01*
X+8271586Y+7365718D01*
X+8261091Y+7368524D01*
X+8250596Y+7369497D01*
X+8250000Y+7369500D01*
X+8186500Y+7306000D02*
X+8186717Y+7311247D01*
X+8188482Y+7321742D01*
X+8192174Y+7332237D01*
X+8198202Y+7342732D01*
X+8207424Y+7353112D01*
X+8217919Y+7360800D01*
X+8228414Y+7365718D01*
X+8238909Y+7368524D01*
X+8249404Y+7369497D01*
X+8250000Y+7369500D01*
X+8186500Y+7306000D02*
X+8186717Y+7300753D01*
X+8188482Y+7290258D01*
X+8192174Y+7279763D01*
X+8198202Y+7269268D01*
X+8207424Y+7258888D01*
X+8217919Y+7251200D01*
X+8228414Y+7246282D01*
X+8238909Y+7243476D01*
X+8249404Y+7242503D01*
X+8250000Y+7242500D01*
X+8313500Y+7306000D02*
X+8313283Y+7300753D01*
X+8311518Y+7290258D01*
X+8307826Y+7279763D01*
X+8301798Y+7269268D01*
X+8292576Y+7258888D01*
X+8282081Y+7251200D01*
X+8271586Y+7246282D01*
X+8261091Y+7243476D01*
X+8250596Y+7242503D01*
X+8250000Y+7242500D01*
X+8250000Y+7369500D02*
X+8250000Y+7242500D01*
X+8186500Y+7306000D02*
X+8313500Y+7306000D01*
X+8313283Y+7311247D01*
X+8311518Y+7321742D01*
X+8307826Y+7332237D01*
X+8301798Y+7342732D01*
X+8292576Y+7353112D01*
X+8282081Y+7360800D01*
X+8271586Y+7365718D01*
X+8261091Y+7368524D01*
X+8250596Y+7369497D01*
X+8250000Y+7369500D01*
X+8186500Y+7306000D02*
X+8186717Y+7311247D01*
X+8188482Y+7321742D01*
X+8192174Y+7332237D01*
X+8198202Y+7342732D01*
X+8207424Y+7353112D01*
X+8217919Y+7360800D01*
X+8228414Y+7365718D01*
X+8238909Y+7368524D01*
X+8249404Y+7369497D01*
X+8250000Y+7369500D01*
X+8186500Y+7306000D02*
X+8186717Y+7300753D01*
X+8188482Y+7290258D01*
X+8192174Y+7279763D01*
X+8198202Y+7269268D01*
X+8207424Y+7258888D01*
X+8217919Y+7251200D01*
X+8228414Y+7246282D01*
X+8238909Y+7243476D01*
X+8249404Y+7242503D01*
X+8250000Y+7242500D01*
X+8313500Y+7306000D02*
X+8313283Y+7300753D01*
X+8311518Y+7290258D01*
X+8307826Y+7279763D01*
X+8301798Y+7269268D01*
X+8292576Y+7258888D01*
X+8282081Y+7251200D01*
X+8271586Y+7246282D01*
X+8261091Y+7243476D01*
X+8250596Y+7242503D01*
X+8250000Y+7242500D01*
X+8205099Y+7350901D02*
X+8294901Y+7261099D01*
X+8205099Y+7261099D02*
X+8294901Y+7350901D01*
X+6726000Y+3406197D02*
X+6815803Y+3496000D01*
X+6726000Y+3585802D01*
X+6636197Y+3496000D01*
X+6726000Y+3406197D01*
X+6636197Y+3496000D02*
X+6815803Y+3496000D01*
X+6726000Y+3406197D02*
X+6726000Y+3585803D01*
X+8250000Y+3406197D02*
X+8339803Y+3496000D01*
X+8250000Y+3585802D01*
X+8160197Y+3496000D01*
X+8250000Y+3406197D01*
X+8160197Y+3496000D02*
X+8339803Y+3496000D01*
X+8250000Y+3406197D02*
X+8250000Y+3585803D01*
X+6726000Y+7470197D02*
X+6815803Y+7560000D01*
X+6726000Y+7649802D01*
X+6636197Y+7560000D01*
X+6726000Y+7470197D01*
X+6636197Y+7560000D02*
X+6815803Y+7560000D01*
X+6726000Y+7470197D02*
X+6726000Y+7649803D01*
X+8250000Y+7470197D02*
X+8339803Y+7560000D01*
X+8250000Y+7649802D01*
X+8160197Y+7560000D01*
X+8250000Y+7470197D01*
X+8160197Y+7560000D02*
X+8339803Y+7560000D01*
X+8250000Y+7470197D02*
X+8250000Y+7649803D01*
X+5813500Y+9500000D02*
X+5813283Y+9505247D01*
X+5811518Y+9515742D01*
X+5807826Y+9526237D01*
X+5801798Y+9536732D01*
X+5792576Y+9547112D01*
X+5782081Y+9554800D01*
X+5771586Y+9559718D01*
X+5761091Y+9562524D01*
X+5750596Y+9563497D01*
X+5750000Y+9563500D01*
X+5686500Y+9500000D02*
X+5686717Y+9505247D01*
X+5688482Y+9515742D01*
X+5692174Y+9526237D01*
X+5698202Y+9536732D01*
X+5707424Y+9547112D01*
X+5717919Y+9554800D01*
X+5728414Y+9559718D01*
X+5738909Y+9562524D01*
X+5749404Y+9563497D01*
X+5750000Y+9563500D01*
X+5686500Y+9500000D02*
X+5686717Y+9494753D01*
X+5688482Y+9484258D01*
X+5692174Y+9473763D01*
X+5698202Y+9463268D01*
X+5707424Y+9452888D01*
X+5717919Y+9445200D01*
X+5728414Y+9440282D01*
X+5738909Y+9437476D01*
X+5749404Y+9436503D01*
X+5750000Y+9436500D01*
X+5813500Y+9500000D02*
X+5813283Y+9494753D01*
X+5811518Y+9484258D01*
X+5807826Y+9473763D01*
X+5801798Y+9463268D01*
X+5792576Y+9452888D01*
X+5782081Y+9445200D01*
X+5771586Y+9440282D01*
X+5761091Y+9437476D01*
X+5750596Y+9436503D01*
X+5750000Y+9436500D01*
X+5705099Y+9544901D02*
X+5794901Y+9455099D01*
X+5705099Y+9455099D02*
X+5794901Y+9544901D01*
X+5613500Y+9500000D02*
X+5613283Y+9505247D01*
X+5611518Y+9515742D01*
X+5607826Y+9526237D01*
X+5601798Y+9536732D01*
X+5592576Y+9547112D01*
X+5582081Y+9554800D01*
X+5571586Y+9559718D01*
X+5561091Y+9562524D01*
X+5550596Y+9563497D01*
X+5550000Y+9563500D01*
X+5486500Y+9500000D02*
X+5486717Y+9505247D01*
X+5488482Y+9515742D01*
X+5492174Y+9526237D01*
X+5498202Y+9536732D01*
X+5507424Y+9547112D01*
X+5517919Y+9554800D01*
X+5528414Y+9559718D01*
X+5538909Y+9562524D01*
X+5549404Y+9563497D01*
X+5550000Y+9563500D01*
X+5486500Y+9500000D02*
X+5486717Y+9494753D01*
X+5488482Y+9484258D01*
X+5492174Y+9473763D01*
X+5498202Y+9463268D01*
X+5507424Y+9452888D01*
X+5517919Y+9445200D01*
X+5528414Y+9440282D01*
X+5538909Y+9437476D01*
X+5549404Y+9436503D01*
X+5550000Y+9436500D01*
X+5613500Y+9500000D02*
X+5613283Y+9494753D01*
X+5611518Y+9484258D01*
X+5607826Y+9473763D01*
X+5601798Y+9463268D01*
X+5592576Y+9452888D01*
X+5582081Y+9445200D01*
X+5571586Y+9440282D01*
X+5561091Y+9437476D01*
X+5550596Y+9436503D01*
X+5550000Y+9436500D01*
X+5505099Y+9544901D02*
X+5594901Y+9455099D01*
X+5505099Y+9455099D02*
X+5594901Y+9544901D01*
X+5413500Y+9500000D02*
X+5413283Y+9505247D01*
X+5411518Y+9515742D01*
X+5407826Y+9526237D01*
X+5401798Y+9536732D01*
X+5392576Y+9547112D01*
X+5382081Y+9554800D01*
X+5371586Y+9559718D01*
X+5361091Y+9562524D01*
X+5350596Y+9563497D01*
X+5350000Y+9563500D01*
X+5286500Y+9500000D02*
X+5286717Y+9505247D01*
X+5288482Y+9515742D01*
X+5292174Y+9526237D01*
X+5298202Y+9536732D01*
X+5307424Y+9547112D01*
X+5317919Y+9554800D01*
X+5328414Y+9559718D01*
X+5338909Y+9562524D01*
X+5349404Y+9563497D01*
X+5350000Y+9563500D01*
X+5286500Y+9500000D02*
X+5286717Y+9494753D01*
X+5288482Y+9484258D01*
X+5292174Y+9473763D01*
X+5298202Y+9463268D01*
X+5307424Y+9452888D01*
X+5317919Y+9445200D01*
X+5328414Y+9440282D01*
X+5338909Y+9437476D01*
X+5349404Y+9436503D01*
X+5350000Y+9436500D01*
X+5413500Y+9500000D02*
X+5413283Y+9494753D01*
X+5411518Y+9484258D01*
X+5407826Y+9473763D01*
X+5401798Y+9463268D01*
X+5392576Y+9452888D01*
X+5382081Y+9445200D01*
X+5371586Y+9440282D01*
X+5361091Y+9437476D01*
X+5350596Y+9436503D01*
X+5350000Y+9436500D01*
X+5305099Y+9544901D02*
X+5394901Y+9455099D01*
X+5305099Y+9455099D02*
X+5394901Y+9544901D01*
X+6513500Y+9500000D02*
X+6513283Y+9505247D01*
X+6511518Y+9515742D01*
X+6507826Y+9526237D01*
X+6501798Y+9536732D01*
X+6492576Y+9547112D01*
X+6482081Y+9554800D01*
X+6471586Y+9559718D01*
X+6461091Y+9562524D01*
X+6450596Y+9563497D01*
X+6450000Y+9563500D01*
X+6386500Y+9500000D02*
X+6386717Y+9505247D01*
X+6388482Y+9515742D01*
X+6392174Y+9526237D01*
X+6398202Y+9536732D01*
X+6407424Y+9547112D01*
X+6417919Y+9554800D01*
X+6428414Y+9559718D01*
X+6438909Y+9562524D01*
X+6449404Y+9563497D01*
X+6450000Y+9563500D01*
X+6386500Y+9500000D02*
X+6386717Y+9494753D01*
X+6388482Y+9484258D01*
X+6392174Y+9473763D01*
X+6398202Y+9463268D01*
X+6407424Y+9452888D01*
X+6417919Y+9445200D01*
X+6428414Y+9440282D01*
X+6438909Y+9437476D01*
X+6449404Y+9436503D01*
X+6450000Y+9436500D01*
X+6513500Y+9500000D02*
X+6513283Y+9494753D01*
X+6511518Y+9484258D01*
X+6507826Y+9473763D01*
X+6501798Y+9463268D01*
X+6492576Y+9452888D01*
X+6482081Y+9445200D01*
X+6471586Y+9440282D01*
X+6461091Y+9437476D01*
X+6450596Y+9436503D01*
X+6450000Y+9436500D01*
X+6405099Y+9544901D02*
X+6494901Y+9455099D01*
X+6405099Y+9455099D02*
X+6494901Y+9544901D01*
X+6313500Y+9500000D02*
X+6313283Y+9505247D01*
X+6311518Y+9515742D01*
X+6307826Y+9526237D01*
X+6301798Y+9536732D01*
X+6292576Y+9547112D01*
X+6282081Y+9554800D01*
X+6271586Y+9559718D01*
X+6261091Y+9562524D01*
X+6250596Y+9563497D01*
X+6250000Y+9563500D01*
X+6186500Y+9500000D02*
X+6186717Y+9505247D01*
X+6188482Y+9515742D01*
X+6192174Y+9526237D01*
X+6198202Y+9536732D01*
X+6207424Y+9547112D01*
X+6217919Y+9554800D01*
X+6228414Y+9559718D01*
X+6238909Y+9562524D01*
X+6249404Y+9563497D01*
X+6250000Y+9563500D01*
X+6186500Y+9500000D02*
X+6186717Y+9494753D01*
X+6188482Y+9484258D01*
X+6192174Y+9473763D01*
X+6198202Y+9463268D01*
X+6207424Y+9452888D01*
X+6217919Y+9445200D01*
X+6228414Y+9440282D01*
X+6238909Y+9437476D01*
X+6249404Y+9436503D01*
X+6250000Y+9436500D01*
X+6313500Y+9500000D02*
X+6313283Y+9494753D01*
X+6311518Y+9484258D01*
X+6307826Y+9473763D01*
X+6301798Y+9463268D01*
X+6292576Y+9452888D01*
X+6282081Y+9445200D01*
X+6271586Y+9440282D01*
X+6261091Y+9437476D01*
X+6250596Y+9436503D01*
X+6250000Y+9436500D01*
X+6205099Y+9544901D02*
X+6294901Y+9455099D01*
X+6205099Y+9455099D02*
X+6294901Y+9544901D01*
X+6113500Y+9500000D02*
X+6113283Y+9505247D01*
X+6111518Y+9515742D01*
X+6107826Y+9526237D01*
X+6101798Y+9536732D01*
X+6092576Y+9547112D01*
X+6082081Y+9554800D01*
X+6071586Y+9559718D01*
X+6061091Y+9562524D01*
X+6050596Y+9563497D01*
X+6050000Y+9563500D01*
X+5986500Y+9500000D02*
X+5986717Y+9505247D01*
X+5988482Y+9515742D01*
X+5992174Y+9526237D01*
X+5998202Y+9536732D01*
X+6007424Y+9547112D01*
X+6017919Y+9554800D01*
X+6028414Y+9559718D01*
X+6038909Y+9562524D01*
X+6049404Y+9563497D01*
X+6050000Y+9563500D01*
X+5986500Y+9500000D02*
X+5986717Y+9494753D01*
X+5988482Y+9484258D01*
X+5992174Y+9473763D01*
X+5998202Y+9463268D01*
X+6007424Y+9452888D01*
X+6017919Y+9445200D01*
X+6028414Y+9440282D01*
X+6038909Y+9437476D01*
X+6049404Y+9436503D01*
X+6050000Y+9436500D01*
X+6113500Y+9500000D02*
X+6113283Y+9494753D01*
X+6111518Y+9484258D01*
X+6107826Y+9473763D01*
X+6101798Y+9463268D01*
X+6092576Y+9452888D01*
X+6082081Y+9445200D01*
X+6071586Y+9440282D01*
X+6061091Y+9437476D01*
X+6050596Y+9436503D01*
X+6050000Y+9436500D01*
X+6005099Y+9544901D02*
X+6094901Y+9455099D01*
X+6005099Y+9455099D02*
X+6094901Y+9544901D01*
X+7263500Y+9500000D02*
X+7263283Y+9505247D01*
X+7261518Y+9515742D01*
X+7257826Y+9526237D01*
X+7251798Y+9536732D01*
X+7242576Y+9547112D01*
X+7232081Y+9554800D01*
X+7221586Y+9559718D01*
X+7211091Y+9562524D01*
X+7200596Y+9563497D01*
X+7200000Y+9563500D01*
X+7136500Y+9500000D02*
X+7136717Y+9505247D01*
X+7138482Y+9515742D01*
X+7142174Y+9526237D01*
X+7148202Y+9536732D01*
X+7157424Y+9547112D01*
X+7167919Y+9554800D01*
X+7178414Y+9559718D01*
X+7188909Y+9562524D01*
X+7199404Y+9563497D01*
X+7200000Y+9563500D01*
X+7136500Y+9500000D02*
X+7136717Y+9494753D01*
X+7138482Y+9484258D01*
X+7142174Y+9473763D01*
X+7148202Y+9463268D01*
X+7157424Y+9452888D01*
X+7167919Y+9445200D01*
X+7178414Y+9440282D01*
X+7188909Y+9437476D01*
X+7199404Y+9436503D01*
X+7200000Y+9436500D01*
X+7263500Y+9500000D02*
X+7263283Y+9494753D01*
X+7261518Y+9484258D01*
X+7257826Y+9473763D01*
X+7251798Y+9463268D01*
X+7242576Y+9452888D01*
X+7232081Y+9445200D01*
X+7221586Y+9440282D01*
X+7211091Y+9437476D01*
X+7200596Y+9436503D01*
X+7200000Y+9436500D01*
X+7155099Y+9544901D02*
X+7244901Y+9455099D01*
X+7155099Y+9455099D02*
X+7244901Y+9544901D01*
X+7063500Y+9500000D02*
X+7063283Y+9505247D01*
X+7061518Y+9515742D01*
X+7057826Y+9526237D01*
X+7051798Y+9536732D01*
X+7042576Y+9547112D01*
X+7032081Y+9554800D01*
X+7021586Y+9559718D01*
X+7011091Y+9562524D01*
X+7000596Y+9563497D01*
X+7000000Y+9563500D01*
X+6936500Y+9500000D02*
X+6936717Y+9505247D01*
X+6938482Y+9515742D01*
X+6942174Y+9526237D01*
X+6948202Y+9536732D01*
X+6957424Y+9547112D01*
X+6967919Y+9554800D01*
X+6978414Y+9559718D01*
X+6988909Y+9562524D01*
X+6999404Y+9563497D01*
X+7000000Y+9563500D01*
X+6936500Y+9500000D02*
X+6936717Y+9494753D01*
X+6938482Y+9484258D01*
X+6942174Y+9473763D01*
X+6948202Y+9463268D01*
X+6957424Y+9452888D01*
X+6967919Y+9445200D01*
X+6978414Y+9440282D01*
X+6988909Y+9437476D01*
X+6999404Y+9436503D01*
X+7000000Y+9436500D01*
X+7063500Y+9500000D02*
X+7063283Y+9494753D01*
X+7061518Y+9484258D01*
X+7057826Y+9473763D01*
X+7051798Y+9463268D01*
X+7042576Y+9452888D01*
X+7032081Y+9445200D01*
X+7021586Y+9440282D01*
X+7011091Y+9437476D01*
X+7000596Y+9436503D01*
X+7000000Y+9436500D01*
X+6955099Y+9544901D02*
X+7044901Y+9455099D01*
X+6955099Y+9455099D02*
X+7044901Y+9544901D01*
X+6863500Y+9500000D02*
X+6863283Y+9505247D01*
X+6861518Y+9515742D01*
X+6857826Y+9526237D01*
X+6851798Y+9536732D01*
X+6842576Y+9547112D01*
X+6832081Y+9554800D01*
X+6821586Y+9559718D01*
X+6811091Y+9562524D01*
X+6800596Y+9563497D01*
X+6800000Y+9563500D01*
X+6736500Y+9500000D02*
X+6736717Y+9505247D01*
X+6738482Y+9515742D01*
X+6742174Y+9526237D01*
X+6748202Y+9536732D01*
X+6757424Y+9547112D01*
X+6767919Y+9554800D01*
X+6778414Y+9559718D01*
X+6788909Y+9562524D01*
X+6799404Y+9563497D01*
X+6800000Y+9563500D01*
X+6736500Y+9500000D02*
X+6736717Y+9494753D01*
X+6738482Y+9484258D01*
X+6742174Y+9473763D01*
X+6748202Y+9463268D01*
X+6757424Y+9452888D01*
X+6767919Y+9445200D01*
X+6778414Y+9440282D01*
X+6788909Y+9437476D01*
X+6799404Y+9436503D01*
X+6800000Y+9436500D01*
X+6863500Y+9500000D02*
X+6863283Y+9494753D01*
X+6861518Y+9484258D01*
X+6857826Y+9473763D01*
X+6851798Y+9463268D01*
X+6842576Y+9452888D01*
X+6832081Y+9445200D01*
X+6821586Y+9440282D01*
X+6811091Y+9437476D01*
X+6800596Y+9436503D01*
X+6800000Y+9436500D01*
X+6755099Y+9544901D02*
X+6844901Y+9455099D01*
X+6755099Y+9455099D02*
X+6844901Y+9544901D01*
X+7963500Y+9500000D02*
X+7963283Y+9505247D01*
X+7961518Y+9515742D01*
X+7957826Y+9526237D01*
X+7951798Y+9536732D01*
X+7942576Y+9547112D01*
X+7932081Y+9554800D01*
X+7921586Y+9559718D01*
X+7911091Y+9562524D01*
X+7900596Y+9563497D01*
X+7900000Y+9563500D01*
X+7836500Y+9500000D02*
X+7836717Y+9505247D01*
X+7838482Y+9515742D01*
X+7842174Y+9526237D01*
X+7848202Y+9536732D01*
X+7857424Y+9547112D01*
X+7867919Y+9554800D01*
X+7878414Y+9559718D01*
X+7888909Y+9562524D01*
X+7899404Y+9563497D01*
X+7900000Y+9563500D01*
X+7836500Y+9500000D02*
X+7836717Y+9494753D01*
X+7838482Y+9484258D01*
X+7842174Y+9473763D01*
X+7848202Y+9463268D01*
X+7857424Y+9452888D01*
X+7867919Y+9445200D01*
X+7878414Y+9440282D01*
X+7888909Y+9437476D01*
X+7899404Y+9436503D01*
X+7900000Y+9436500D01*
X+7963500Y+9500000D02*
X+7963283Y+9494753D01*
X+7961518Y+9484258D01*
X+7957826Y+9473763D01*
X+7951798Y+9463268D01*
X+7942576Y+9452888D01*
X+7932081Y+9445200D01*
X+7921586Y+9440282D01*
X+7911091Y+9437476D01*
X+7900596Y+9436503D01*
X+7900000Y+9436500D01*
X+7855099Y+9544901D02*
X+7944901Y+9455099D01*
X+7855099Y+9455099D02*
X+7944901Y+9544901D01*
X+7763500Y+9500000D02*
X+7763283Y+9505247D01*
X+7761518Y+9515742D01*
X+7757826Y+9526237D01*
X+7751798Y+9536732D01*
X+7742576Y+9547112D01*
X+7732081Y+9554800D01*
X+7721586Y+9559718D01*
X+7711091Y+9562524D01*
X+7700596Y+9563497D01*
X+7700000Y+9563500D01*
X+7636500Y+9500000D02*
X+7636717Y+9505247D01*
X+7638482Y+9515742D01*
X+7642174Y+9526237D01*
X+7648202Y+9536732D01*
X+7657424Y+9547112D01*
X+7667919Y+9554800D01*
X+7678414Y+9559718D01*
X+7688909Y+9562524D01*
X+7699404Y+9563497D01*
X+7700000Y+9563500D01*
X+7636500Y+9500000D02*
X+7636717Y+9494753D01*
X+7638482Y+9484258D01*
X+7642174Y+9473763D01*
X+7648202Y+9463268D01*
X+7657424Y+9452888D01*
X+7667919Y+9445200D01*
X+7678414Y+9440282D01*
X+7688909Y+9437476D01*
X+7699404Y+9436503D01*
X+7700000Y+9436500D01*
X+7763500Y+9500000D02*
X+7763283Y+9494753D01*
X+7761518Y+9484258D01*
X+7757826Y+9473763D01*
X+7751798Y+9463268D01*
X+7742576Y+9452888D01*
X+7732081Y+9445200D01*
X+7721586Y+9440282D01*
X+7711091Y+9437476D01*
X+7700596Y+9436503D01*
X+7700000Y+9436500D01*
X+7655099Y+9544901D02*
X+7744901Y+9455099D01*
X+7655099Y+9455099D02*
X+7744901Y+9544901D01*
X+7563500Y+9500000D02*
X+7563283Y+9505247D01*
X+7561518Y+9515742D01*
X+7557826Y+9526237D01*
X+7551798Y+9536732D01*
X+7542576Y+9547112D01*
X+7532081Y+9554800D01*
X+7521586Y+9559718D01*
X+7511091Y+9562524D01*
X+7500596Y+9563497D01*
X+7500000Y+9563500D01*
X+7436500Y+9500000D02*
X+7436717Y+9505247D01*
X+7438482Y+9515742D01*
X+7442174Y+9526237D01*
X+7448202Y+9536732D01*
X+7457424Y+9547112D01*
X+7467919Y+9554800D01*
X+7478414Y+9559718D01*
X+7488909Y+9562524D01*
X+7499404Y+9563497D01*
X+7500000Y+9563500D01*
X+7436500Y+9500000D02*
X+7436717Y+9494753D01*
X+7438482Y+9484258D01*
X+7442174Y+9473763D01*
X+7448202Y+9463268D01*
X+7457424Y+9452888D01*
X+7467919Y+9445200D01*
X+7478414Y+9440282D01*
X+7488909Y+9437476D01*
X+7499404Y+9436503D01*
X+7500000Y+9436500D01*
X+7563500Y+9500000D02*
X+7563283Y+9494753D01*
X+7561518Y+9484258D01*
X+7557826Y+9473763D01*
X+7551798Y+9463268D01*
X+7542576Y+9452888D01*
X+7532081Y+9445200D01*
X+7521586Y+9440282D01*
X+7511091Y+9437476D01*
X+7500596Y+9436503D01*
X+7500000Y+9436500D01*
X+7455099Y+9544901D02*
X+7544901Y+9455099D01*
X+7455099Y+9455099D02*
X+7544901Y+9544901D01*
X+8713500Y+9500000D02*
X+8713283Y+9505247D01*
X+8711518Y+9515742D01*
X+8707826Y+9526237D01*
X+8701798Y+9536732D01*
X+8692576Y+9547112D01*
X+8682081Y+9554800D01*
X+8671586Y+9559718D01*
X+8661091Y+9562524D01*
X+8650596Y+9563497D01*
X+8650000Y+9563500D01*
X+8586500Y+9500000D02*
X+8586717Y+9505247D01*
X+8588482Y+9515742D01*
X+8592174Y+9526237D01*
X+8598202Y+9536732D01*
X+8607424Y+9547112D01*
X+8617919Y+9554800D01*
X+8628414Y+9559718D01*
X+8638909Y+9562524D01*
X+8649404Y+9563497D01*
X+8650000Y+9563500D01*
X+8586500Y+9500000D02*
X+8586717Y+9494753D01*
X+8588482Y+9484258D01*
X+8592174Y+9473763D01*
X+8598202Y+9463268D01*
X+8607424Y+9452888D01*
X+8617919Y+9445200D01*
X+8628414Y+9440282D01*
X+8638909Y+9437476D01*
X+8649404Y+9436503D01*
X+8650000Y+9436500D01*
X+8713500Y+9500000D02*
X+8713283Y+9494753D01*
X+8711518Y+9484258D01*
X+8707826Y+9473763D01*
X+8701798Y+9463268D01*
X+8692576Y+9452888D01*
X+8682081Y+9445200D01*
X+8671586Y+9440282D01*
X+8661091Y+9437476D01*
X+8650596Y+9436503D01*
X+8650000Y+9436500D01*
X+8605099Y+9544901D02*
X+8694901Y+9455099D01*
X+8605099Y+9455099D02*
X+8694901Y+9544901D01*
X+8513500Y+9500000D02*
X+8513283Y+9505247D01*
X+8511518Y+9515742D01*
X+8507826Y+9526237D01*
X+8501798Y+9536732D01*
X+8492576Y+9547112D01*
X+8482081Y+9554800D01*
X+8471586Y+9559718D01*
X+8461091Y+9562524D01*
X+8450596Y+9563497D01*
X+8450000Y+9563500D01*
X+8386500Y+9500000D02*
X+8386717Y+9505247D01*
X+8388482Y+9515742D01*
X+8392174Y+9526237D01*
X+8398202Y+9536732D01*
X+8407424Y+9547112D01*
X+8417919Y+9554800D01*
X+8428414Y+9559718D01*
X+8438909Y+9562524D01*
X+8449404Y+9563497D01*
X+8450000Y+9563500D01*
X+8386500Y+9500000D02*
X+8386717Y+9494753D01*
X+8388482Y+9484258D01*
X+8392174Y+9473763D01*
X+8398202Y+9463268D01*
X+8407424Y+9452888D01*
X+8417919Y+9445200D01*
X+8428414Y+9440282D01*
X+8438909Y+9437476D01*
X+8449404Y+9436503D01*
X+8450000Y+9436500D01*
X+8513500Y+9500000D02*
X+8513283Y+9494753D01*
X+8511518Y+9484258D01*
X+8507826Y+9473763D01*
X+8501798Y+9463268D01*
X+8492576Y+9452888D01*
X+8482081Y+9445200D01*
X+8471586Y+9440282D01*
X+8461091Y+9437476D01*
X+8450596Y+9436503D01*
X+8450000Y+9436500D01*
X+8405099Y+9544901D02*
X+8494901Y+9455099D01*
X+8405099Y+9455099D02*
X+8494901Y+9544901D01*
X+8313500Y+9500000D02*
X+8313283Y+9505247D01*
X+8311518Y+9515742D01*
X+8307826Y+9526237D01*
X+8301798Y+9536732D01*
X+8292576Y+9547112D01*
X+8282081Y+9554800D01*
X+8271586Y+9559718D01*
X+8261091Y+9562524D01*
X+8250596Y+9563497D01*
X+8250000Y+9563500D01*
X+8186500Y+9500000D02*
X+8186717Y+9505247D01*
X+8188482Y+9515742D01*
X+8192174Y+9526237D01*
X+8198202Y+9536732D01*
X+8207424Y+9547112D01*
X+8217919Y+9554800D01*
X+8228414Y+9559718D01*
X+8238909Y+9562524D01*
X+8249404Y+9563497D01*
X+8250000Y+9563500D01*
X+8186500Y+9500000D02*
X+8186717Y+9494753D01*
X+8188482Y+9484258D01*
X+8192174Y+9473763D01*
X+8198202Y+9463268D01*
X+8207424Y+9452888D01*
X+8217919Y+9445200D01*
X+8228414Y+9440282D01*
X+8238909Y+9437476D01*
X+8249404Y+9436503D01*
X+8250000Y+9436500D01*
X+8313500Y+9500000D02*
X+8313283Y+9494753D01*
X+8311518Y+9484258D01*
X+8307826Y+9473763D01*
X+8301798Y+9463268D01*
X+8292576Y+9452888D01*
X+8282081Y+9445200D01*
X+8271586Y+9440282D01*
X+8261091Y+9437476D01*
X+8250596Y+9436503D01*
X+8250000Y+9436500D01*
X+8205099Y+9544901D02*
X+8294901Y+9455099D01*
X+8205099Y+9455099D02*
X+8294901Y+9544901D01*
X+9463500Y+9500000D02*
X+9463283Y+9505247D01*
X+9461518Y+9515742D01*
X+9457826Y+9526237D01*
X+9451798Y+9536732D01*
X+9442576Y+9547112D01*
X+9432081Y+9554800D01*
X+9421586Y+9559718D01*
X+9411091Y+9562524D01*
X+9400596Y+9563497D01*
X+9400000Y+9563500D01*
X+9336500Y+9500000D02*
X+9336717Y+9505247D01*
X+9338482Y+9515742D01*
X+9342174Y+9526237D01*
X+9348202Y+9536732D01*
X+9357424Y+9547112D01*
X+9367919Y+9554800D01*
X+9378414Y+9559718D01*
X+9388909Y+9562524D01*
X+9399404Y+9563497D01*
X+9400000Y+9563500D01*
X+9336500Y+9500000D02*
X+9336717Y+9494753D01*
X+9338482Y+9484258D01*
X+9342174Y+9473763D01*
X+9348202Y+9463268D01*
X+9357424Y+9452888D01*
X+9367919Y+9445200D01*
X+9378414Y+9440282D01*
X+9388909Y+9437476D01*
X+9399404Y+9436503D01*
X+9400000Y+9436500D01*
X+9463500Y+9500000D02*
X+9463283Y+9494753D01*
X+9461518Y+9484258D01*
X+9457826Y+9473763D01*
X+9451798Y+9463268D01*
X+9442576Y+9452888D01*
X+9432081Y+9445200D01*
X+9421586Y+9440282D01*
X+9411091Y+9437476D01*
X+9400596Y+9436503D01*
X+9400000Y+9436500D01*
X+9355099Y+9544901D02*
X+9444901Y+9455099D01*
X+9355099Y+9455099D02*
X+9444901Y+9544901D01*
X+9263500Y+9500000D02*
X+9263283Y+9505247D01*
X+9261518Y+9515742D01*
X+9257826Y+9526237D01*
X+9251798Y+9536732D01*
X+9242576Y+9547112D01*
X+9232081Y+9554800D01*
X+9221586Y+9559718D01*
X+9211091Y+9562524D01*
X+9200596Y+9563497D01*
X+9200000Y+9563500D01*
X+9136500Y+9500000D02*
X+9136717Y+9505247D01*
X+9138482Y+9515742D01*
X+9142174Y+9526237D01*
X+9148202Y+9536732D01*
X+9157424Y+9547112D01*
X+9167919Y+9554800D01*
X+9178414Y+9559718D01*
X+9188909Y+9562524D01*
X+9199404Y+9563497D01*
X+9200000Y+9563500D01*
X+9136500Y+9500000D02*
X+9136717Y+9494753D01*
X+9138482Y+9484258D01*
X+9142174Y+9473763D01*
X+9148202Y+9463268D01*
X+9157424Y+9452888D01*
X+9167919Y+9445200D01*
X+9178414Y+9440282D01*
X+9188909Y+9437476D01*
X+9199404Y+9436503D01*
X+9200000Y+9436500D01*
X+9263500Y+9500000D02*
X+9263283Y+9494753D01*
X+9261518Y+9484258D01*
X+9257826Y+9473763D01*
X+9251798Y+9463268D01*
X+9242576Y+9452888D01*
X+9232081Y+9445200D01*
X+9221586Y+9440282D01*
X+9211091Y+9437476D01*
X+9200596Y+9436503D01*
X+9200000Y+9436500D01*
X+9155099Y+9544901D02*
X+9244901Y+9455099D01*
X+9155099Y+9455099D02*
X+9244901Y+9544901D01*
X+9063500Y+9500000D02*
X+9063283Y+9505247D01*
X+9061518Y+9515742D01*
X+9057826Y+9526237D01*
X+9051798Y+9536732D01*
X+9042576Y+9547112D01*
X+9032081Y+9554800D01*
X+9021586Y+9559718D01*
X+9011091Y+9562524D01*
X+9000596Y+9563497D01*
X+9000000Y+9563500D01*
X+8936500Y+9500000D02*
X+8936717Y+9505247D01*
X+8938482Y+9515742D01*
X+8942174Y+9526237D01*
X+8948202Y+9536732D01*
X+8957424Y+9547112D01*
X+8967919Y+9554800D01*
X+8978414Y+9559718D01*
X+8988909Y+9562524D01*
X+8999404Y+9563497D01*
X+9000000Y+9563500D01*
X+8936500Y+9500000D02*
X+8936717Y+9494753D01*
X+8938482Y+9484258D01*
X+8942174Y+9473763D01*
X+8948202Y+9463268D01*
X+8957424Y+9452888D01*
X+8967919Y+9445200D01*
X+8978414Y+9440282D01*
X+8988909Y+9437476D01*
X+8999404Y+9436503D01*
X+9000000Y+9436500D01*
X+9063500Y+9500000D02*
X+9063283Y+9494753D01*
X+9061518Y+9484258D01*
X+9057826Y+9473763D01*
X+9051798Y+9463268D01*
X+9042576Y+9452888D01*
X+9032081Y+9445200D01*
X+9021586Y+9440282D01*
X+9011091Y+9437476D01*
X+9000596Y+9436503D01*
X+9000000Y+9436500D01*
X+8955099Y+9544901D02*
X+9044901Y+9455099D01*
X+8955099Y+9455099D02*
X+9044901Y+9544901D01*
X+5813500Y+8500000D02*
X+5813283Y+8505247D01*
X+5811518Y+8515742D01*
X+5807826Y+8526237D01*
X+5801798Y+8536732D01*
X+5792576Y+8547112D01*
X+5782081Y+8554800D01*
X+5771586Y+8559718D01*
X+5761091Y+8562524D01*
X+5750596Y+8563497D01*
X+5750000Y+8563500D01*
X+5686500Y+8500000D02*
X+5686717Y+8505247D01*
X+5688482Y+8515742D01*
X+5692174Y+8526237D01*
X+5698202Y+8536732D01*
X+5707424Y+8547112D01*
X+5717919Y+8554800D01*
X+5728414Y+8559718D01*
X+5738909Y+8562524D01*
X+5749404Y+8563497D01*
X+5750000Y+8563500D01*
X+5686500Y+8500000D02*
X+5686717Y+8494753D01*
X+5688482Y+8484258D01*
X+5692174Y+8473763D01*
X+5698202Y+8463268D01*
X+5707424Y+8452888D01*
X+5717919Y+8445200D01*
X+5728414Y+8440282D01*
X+5738909Y+8437476D01*
X+5749404Y+8436503D01*
X+5750000Y+8436500D01*
X+5813500Y+8500000D02*
X+5813283Y+8494753D01*
X+5811518Y+8484258D01*
X+5807826Y+8473763D01*
X+5801798Y+8463268D01*
X+5792576Y+8452888D01*
X+5782081Y+8445200D01*
X+5771586Y+8440282D01*
X+5761091Y+8437476D01*
X+5750596Y+8436503D01*
X+5750000Y+8436500D01*
X+5705099Y+8544901D02*
X+5794901Y+8455099D01*
X+5705099Y+8455099D02*
X+5794901Y+8544901D01*
X+5613500Y+8500000D02*
X+5613283Y+8505247D01*
X+5611518Y+8515742D01*
X+5607826Y+8526237D01*
X+5601798Y+8536732D01*
X+5592576Y+8547112D01*
X+5582081Y+8554800D01*
X+5571586Y+8559718D01*
X+5561091Y+8562524D01*
X+5550596Y+8563497D01*
X+5550000Y+8563500D01*
X+5486500Y+8500000D02*
X+5486717Y+8505247D01*
X+5488482Y+8515742D01*
X+5492174Y+8526237D01*
X+5498202Y+8536732D01*
X+5507424Y+8547112D01*
X+5517919Y+8554800D01*
X+5528414Y+8559718D01*
X+5538909Y+8562524D01*
X+5549404Y+8563497D01*
X+5550000Y+8563500D01*
X+5486500Y+8500000D02*
X+5486717Y+8494753D01*
X+5488482Y+8484258D01*
X+5492174Y+8473763D01*
X+5498202Y+8463268D01*
X+5507424Y+8452888D01*
X+5517919Y+8445200D01*
X+5528414Y+8440282D01*
X+5538909Y+8437476D01*
X+5549404Y+8436503D01*
X+5550000Y+8436500D01*
X+5613500Y+8500000D02*
X+5613283Y+8494753D01*
X+5611518Y+8484258D01*
X+5607826Y+8473763D01*
X+5601798Y+8463268D01*
X+5592576Y+8452888D01*
X+5582081Y+8445200D01*
X+5571586Y+8440282D01*
X+5561091Y+8437476D01*
X+5550596Y+8436503D01*
X+5550000Y+8436500D01*
X+5505099Y+8544901D02*
X+5594901Y+8455099D01*
X+5505099Y+8455099D02*
X+5594901Y+8544901D01*
X+5413500Y+8500000D02*
X+5413283Y+8505247D01*
X+5411518Y+8515742D01*
X+5407826Y+8526237D01*
X+5401798Y+8536732D01*
X+5392576Y+8547112D01*
X+5382081Y+8554800D01*
X+5371586Y+8559718D01*
X+5361091Y+8562524D01*
X+5350596Y+8563497D01*
X+5350000Y+8563500D01*
X+5286500Y+8500000D02*
X+5286717Y+8505247D01*
X+5288482Y+8515742D01*
X+5292174Y+8526237D01*
X+5298202Y+8536732D01*
X+5307424Y+8547112D01*
X+5317919Y+8554800D01*
X+5328414Y+8559718D01*
X+5338909Y+8562524D01*
X+5349404Y+8563497D01*
X+5350000Y+8563500D01*
X+5286500Y+8500000D02*
X+5286717Y+8494753D01*
X+5288482Y+8484258D01*
X+5292174Y+8473763D01*
X+5298202Y+8463268D01*
X+5307424Y+8452888D01*
X+5317919Y+8445200D01*
X+5328414Y+8440282D01*
X+5338909Y+8437476D01*
X+5349404Y+8436503D01*
X+5350000Y+8436500D01*
X+5413500Y+8500000D02*
X+5413283Y+8494753D01*
X+5411518Y+8484258D01*
X+5407826Y+8473763D01*
X+5401798Y+8463268D01*
X+5392576Y+8452888D01*
X+5382081Y+8445200D01*
X+5371586Y+8440282D01*
X+5361091Y+8437476D01*
X+5350596Y+8436503D01*
X+5350000Y+8436500D01*
X+5305099Y+8544901D02*
X+5394901Y+8455099D01*
X+5305099Y+8455099D02*
X+5394901Y+8544901D01*
X+6513500Y+8500000D02*
X+6513283Y+8505247D01*
X+6511518Y+8515742D01*
X+6507826Y+8526237D01*
X+6501798Y+8536732D01*
X+6492576Y+8547112D01*
X+6482081Y+8554800D01*
X+6471586Y+8559718D01*
X+6461091Y+8562524D01*
X+6450596Y+8563497D01*
X+6450000Y+8563500D01*
X+6386500Y+8500000D02*
X+6386717Y+8505247D01*
X+6388482Y+8515742D01*
X+6392174Y+8526237D01*
X+6398202Y+8536732D01*
X+6407424Y+8547112D01*
X+6417919Y+8554800D01*
X+6428414Y+8559718D01*
X+6438909Y+8562524D01*
X+6449404Y+8563497D01*
X+6450000Y+8563500D01*
X+6386500Y+8500000D02*
X+6386717Y+8494753D01*
X+6388482Y+8484258D01*
X+6392174Y+8473763D01*
X+6398202Y+8463268D01*
X+6407424Y+8452888D01*
X+6417919Y+8445200D01*
X+6428414Y+8440282D01*
X+6438909Y+8437476D01*
X+6449404Y+8436503D01*
X+6450000Y+8436500D01*
X+6513500Y+8500000D02*
X+6513283Y+8494753D01*
X+6511518Y+8484258D01*
X+6507826Y+8473763D01*
X+6501798Y+8463268D01*
X+6492576Y+8452888D01*
X+6482081Y+8445200D01*
X+6471586Y+8440282D01*
X+6461091Y+8437476D01*
X+6450596Y+8436503D01*
X+6450000Y+8436500D01*
X+6405099Y+8544901D02*
X+6494901Y+8455099D01*
X+6405099Y+8455099D02*
X+6494901Y+8544901D01*
X+6313500Y+8500000D02*
X+6313283Y+8505247D01*
X+6311518Y+8515742D01*
X+6307826Y+8526237D01*
X+6301798Y+8536732D01*
X+6292576Y+8547112D01*
X+6282081Y+8554800D01*
X+6271586Y+8559718D01*
X+6261091Y+8562524D01*
X+6250596Y+8563497D01*
X+6250000Y+8563500D01*
X+6186500Y+8500000D02*
X+6186717Y+8505247D01*
X+6188482Y+8515742D01*
X+6192174Y+8526237D01*
X+6198202Y+8536732D01*
X+6207424Y+8547112D01*
X+6217919Y+8554800D01*
X+6228414Y+8559718D01*
X+6238909Y+8562524D01*
X+6249404Y+8563497D01*
X+6250000Y+8563500D01*
X+6186500Y+8500000D02*
X+6186717Y+8494753D01*
X+6188482Y+8484258D01*
X+6192174Y+8473763D01*
X+6198202Y+8463268D01*
X+6207424Y+8452888D01*
X+6217919Y+8445200D01*
X+6228414Y+8440282D01*
X+6238909Y+8437476D01*
X+6249404Y+8436503D01*
X+6250000Y+8436500D01*
X+6313500Y+8500000D02*
X+6313283Y+8494753D01*
X+6311518Y+8484258D01*
X+6307826Y+8473763D01*
X+6301798Y+8463268D01*
X+6292576Y+8452888D01*
X+6282081Y+8445200D01*
X+6271586Y+8440282D01*
X+6261091Y+8437476D01*
X+6250596Y+8436503D01*
X+6250000Y+8436500D01*
X+6205099Y+8544901D02*
X+6294901Y+8455099D01*
X+6205099Y+8455099D02*
X+6294901Y+8544901D01*
X+6113500Y+8500000D02*
X+6113283Y+8505247D01*
X+6111518Y+8515742D01*
X+6107826Y+8526237D01*
X+6101798Y+8536732D01*
X+6092576Y+8547112D01*
X+6082081Y+8554800D01*
X+6071586Y+8559718D01*
X+6061091Y+8562524D01*
X+6050596Y+8563497D01*
X+6050000Y+8563500D01*
X+5986500Y+8500000D02*
X+5986717Y+8505247D01*
X+5988482Y+8515742D01*
X+5992174Y+8526237D01*
X+5998202Y+8536732D01*
X+6007424Y+8547112D01*
X+6017919Y+8554800D01*
X+6028414Y+8559718D01*
X+6038909Y+8562524D01*
X+6049404Y+8563497D01*
X+6050000Y+8563500D01*
X+5986500Y+8500000D02*
X+5986717Y+8494753D01*
X+5988482Y+8484258D01*
X+5992174Y+8473763D01*
X+5998202Y+8463268D01*
X+6007424Y+8452888D01*
X+6017919Y+8445200D01*
X+6028414Y+8440282D01*
X+6038909Y+8437476D01*
X+6049404Y+8436503D01*
X+6050000Y+8436500D01*
X+6113500Y+8500000D02*
X+6113283Y+8494753D01*
X+6111518Y+8484258D01*
X+6107826Y+8473763D01*
X+6101798Y+8463268D01*
X+6092576Y+8452888D01*
X+6082081Y+8445200D01*
X+6071586Y+8440282D01*
X+6061091Y+8437476D01*
X+6050596Y+8436503D01*
X+6050000Y+8436500D01*
X+6005099Y+8544901D02*
X+6094901Y+8455099D01*
X+6005099Y+8455099D02*
X+6094901Y+8544901D01*
X+7263500Y+8500000D02*
X+7263283Y+8505247D01*
X+7261518Y+8515742D01*
X+7257826Y+8526237D01*
X+7251798Y+8536732D01*
X+7242576Y+8547112D01*
X+7232081Y+8554800D01*
X+7221586Y+8559718D01*
X+7211091Y+8562524D01*
X+7200596Y+8563497D01*
X+7200000Y+8563500D01*
X+7136500Y+8500000D02*
X+7136717Y+8505247D01*
X+7138482Y+8515742D01*
X+7142174Y+8526237D01*
X+7148202Y+8536732D01*
X+7157424Y+8547112D01*
X+7167919Y+8554800D01*
X+7178414Y+8559718D01*
X+7188909Y+8562524D01*
X+7199404Y+8563497D01*
X+7200000Y+8563500D01*
X+7136500Y+8500000D02*
X+7136717Y+8494753D01*
X+7138482Y+8484258D01*
X+7142174Y+8473763D01*
X+7148202Y+8463268D01*
X+7157424Y+8452888D01*
X+7167919Y+8445200D01*
X+7178414Y+8440282D01*
X+7188909Y+8437476D01*
X+7199404Y+8436503D01*
X+7200000Y+8436500D01*
X+7263500Y+8500000D02*
X+7263283Y+8494753D01*
X+7261518Y+8484258D01*
X+7257826Y+8473763D01*
X+7251798Y+8463268D01*
X+7242576Y+8452888D01*
X+7232081Y+8445200D01*
X+7221586Y+8440282D01*
X+7211091Y+8437476D01*
X+7200596Y+8436503D01*
X+7200000Y+8436500D01*
X+7155099Y+8544901D02*
X+7244901Y+8455099D01*
X+7155099Y+8455099D02*
X+7244901Y+8544901D01*
X+7063500Y+8500000D02*
X+7063283Y+8505247D01*
X+7061518Y+8515742D01*
X+7057826Y+8526237D01*
X+7051798Y+8536732D01*
X+7042576Y+8547112D01*
X+7032081Y+8554800D01*
X+7021586Y+8559718D01*
X+7011091Y+8562524D01*
X+7000596Y+8563497D01*
X+7000000Y+8563500D01*
X+6936500Y+8500000D02*
X+6936717Y+8505247D01*
X+6938482Y+8515742D01*
X+6942174Y+8526237D01*
X+6948202Y+8536732D01*
X+6957424Y+8547112D01*
X+6967919Y+8554800D01*
X+6978414Y+8559718D01*
X+6988909Y+8562524D01*
X+6999404Y+8563497D01*
X+7000000Y+8563500D01*
X+6936500Y+8500000D02*
X+6936717Y+8494753D01*
X+6938482Y+8484258D01*
X+6942174Y+8473763D01*
X+6948202Y+8463268D01*
X+6957424Y+8452888D01*
X+6967919Y+8445200D01*
X+6978414Y+8440282D01*
X+6988909Y+8437476D01*
X+6999404Y+8436503D01*
X+7000000Y+8436500D01*
X+7063500Y+8500000D02*
X+7063283Y+8494753D01*
X+7061518Y+8484258D01*
X+7057826Y+8473763D01*
X+7051798Y+8463268D01*
X+7042576Y+8452888D01*
X+7032081Y+8445200D01*
X+7021586Y+8440282D01*
X+7011091Y+8437476D01*
X+7000596Y+8436503D01*
X+7000000Y+8436500D01*
X+6955099Y+8544901D02*
X+7044901Y+8455099D01*
X+6955099Y+8455099D02*
X+7044901Y+8544901D01*
X+6863500Y+8500000D02*
X+6863283Y+8505247D01*
X+6861518Y+8515742D01*
X+6857826Y+8526237D01*
X+6851798Y+8536732D01*
X+6842576Y+8547112D01*
X+6832081Y+8554800D01*
X+6821586Y+8559718D01*
X+6811091Y+8562524D01*
X+6800596Y+8563497D01*
X+6800000Y+8563500D01*
X+6736500Y+8500000D02*
X+6736717Y+8505247D01*
X+6738482Y+8515742D01*
X+6742174Y+8526237D01*
X+6748202Y+8536732D01*
X+6757424Y+8547112D01*
X+6767919Y+8554800D01*
X+6778414Y+8559718D01*
X+6788909Y+8562524D01*
X+6799404Y+8563497D01*
X+6800000Y+8563500D01*
X+6736500Y+8500000D02*
X+6736717Y+8494753D01*
X+6738482Y+8484258D01*
X+6742174Y+8473763D01*
X+6748202Y+8463268D01*
X+6757424Y+8452888D01*
X+6767919Y+8445200D01*
X+6778414Y+8440282D01*
X+6788909Y+8437476D01*
X+6799404Y+8436503D01*
X+6800000Y+8436500D01*
X+6863500Y+8500000D02*
X+6863283Y+8494753D01*
X+6861518Y+8484258D01*
X+6857826Y+8473763D01*
X+6851798Y+8463268D01*
X+6842576Y+8452888D01*
X+6832081Y+8445200D01*
X+6821586Y+8440282D01*
X+6811091Y+8437476D01*
X+6800596Y+8436503D01*
X+6800000Y+8436500D01*
X+6755099Y+8544901D02*
X+6844901Y+8455099D01*
X+6755099Y+8455099D02*
X+6844901Y+8544901D01*
X+8013500Y+8500000D02*
X+8013283Y+8505247D01*
X+8011518Y+8515742D01*
X+8007826Y+8526237D01*
X+8001798Y+8536732D01*
X+7992576Y+8547112D01*
X+7982081Y+8554800D01*
X+7971586Y+8559718D01*
X+7961091Y+8562524D01*
X+7950596Y+8563497D01*
X+7950000Y+8563500D01*
X+7886500Y+8500000D02*
X+7886717Y+8505247D01*
X+7888482Y+8515742D01*
X+7892174Y+8526237D01*
X+7898202Y+8536732D01*
X+7907424Y+8547112D01*
X+7917919Y+8554800D01*
X+7928414Y+8559718D01*
X+7938909Y+8562524D01*
X+7949404Y+8563497D01*
X+7950000Y+8563500D01*
X+7886500Y+8500000D02*
X+7886717Y+8494753D01*
X+7888482Y+8484258D01*
X+7892174Y+8473763D01*
X+7898202Y+8463268D01*
X+7907424Y+8452888D01*
X+7917919Y+8445200D01*
X+7928414Y+8440282D01*
X+7938909Y+8437476D01*
X+7949404Y+8436503D01*
X+7950000Y+8436500D01*
X+8013500Y+8500000D02*
X+8013283Y+8494753D01*
X+8011518Y+8484258D01*
X+8007826Y+8473763D01*
X+8001798Y+8463268D01*
X+7992576Y+8452888D01*
X+7982081Y+8445200D01*
X+7971586Y+8440282D01*
X+7961091Y+8437476D01*
X+7950596Y+8436503D01*
X+7950000Y+8436500D01*
X+7905099Y+8544901D02*
X+7994901Y+8455099D01*
X+7905099Y+8455099D02*
X+7994901Y+8544901D01*
X+7813500Y+8500000D02*
X+7813283Y+8505247D01*
X+7811518Y+8515742D01*
X+7807826Y+8526237D01*
X+7801798Y+8536732D01*
X+7792576Y+8547112D01*
X+7782081Y+8554800D01*
X+7771586Y+8559718D01*
X+7761091Y+8562524D01*
X+7750596Y+8563497D01*
X+7750000Y+8563500D01*
X+7686500Y+8500000D02*
X+7686717Y+8505247D01*
X+7688482Y+8515742D01*
X+7692174Y+8526237D01*
X+7698202Y+8536732D01*
X+7707424Y+8547112D01*
X+7717919Y+8554800D01*
X+7728414Y+8559718D01*
X+7738909Y+8562524D01*
X+7749404Y+8563497D01*
X+7750000Y+8563500D01*
X+7686500Y+8500000D02*
X+7686717Y+8494753D01*
X+7688482Y+8484258D01*
X+7692174Y+8473763D01*
X+7698202Y+8463268D01*
X+7707424Y+8452888D01*
X+7717919Y+8445200D01*
X+7728414Y+8440282D01*
X+7738909Y+8437476D01*
X+7749404Y+8436503D01*
X+7750000Y+8436500D01*
X+7813500Y+8500000D02*
X+7813283Y+8494753D01*
X+7811518Y+8484258D01*
X+7807826Y+8473763D01*
X+7801798Y+8463268D01*
X+7792576Y+8452888D01*
X+7782081Y+8445200D01*
X+7771586Y+8440282D01*
X+7761091Y+8437476D01*
X+7750596Y+8436503D01*
X+7750000Y+8436500D01*
X+7705099Y+8544901D02*
X+7794901Y+8455099D01*
X+7705099Y+8455099D02*
X+7794901Y+8544901D01*
X+7613500Y+8500000D02*
X+7613283Y+8505247D01*
X+7611518Y+8515742D01*
X+7607826Y+8526237D01*
X+7601798Y+8536732D01*
X+7592576Y+8547112D01*
X+7582081Y+8554800D01*
X+7571586Y+8559718D01*
X+7561091Y+8562524D01*
X+7550596Y+8563497D01*
X+7550000Y+8563500D01*
X+7486500Y+8500000D02*
X+7486717Y+8505247D01*
X+7488482Y+8515742D01*
X+7492174Y+8526237D01*
X+7498202Y+8536732D01*
X+7507424Y+8547112D01*
X+7517919Y+8554800D01*
X+7528414Y+8559718D01*
X+7538909Y+8562524D01*
X+7549404Y+8563497D01*
X+7550000Y+8563500D01*
X+7486500Y+8500000D02*
X+7486717Y+8494753D01*
X+7488482Y+8484258D01*
X+7492174Y+8473763D01*
X+7498202Y+8463268D01*
X+7507424Y+8452888D01*
X+7517919Y+8445200D01*
X+7528414Y+8440282D01*
X+7538909Y+8437476D01*
X+7549404Y+8436503D01*
X+7550000Y+8436500D01*
X+7613500Y+8500000D02*
X+7613283Y+8494753D01*
X+7611518Y+8484258D01*
X+7607826Y+8473763D01*
X+7601798Y+8463268D01*
X+7592576Y+8452888D01*
X+7582081Y+8445200D01*
X+7571586Y+8440282D01*
X+7561091Y+8437476D01*
X+7550596Y+8436503D01*
X+7550000Y+8436500D01*
X+7505099Y+8544901D02*
X+7594901Y+8455099D01*
X+7505099Y+8455099D02*
X+7594901Y+8544901D01*
X+8763500Y+8500000D02*
X+8763283Y+8505247D01*
X+8761518Y+8515742D01*
X+8757826Y+8526237D01*
X+8751798Y+8536732D01*
X+8742576Y+8547112D01*
X+8732081Y+8554800D01*
X+8721586Y+8559718D01*
X+8711091Y+8562524D01*
X+8700596Y+8563497D01*
X+8700000Y+8563500D01*
X+8636500Y+8500000D02*
X+8636717Y+8505247D01*
X+8638482Y+8515742D01*
X+8642174Y+8526237D01*
X+8648202Y+8536732D01*
X+8657424Y+8547112D01*
X+8667919Y+8554800D01*
X+8678414Y+8559718D01*
X+8688909Y+8562524D01*
X+8699404Y+8563497D01*
X+8700000Y+8563500D01*
X+8636500Y+8500000D02*
X+8636717Y+8494753D01*
X+8638482Y+8484258D01*
X+8642174Y+8473763D01*
X+8648202Y+8463268D01*
X+8657424Y+8452888D01*
X+8667919Y+8445200D01*
X+8678414Y+8440282D01*
X+8688909Y+8437476D01*
X+8699404Y+8436503D01*
X+8700000Y+8436500D01*
X+8763500Y+8500000D02*
X+8763283Y+8494753D01*
X+8761518Y+8484258D01*
X+8757826Y+8473763D01*
X+8751798Y+8463268D01*
X+8742576Y+8452888D01*
X+8732081Y+8445200D01*
X+8721586Y+8440282D01*
X+8711091Y+8437476D01*
X+8700596Y+8436503D01*
X+8700000Y+8436500D01*
X+8655099Y+8544901D02*
X+8744901Y+8455099D01*
X+8655099Y+8455099D02*
X+8744901Y+8544901D01*
X+8563500Y+8500000D02*
X+8563283Y+8505247D01*
X+8561518Y+8515742D01*
X+8557826Y+8526237D01*
X+8551798Y+8536732D01*
X+8542576Y+8547112D01*
X+8532081Y+8554800D01*
X+8521586Y+8559718D01*
X+8511091Y+8562524D01*
X+8500596Y+8563497D01*
X+8500000Y+8563500D01*
X+8436500Y+8500000D02*
X+8436717Y+8505247D01*
X+8438482Y+8515742D01*
X+8442174Y+8526237D01*
X+8448202Y+8536732D01*
X+8457424Y+8547112D01*
X+8467919Y+8554800D01*
X+8478414Y+8559718D01*
X+8488909Y+8562524D01*
X+8499404Y+8563497D01*
X+8500000Y+8563500D01*
X+8436500Y+8500000D02*
X+8436717Y+8494753D01*
X+8438482Y+8484258D01*
X+8442174Y+8473763D01*
X+8448202Y+8463268D01*
X+8457424Y+8452888D01*
X+8467919Y+8445200D01*
X+8478414Y+8440282D01*
X+8488909Y+8437476D01*
X+8499404Y+8436503D01*
X+8500000Y+8436500D01*
X+8563500Y+8500000D02*
X+8563283Y+8494753D01*
X+8561518Y+8484258D01*
X+8557826Y+8473763D01*
X+8551798Y+8463268D01*
X+8542576Y+8452888D01*
X+8532081Y+8445200D01*
X+8521586Y+8440282D01*
X+8511091Y+8437476D01*
X+8500596Y+8436503D01*
X+8500000Y+8436500D01*
X+8455099Y+8544901D02*
X+8544901Y+8455099D01*
X+8455099Y+8455099D02*
X+8544901Y+8544901D01*
X+8363500Y+8500000D02*
X+8363283Y+8505247D01*
X+8361518Y+8515742D01*
X+8357826Y+8526237D01*
X+8351798Y+8536732D01*
X+8342576Y+8547112D01*
X+8332081Y+8554800D01*
X+8321586Y+8559718D01*
X+8311091Y+8562524D01*
X+8300596Y+8563497D01*
X+8300000Y+8563500D01*
X+8236500Y+8500000D02*
X+8236717Y+8505247D01*
X+8238482Y+8515742D01*
X+8242174Y+8526237D01*
X+8248202Y+8536732D01*
X+8257424Y+8547112D01*
X+8267919Y+8554800D01*
X+8278414Y+8559718D01*
X+8288909Y+8562524D01*
X+8299404Y+8563497D01*
X+8300000Y+8563500D01*
X+8236500Y+8500000D02*
X+8236717Y+8494753D01*
X+8238482Y+8484258D01*
X+8242174Y+8473763D01*
X+8248202Y+8463268D01*
X+8257424Y+8452888D01*
X+8267919Y+8445200D01*
X+8278414Y+8440282D01*
X+8288909Y+8437476D01*
X+8299404Y+8436503D01*
X+8300000Y+8436500D01*
X+8363500Y+8500000D02*
X+8363283Y+8494753D01*
X+8361518Y+8484258D01*
X+8357826Y+8473763D01*
X+8351798Y+8463268D01*
X+8342576Y+8452888D01*
X+8332081Y+8445200D01*
X+8321586Y+8440282D01*
X+8311091Y+8437476D01*
X+8300596Y+8436503D01*
X+8300000Y+8436500D01*
X+8255099Y+8544901D02*
X+8344901Y+8455099D01*
X+8255099Y+8455099D02*
X+8344901Y+8544901D01*
X+9463500Y+8500000D02*
X+9463283Y+8505247D01*
X+9461518Y+8515742D01*
X+9457826Y+8526237D01*
X+9451798Y+8536732D01*
X+9442576Y+8547112D01*
X+9432081Y+8554800D01*
X+9421586Y+8559718D01*
X+9411091Y+8562524D01*
X+9400596Y+8563497D01*
X+9400000Y+8563500D01*
X+9336500Y+8500000D02*
X+9336717Y+8505247D01*
X+9338482Y+8515742D01*
X+9342174Y+8526237D01*
X+9348202Y+8536732D01*
X+9357424Y+8547112D01*
X+9367919Y+8554800D01*
X+9378414Y+8559718D01*
X+9388909Y+8562524D01*
X+9399404Y+8563497D01*
X+9400000Y+8563500D01*
X+9336500Y+8500000D02*
X+9336717Y+8494753D01*
X+9338482Y+8484258D01*
X+9342174Y+8473763D01*
X+9348202Y+8463268D01*
X+9357424Y+8452888D01*
X+9367919Y+8445200D01*
X+9378414Y+8440282D01*
X+9388909Y+8437476D01*
X+9399404Y+8436503D01*
X+9400000Y+8436500D01*
X+9463500Y+8500000D02*
X+9463283Y+8494753D01*
X+9461518Y+8484258D01*
X+9457826Y+8473763D01*
X+9451798Y+8463268D01*
X+9442576Y+8452888D01*
X+9432081Y+8445200D01*
X+9421586Y+8440282D01*
X+9411091Y+8437476D01*
X+9400596Y+8436503D01*
X+9400000Y+8436500D01*
X+9355099Y+8544901D02*
X+9444901Y+8455099D01*
X+9355099Y+8455099D02*
X+9444901Y+8544901D01*
X+9263500Y+8500000D02*
X+9263283Y+8505247D01*
X+9261518Y+8515742D01*
X+9257826Y+8526237D01*
X+9251798Y+8536732D01*
X+9242576Y+8547112D01*
X+9232081Y+8554800D01*
X+9221586Y+8559718D01*
X+9211091Y+8562524D01*
X+9200596Y+8563497D01*
X+9200000Y+8563500D01*
X+9136500Y+8500000D02*
X+9136717Y+8505247D01*
X+9138482Y+8515742D01*
X+9142174Y+8526237D01*
X+9148202Y+8536732D01*
X+9157424Y+8547112D01*
X+9167919Y+8554800D01*
X+9178414Y+8559718D01*
X+9188909Y+8562524D01*
X+9199404Y+8563497D01*
X+9200000Y+8563500D01*
X+9136500Y+8500000D02*
X+9136717Y+8494753D01*
X+9138482Y+8484258D01*
X+9142174Y+8473763D01*
X+9148202Y+8463268D01*
X+9157424Y+8452888D01*
X+9167919Y+8445200D01*
X+9178414Y+8440282D01*
X+9188909Y+8437476D01*
X+9199404Y+8436503D01*
X+9200000Y+8436500D01*
X+9263500Y+8500000D02*
X+9263283Y+8494753D01*
X+9261518Y+8484258D01*
X+9257826Y+8473763D01*
X+9251798Y+8463268D01*
X+9242576Y+8452888D01*
X+9232081Y+8445200D01*
X+9221586Y+8440282D01*
X+9211091Y+8437476D01*
X+9200596Y+8436503D01*
X+9200000Y+8436500D01*
X+9155099Y+8544901D02*
X+9244901Y+8455099D01*
X+9155099Y+8455099D02*
X+9244901Y+8544901D01*
X+9063500Y+8500000D02*
X+9063283Y+8505247D01*
X+9061518Y+8515742D01*
X+9057826Y+8526237D01*
X+9051798Y+8536732D01*
X+9042576Y+8547112D01*
X+9032081Y+8554800D01*
X+9021586Y+8559718D01*
X+9011091Y+8562524D01*
X+9000596Y+8563497D01*
X+9000000Y+8563500D01*
X+8936500Y+8500000D02*
X+8936717Y+8505247D01*
X+8938482Y+8515742D01*
X+8942174Y+8526237D01*
X+8948202Y+8536732D01*
X+8957424Y+8547112D01*
X+8967919Y+8554800D01*
X+8978414Y+8559718D01*
X+8988909Y+8562524D01*
X+8999404Y+8563497D01*
X+9000000Y+8563500D01*
X+8936500Y+8500000D02*
X+8936717Y+8494753D01*
X+8938482Y+8484258D01*
X+8942174Y+8473763D01*
X+8948202Y+8463268D01*
X+8957424Y+8452888D01*
X+8967919Y+8445200D01*
X+8978414Y+8440282D01*
X+8988909Y+8437476D01*
X+8999404Y+8436503D01*
X+9000000Y+8436500D01*
X+9063500Y+8500000D02*
X+9063283Y+8494753D01*
X+9061518Y+8484258D01*
X+9057826Y+8473763D01*
X+9051798Y+8463268D01*
X+9042576Y+8452888D01*
X+9032081Y+8445200D01*
X+9021586Y+8440282D01*
X+9011091Y+8437476D01*
X+9000596Y+8436503D01*
X+9000000Y+8436500D01*
X+8955099Y+8544901D02*
X+9044901Y+8455099D01*
X+8955099Y+8455099D02*
X+9044901Y+8544901D01*
X+5750000Y+5313500D02*
X+5750000Y+5186500D01*
X+5686500Y+5250000D02*
X+5813500Y+5250000D01*
X+5686500Y+5186500D02*
X+5813500Y+5186500D01*
X+5813500Y+5313500D01*
X+5686500Y+5313500D01*
X+5686500Y+5186500D01*
X+5686500Y+5313500D02*
X+5813500Y+5186500D01*
X+5686500Y+5186500D02*
X+5813500Y+5313500D01*
X+5750000Y+5813880D02*
X+5750000Y+5686880D01*
X+5686500Y+5750380D02*
X+5813500Y+5750380D01*
X+5686500Y+5686880D02*
X+5813500Y+5686880D01*
X+5813500Y+5813880D01*
X+5686500Y+5813880D01*
X+5686500Y+5686880D01*
X+5686500Y+5813880D02*
X+5813500Y+5686880D01*
X+5686500Y+5686880D02*
X+5813500Y+5813880D01*
X+5250000Y+3313500D02*
X+5250000Y+3186500D01*
X+5186500Y+3250000D02*
X+5313500Y+3250000D01*
X+5205099Y+3294901D02*
X+5294901Y+3205099D01*
X+5205099Y+3205099D02*
X+5294901Y+3294901D01*
X+6266000Y+3313500D02*
X+6266000Y+3186500D01*
X+6202500Y+3250000D02*
X+6329500Y+3250000D01*
X+6221099Y+3294901D02*
X+6310901Y+3205099D01*
X+6221099Y+3205099D02*
X+6310901Y+3294901D01*
X+9205099Y+7044901D02*
X+9294901Y+6955099D01*
X+9205099Y+6955099D02*
X+9294901Y+7044901D01*
X+8955099Y+7044901D02*
X+9044901Y+6955099D01*
X+8955099Y+6955099D02*
X+9044901Y+7044901D01*
X+9205099Y+6294901D02*
X+9294901Y+6205099D01*
X+9205099Y+6205099D02*
X+9294901Y+6294901D01*
X+8955099Y+6294901D02*
X+9044901Y+6205099D01*
X+8955099Y+6205099D02*
X+9044901Y+6294901D01*
X+5830099Y+6794901D02*
X+5919901Y+6705099D01*
X+5830099Y+6705099D02*
X+5919901Y+6794901D01*
X+5580099Y+6794901D02*
X+5669901Y+6705099D01*
X+5580099Y+6705099D02*
X+5669901Y+6794901D01*
X+9313500Y+5200000D02*
X+9313283Y+5205247D01*
X+9311518Y+5215742D01*
X+9307826Y+5226237D01*
X+9301798Y+5236732D01*
X+9292576Y+5247112D01*
X+9282081Y+5254800D01*
X+9271586Y+5259718D01*
X+9261091Y+5262524D01*
X+9250596Y+5263497D01*
X+9250000Y+5263500D01*
X+9186500Y+5200000D02*
X+9186717Y+5205247D01*
X+9188482Y+5215742D01*
X+9192174Y+5226237D01*
X+9198202Y+5236732D01*
X+9207424Y+5247112D01*
X+9217919Y+5254800D01*
X+9228414Y+5259718D01*
X+9238909Y+5262524D01*
X+9249404Y+5263497D01*
X+9250000Y+5263500D01*
X+9186500Y+5200000D02*
X+9186717Y+5194753D01*
X+9188482Y+5184258D01*
X+9192174Y+5173763D01*
X+9198202Y+5163268D01*
X+9207424Y+5152888D01*
X+9217919Y+5145200D01*
X+9228414Y+5140282D01*
X+9238909Y+5137476D01*
X+9249404Y+5136503D01*
X+9250000Y+5136500D01*
X+9313500Y+5200000D02*
X+9313283Y+5194753D01*
X+9311518Y+5184258D01*
X+9307826Y+5173763D01*
X+9301798Y+5163268D01*
X+9292576Y+5152888D01*
X+9282081Y+5145200D01*
X+9271586Y+5140282D01*
X+9261091Y+5137476D01*
X+9250596Y+5136503D01*
X+9250000Y+5136500D01*
X+9250000Y+5263500D02*
X+9250000Y+5136500D01*
X+9186500Y+5200000D02*
X+9313500Y+5200000D01*
X+9313500Y+5000000D02*
X+9313283Y+5005247D01*
X+9311518Y+5015742D01*
X+9307826Y+5026237D01*
X+9301798Y+5036732D01*
X+9292576Y+5047112D01*
X+9282081Y+5054800D01*
X+9271586Y+5059718D01*
X+9261091Y+5062524D01*
X+9250596Y+5063497D01*
X+9250000Y+5063500D01*
X+9186500Y+5000000D02*
X+9186717Y+5005247D01*
X+9188482Y+5015742D01*
X+9192174Y+5026237D01*
X+9198202Y+5036732D01*
X+9207424Y+5047112D01*
X+9217919Y+5054800D01*
X+9228414Y+5059718D01*
X+9238909Y+5062524D01*
X+9249404Y+5063497D01*
X+9250000Y+5063500D01*
X+9186500Y+5000000D02*
X+9186717Y+4994753D01*
X+9188482Y+4984258D01*
X+9192174Y+4973763D01*
X+9198202Y+4963268D01*
X+9207424Y+4952888D01*
X+9217919Y+4945200D01*
X+9228414Y+4940282D01*
X+9238909Y+4937476D01*
X+9249404Y+4936503D01*
X+9250000Y+4936500D01*
X+9313500Y+5000000D02*
X+9313283Y+4994753D01*
X+9311518Y+4984258D01*
X+9307826Y+4973763D01*
X+9301798Y+4963268D01*
X+9292576Y+4952888D01*
X+9282081Y+4945200D01*
X+9271586Y+4940282D01*
X+9261091Y+4937476D01*
X+9250596Y+4936503D01*
X+9250000Y+4936500D01*
X+9250000Y+5063500D02*
X+9250000Y+4936500D01*
X+9186500Y+5000000D02*
X+9313500Y+5000000D01*
X+9313500Y+4800000D02*
X+9313283Y+4805247D01*
X+9311518Y+4815742D01*
X+9307826Y+4826237D01*
X+9301798Y+4836732D01*
X+9292576Y+4847112D01*
X+9282081Y+4854800D01*
X+9271586Y+4859718D01*
X+9261091Y+4862524D01*
X+9250596Y+4863497D01*
X+9250000Y+4863500D01*
X+9186500Y+4800000D02*
X+9186717Y+4805247D01*
X+9188482Y+4815742D01*
X+9192174Y+4826237D01*
X+9198202Y+4836732D01*
X+9207424Y+4847112D01*
X+9217919Y+4854800D01*
X+9228414Y+4859718D01*
X+9238909Y+4862524D01*
X+9249404Y+4863497D01*
X+9250000Y+4863500D01*
X+9186500Y+4800000D02*
X+9186717Y+4794753D01*
X+9188482Y+4784258D01*
X+9192174Y+4773763D01*
X+9198202Y+4763268D01*
X+9207424Y+4752888D01*
X+9217919Y+4745200D01*
X+9228414Y+4740282D01*
X+9238909Y+4737476D01*
X+9249404Y+4736503D01*
X+9250000Y+4736500D01*
X+9313500Y+4800000D02*
X+9313283Y+4794753D01*
X+9311518Y+4784258D01*
X+9307826Y+4773763D01*
X+9301798Y+4763268D01*
X+9292576Y+4752888D01*
X+9282081Y+4745200D01*
X+9271586Y+4740282D01*
X+9261091Y+4737476D01*
X+9250596Y+4736503D01*
X+9250000Y+4736500D01*
X+9250000Y+4863500D02*
X+9250000Y+4736500D01*
X+9186500Y+4800000D02*
X+9313500Y+4800000D01*
X+8813500Y+5200000D02*
X+8813283Y+5205247D01*
X+8811518Y+5215742D01*
X+8807826Y+5226237D01*
X+8801798Y+5236732D01*
X+8792576Y+5247112D01*
X+8782081Y+5254800D01*
X+8771586Y+5259718D01*
X+8761091Y+5262524D01*
X+8750596Y+5263497D01*
X+8750000Y+5263500D01*
X+8686500Y+5200000D02*
X+8686717Y+5205247D01*
X+8688482Y+5215742D01*
X+8692174Y+5226237D01*
X+8698202Y+5236732D01*
X+8707424Y+5247112D01*
X+8717919Y+5254800D01*
X+8728414Y+5259718D01*
X+8738909Y+5262524D01*
X+8749404Y+5263497D01*
X+8750000Y+5263500D01*
X+8686500Y+5200000D02*
X+8686717Y+5194753D01*
X+8688482Y+5184258D01*
X+8692174Y+5173763D01*
X+8698202Y+5163268D01*
X+8707424Y+5152888D01*
X+8717919Y+5145200D01*
X+8728414Y+5140282D01*
X+8738909Y+5137476D01*
X+8749404Y+5136503D01*
X+8750000Y+5136500D01*
X+8813500Y+5200000D02*
X+8813283Y+5194753D01*
X+8811518Y+5184258D01*
X+8807826Y+5173763D01*
X+8801798Y+5163268D01*
X+8792576Y+5152888D01*
X+8782081Y+5145200D01*
X+8771586Y+5140282D01*
X+8761091Y+5137476D01*
X+8750596Y+5136503D01*
X+8750000Y+5136500D01*
X+8750000Y+5263500D02*
X+8750000Y+5136500D01*
X+8686500Y+5200000D02*
X+8813500Y+5200000D01*
X+8813500Y+5000000D02*
X+8813283Y+5005247D01*
X+8811518Y+5015742D01*
X+8807826Y+5026237D01*
X+8801798Y+5036732D01*
X+8792576Y+5047112D01*
X+8782081Y+5054800D01*
X+8771586Y+5059718D01*
X+8761091Y+5062524D01*
X+8750596Y+5063497D01*
X+8750000Y+5063500D01*
X+8686500Y+5000000D02*
X+8686717Y+5005247D01*
X+8688482Y+5015742D01*
X+8692174Y+5026237D01*
X+8698202Y+5036732D01*
X+8707424Y+5047112D01*
X+8717919Y+5054800D01*
X+8728414Y+5059718D01*
X+8738909Y+5062524D01*
X+8749404Y+5063497D01*
X+8750000Y+5063500D01*
X+8686500Y+5000000D02*
X+8686717Y+4994753D01*
X+8688482Y+4984258D01*
X+8692174Y+4973763D01*
X+8698202Y+4963268D01*
X+8707424Y+4952888D01*
X+8717919Y+4945200D01*
X+8728414Y+4940282D01*
X+8738909Y+4937476D01*
X+8749404Y+4936503D01*
X+8750000Y+4936500D01*
X+8813500Y+5000000D02*
X+8813283Y+4994753D01*
X+8811518Y+4984258D01*
X+8807826Y+4973763D01*
X+8801798Y+4963268D01*
X+8792576Y+4952888D01*
X+8782081Y+4945200D01*
X+8771586Y+4940282D01*
X+8761091Y+4937476D01*
X+8750596Y+4936503D01*
X+8750000Y+4936500D01*
X+8750000Y+5063500D02*
X+8750000Y+4936500D01*
X+8686500Y+5000000D02*
X+8813500Y+5000000D01*
X+8813500Y+4800000D02*
X+8813283Y+4805247D01*
X+8811518Y+4815742D01*
X+8807826Y+4826237D01*
X+8801798Y+4836732D01*
X+8792576Y+4847112D01*
X+8782081Y+4854800D01*
X+8771586Y+4859718D01*
X+8761091Y+4862524D01*
X+8750596Y+4863497D01*
X+8750000Y+4863500D01*
X+8686500Y+4800000D02*
X+8686717Y+4805247D01*
X+8688482Y+4815742D01*
X+8692174Y+4826237D01*
X+8698202Y+4836732D01*
X+8707424Y+4847112D01*
X+8717919Y+4854800D01*
X+8728414Y+4859718D01*
X+8738909Y+4862524D01*
X+8749404Y+4863497D01*
X+8750000Y+4863500D01*
X+8686500Y+4800000D02*
X+8686717Y+4794753D01*
X+8688482Y+4784258D01*
X+8692174Y+4773763D01*
X+8698202Y+4763268D01*
X+8707424Y+4752888D01*
X+8717919Y+4745200D01*
X+8728414Y+4740282D01*
X+8738909Y+4737476D01*
X+8749404Y+4736503D01*
X+8750000Y+4736500D01*
X+8813500Y+4800000D02*
X+8813283Y+4794753D01*
X+8811518Y+4784258D01*
X+8807826Y+4773763D01*
X+8801798Y+4763268D01*
X+8792576Y+4752888D01*
X+8782081Y+4745200D01*
X+8771586Y+4740282D01*
X+8761091Y+4737476D01*
X+8750596Y+4736503D01*
X+8750000Y+4736500D01*
X+8750000Y+4863500D02*
X+8750000Y+4736500D01*
X+8686500Y+4800000D02*
X+8813500Y+4800000D01*
X+8936500Y+3428500D02*
X+9063500Y+3428500D01*
X+9063500Y+3555500D01*
X+8936500Y+3555500D01*
X+8936500Y+3428500D01*
X+8936500Y+3555500D02*
X+9063500Y+3428500D01*
X+8936500Y+3428500D02*
X+9063500Y+3555500D01*
X+8936500Y+3682500D02*
X+9063500Y+3682500D01*
X+9063500Y+3809500D01*
X+8936500Y+3809500D01*
X+8936500Y+3682500D01*
X+8936500Y+3809500D02*
X+9063500Y+3682500D01*
X+8936500Y+3682500D02*
X+9063500Y+3809500D01*
X+8936500Y+3936500D02*
X+9063500Y+3936500D01*
X+9063500Y+4063500D01*
X+8936500Y+4063500D01*
X+8936500Y+3936500D01*
X+8936500Y+4063500D02*
X+9063500Y+3936500D01*
X+8936500Y+3936500D02*
X+9063500Y+4063500D01*
X+5500000Y+4063500D02*
X+5500000Y+3936500D01*
X+5436500Y+4000000D02*
X+5563500Y+4000000D01*
X+5436500Y+3936500D02*
X+5563500Y+3936500D01*
X+5563500Y+4063500D01*
X+5436500Y+4063500D01*
X+5436500Y+3936500D01*
X+5754000Y+4063500D02*
X+5754000Y+3936500D01*
X+5690500Y+4000000D02*
X+5817500Y+4000000D01*
X+5690500Y+3936500D02*
X+5817500Y+3936500D01*
X+5817500Y+4063500D01*
X+5690500Y+4063500D01*
X+5690500Y+3936500D01*
X+5000000Y+2667000D02*
X+9699000Y+2667000D01*
X+9699000Y+10033000D01*
X+5000000Y+10033000D01*
X+5000000Y+2667000D01*
D28*
X+4949200Y-289560D02*
X+7593340Y-289560D01*
X+7593340Y+2402840D01*
X+4949200Y+2402840D01*
X+4949200Y-289560D01*
D56*
X+5416562Y+2402840D02*
X+5416562Y-289560D01*
X+6229362Y+2402840D02*
X+6229362Y-289560D01*
X+7062482Y+2402840D02*
X+7062482Y-289560D01*
X+4949200Y+2129790D02*
X+7593340Y+2129790D01*
X+4949200Y+1888490D02*
X+7593340Y+1888490D01*
X+4949200Y+1647190D02*
X+7593340Y+1647190D01*
X+4949200Y+1405890D02*
X+7593340Y+1405890D01*
X+4949200Y+1164590D02*
X+7593340Y+1164590D01*
X+4949200Y+923290D02*
X+7593340Y+923290D01*
X+4949200Y+681990D02*
X+7593340Y+681990D01*
X+4949200Y+440690D02*
X+7593340Y+440690D01*
X+4949200Y+199390D02*
X+7593340Y+199390D01*
X+4949200Y-41910D02*
X+7593340Y-41910D01*
D28*
X+5006350Y+2239010D02*
X+5021590Y+2223770D01*
X+5082550Y+2223770D01*
X+5097790Y+2239010D01*
X+5097790Y+2254250D01*
X+5082550Y+2269490D01*
X+5021590Y+2269490D01*
X+5006350Y+2284730D01*
X+5006350Y+2299970D01*
X+5021590Y+2315210D01*
X+5082550Y+2315210D01*
X+5097790Y+2299970D01*
X+5219710Y+2315210D02*
X+5128270Y+2223770D01*
X+5128270Y+2315210D02*
X+5173990Y+2269490D01*
X+5250190Y+2223770D02*
X+5250190Y+2315210D01*
X+5295910Y+2269490D01*
X+5341630Y+2315210D01*
X+5341630Y+2223770D01*
X+5473710Y+2239010D02*
X+5488950Y+2223770D01*
X+5549910Y+2223770D01*
X+5565150Y+2239010D01*
X+5565150Y+2254250D01*
X+5549910Y+2269490D01*
X+5488950Y+2269490D01*
X+5473710Y+2284730D01*
X+5473710Y+2299970D01*
X+5488950Y+2315210D01*
X+5549910Y+2315210D01*
X+5565150Y+2299970D01*
X+5610870Y+2315210D02*
X+5671830Y+2315210D01*
X+5641350Y+2315210D02*
X+5641350Y+2223770D01*
X+5610870Y+2223770D02*
X+5671830Y+2223770D01*
X+5717550Y+2315210D02*
X+5808990Y+2315210D01*
X+5717550Y+2223770D01*
X+5808990Y+2223770D01*
X+5930910Y+2223770D02*
X+5839470Y+2223770D01*
X+5839470Y+2315210D01*
X+5930910Y+2315210D01*
X+5839470Y+2269490D02*
X+5900430Y+2269490D01*
X+6286510Y+2223770D02*
X+6286510Y+2315210D01*
X+6362710Y+2315210D01*
X+6377950Y+2299970D01*
X+6377950Y+2284730D01*
X+6362710Y+2269490D01*
X+6286510Y+2269490D01*
X+6408430Y+2315210D02*
X+6408430Y+2223770D01*
X+6499870Y+2223770D01*
X+6530350Y+2223770D02*
X+6530350Y+2284730D01*
X+6560830Y+2315210D01*
X+6591310Y+2315210D01*
X+6621790Y+2284730D01*
X+6621790Y+2223770D01*
X+6530350Y+2254250D02*
X+6621790Y+2254250D01*
X+6652270Y+2315210D02*
X+6743710Y+2315210D01*
X+6697990Y+2315210D02*
X+6697990Y+2223770D01*
X+6865630Y+2223770D02*
X+6774190Y+2223770D01*
X+6774190Y+2315210D01*
X+6865630Y+2315210D01*
X+6774190Y+2269490D02*
X+6835150Y+2269490D01*
X+6896110Y+2223770D02*
X+6896110Y+2315210D01*
X+6957070Y+2315210D01*
X+6987550Y+2284730D01*
X+6987550Y+2254250D01*
X+6957070Y+2223770D01*
X+6896110Y+2223770D01*
X+7119630Y+2284730D02*
X+7150110Y+2315210D01*
X+7180590Y+2315210D01*
X+7211070Y+2284730D01*
X+7211070Y+2254250D01*
X+7180590Y+2223770D01*
X+7150110Y+2223770D01*
X+7119630Y+2254250D01*
X+7119630Y+2284730D01*
X+7180590Y+2254250D02*
X+7211070Y+2223770D01*
X+7241550Y+2315210D02*
X+7332990Y+2315210D01*
X+7287270Y+2315210D02*
X+7287270Y+2223770D01*
X+7454910Y+2315210D02*
X+7363470Y+2223770D01*
X+7363470Y+2315210D02*
X+7409190Y+2269490D01*
D25*
X+5195580Y+2078990D02*
X+5195580Y+1951990D01*
X+5132080Y+2015490D02*
X+5259080Y+2015490D01*
D28*
X+5492760Y+1990090D02*
X+5492760Y+2040890D01*
X+5505460Y+2053590D01*
X+5556260Y+2053590D01*
X+5568960Y+2040890D01*
X+5568960Y+1990090D01*
X+5556260Y+1977390D01*
X+5505460Y+1977390D01*
X+5492760Y+1990090D01*
X+5492760Y+1977390D02*
X+5568960Y+2053590D01*
X+5632460Y+1990090D02*
X+5645160Y+1990090D01*
X+5645160Y+1977390D01*
X+5632460Y+1977390D01*
X+5632460Y+1990090D01*
X+5708660Y+2040890D02*
X+5721360Y+2053590D01*
X+5759460Y+2053590D01*
X+5772160Y+2040890D01*
X+5772160Y+2028190D01*
X+5759460Y+2015490D01*
X+5772160Y+2002790D01*
X+5772160Y+1990090D01*
X+5759460Y+1977390D01*
X+5721360Y+1977390D01*
X+5708660Y+1990090D01*
X+5734060Y+2015490D02*
X+5759460Y+2015490D01*
X+5822960Y+2015490D02*
X+5810260Y+2028190D01*
X+5810260Y+2040890D01*
X+5822960Y+2053590D01*
X+5861060Y+2053590D01*
X+5873760Y+2040890D01*
X+5873760Y+2028190D01*
X+5861060Y+2015490D01*
X+5822960Y+2015490D01*
X+5810260Y+2002790D01*
X+5810260Y+1990090D01*
X+5822960Y+1977390D01*
X+5861060Y+1977390D01*
X+5873760Y+1990090D01*
X+5873760Y+2002790D01*
X+5861060Y+2015490D01*
X+5924560Y+2028190D02*
X+5949960Y+2053590D01*
X+5949960Y+1977390D01*
X+6000760Y+1977390D02*
X+6000760Y+2028190D01*
X+6000760Y+2015490D02*
X+6013460Y+2028190D01*
X+6038860Y+2002790D01*
X+6064260Y+2028190D01*
X+6076960Y+2015490D01*
X+6076960Y+1977390D01*
X+6102360Y+1977390D02*
X+6102360Y+2028190D01*
X+6102360Y+2015490D02*
X+6115060Y+2028190D01*
X+6140460Y+2002790D01*
X+6165860Y+2028190D01*
X+6178560Y+2015490D01*
X+6178560Y+1977390D01*
X+6394460Y+2053590D02*
X+6318260Y+1977390D01*
X+6318260Y+2053590D02*
X+6356360Y+2015490D01*
X+6496060Y+1977390D02*
X+6419860Y+1977390D01*
X+6419860Y+2053590D01*
X+6496060Y+2053590D01*
X+6419860Y+2015490D02*
X+6470660Y+2015490D01*
X+6521460Y+1990090D02*
X+6534160Y+1977390D01*
X+6584960Y+1977390D01*
X+6597660Y+1990090D01*
X+6597660Y+2002790D01*
X+6584960Y+2015490D01*
X+6534160Y+2015490D01*
X+6521460Y+2028190D01*
X+6521460Y+2040890D01*
X+6534160Y+2053590D01*
X+6584960Y+2053590D01*
X+6597660Y+2040890D01*
X+7240280Y+2053590D02*
X+7176780Y+2053590D01*
X+7176780Y+2028190D01*
X+7227580Y+2028190D01*
X+7240280Y+2015490D01*
X+7240280Y+1990090D01*
X+7227580Y+1977390D01*
X+7189480Y+1977390D01*
X+7176780Y+1990090D01*
D25*
X+5150679Y+1819091D02*
X+5240481Y+1729289D01*
X+5150679Y+1729289D02*
X+5240481Y+1819091D01*
D28*
X+5492760Y+1748790D02*
X+5492760Y+1799590D01*
X+5505460Y+1812290D01*
X+5556260Y+1812290D01*
X+5568960Y+1799590D01*
X+5568960Y+1748790D01*
X+5556260Y+1736090D01*
X+5505460Y+1736090D01*
X+5492760Y+1748790D01*
X+5492760Y+1736090D02*
X+5568960Y+1812290D01*
X+5632460Y+1748790D02*
X+5645160Y+1748790D01*
X+5645160Y+1736090D01*
X+5632460Y+1736090D01*
X+5632460Y+1748790D01*
X+5708660Y+1812290D02*
X+5772160Y+1812290D01*
X+5772160Y+1799590D01*
X+5708660Y+1736090D01*
X+5810260Y+1799590D02*
X+5822960Y+1812290D01*
X+5861060Y+1812290D01*
X+5873760Y+1799590D01*
X+5873760Y+1786890D01*
X+5861060Y+1774190D01*
X+5873760Y+1761490D01*
X+5873760Y+1748790D01*
X+5861060Y+1736090D01*
X+5822960Y+1736090D01*
X+5810260Y+1748790D01*
X+5835660Y+1774190D02*
X+5861060Y+1774190D01*
X+5911860Y+1812290D02*
X+5975360Y+1812290D01*
X+5975360Y+1799590D01*
X+5911860Y+1736090D01*
X+6000760Y+1736090D02*
X+6000760Y+1786890D01*
X+6000760Y+1774190D02*
X+6013460Y+1786890D01*
X+6038860Y+1761490D01*
X+6064260Y+1786890D01*
X+6076960Y+1774190D01*
X+6076960Y+1736090D01*
X+6102360Y+1736090D02*
X+6102360Y+1786890D01*
X+6102360Y+1774190D02*
X+6115060Y+1786890D01*
X+6140460Y+1761490D01*
X+6165860Y+1786890D01*
X+6178560Y+1774190D01*
X+6178560Y+1736090D01*
X+6394460Y+1812290D02*
X+6318260Y+1736090D01*
X+6318260Y+1812290D02*
X+6356360Y+1774190D01*
X+6496060Y+1736090D02*
X+6419860Y+1736090D01*
X+6419860Y+1812290D01*
X+6496060Y+1812290D01*
X+6419860Y+1774190D02*
X+6470660Y+1774190D01*
X+6521460Y+1748790D02*
X+6534160Y+1736090D01*
X+6584960Y+1736090D01*
X+6597660Y+1748790D01*
X+6597660Y+1761490D01*
X+6584960Y+1774190D01*
X+6534160Y+1774190D01*
X+6521460Y+1786890D01*
X+6521460Y+1799590D01*
X+6534160Y+1812290D01*
X+6584960Y+1812290D01*
X+6597660Y+1799590D01*
X+7240280Y+1799590D02*
X+7227580Y+1812290D01*
X+7189480Y+1812290D01*
X+7176780Y+1799590D01*
X+7176780Y+1748790D01*
X+7189480Y+1736090D01*
X+7227580Y+1736090D01*
X+7240280Y+1748790D01*
X+7240280Y+1761490D01*
X+7227580Y+1774190D01*
X+7176780Y+1774190D01*
D25*
X+5195580Y+1596390D02*
X+5195580Y+1469390D01*
X+5132080Y+1532890D02*
X+5259080Y+1532890D01*
X+5150679Y+1577791D02*
X+5240481Y+1487989D01*
X+5150679Y+1487989D02*
X+5240481Y+1577791D01*
D28*
X+5492760Y+1507490D02*
X+5492760Y+1558290D01*
X+5505460Y+1570990D01*
X+5556260Y+1570990D01*
X+5568960Y+1558290D01*
X+5568960Y+1507490D01*
X+5556260Y+1494790D01*
X+5505460Y+1494790D01*
X+5492760Y+1507490D01*
X+5492760Y+1494790D02*
X+5568960Y+1570990D01*
X+5632460Y+1507490D02*
X+5645160Y+1507490D01*
X+5645160Y+1494790D01*
X+5632460Y+1494790D01*
X+5632460Y+1507490D01*
X+5708660Y+1570990D02*
X+5772160Y+1570990D01*
X+5772160Y+1558290D01*
X+5708660Y+1494790D01*
X+5873760Y+1558290D02*
X+5861060Y+1570990D01*
X+5822960Y+1570990D01*
X+5810260Y+1558290D01*
X+5810260Y+1507490D01*
X+5822960Y+1494790D01*
X+5861060Y+1494790D01*
X+5873760Y+1507490D01*
X+5873760Y+1520190D01*
X+5861060Y+1532890D01*
X+5810260Y+1532890D01*
X+5911860Y+1558290D02*
X+5924560Y+1570990D01*
X+5962660Y+1570990D01*
X+5975360Y+1558290D01*
X+5975360Y+1545590D01*
X+5962660Y+1532890D01*
X+5924560Y+1532890D01*
X+5911860Y+1520190D01*
X+5911860Y+1494790D01*
X+5975360Y+1494790D01*
X+6000760Y+1494790D02*
X+6000760Y+1545590D01*
X+6000760Y+1532890D02*
X+6013460Y+1545590D01*
X+6038860Y+1520190D01*
X+6064260Y+1545590D01*
X+6076960Y+1532890D01*
X+6076960Y+1494790D01*
X+6102360Y+1494790D02*
X+6102360Y+1545590D01*
X+6102360Y+1532890D02*
X+6115060Y+1545590D01*
X+6140460Y+1520190D01*
X+6165860Y+1545590D01*
X+6178560Y+1532890D01*
X+6178560Y+1494790D01*
X+6394460Y+1570990D02*
X+6318260Y+1494790D01*
X+6318260Y+1570990D02*
X+6356360Y+1532890D01*
X+6496060Y+1494790D02*
X+6419860Y+1494790D01*
X+6419860Y+1570990D01*
X+6496060Y+1570990D01*
X+6419860Y+1532890D02*
X+6470660Y+1532890D01*
X+6521460Y+1507490D02*
X+6534160Y+1494790D01*
X+6584960Y+1494790D01*
X+6597660Y+1507490D01*
X+6597660Y+1520190D01*
X+6584960Y+1532890D01*
X+6534160Y+1532890D01*
X+6521460Y+1545590D01*
X+6521460Y+1558290D01*
X+6534160Y+1570990D01*
X+6584960Y+1570990D01*
X+6597660Y+1558290D01*
X+7176780Y+1558290D02*
X+7189480Y+1570990D01*
X+7227580Y+1570990D01*
X+7240280Y+1558290D01*
X+7240280Y+1545590D01*
X+7227580Y+1532890D01*
X+7189480Y+1532890D01*
X+7176780Y+1520190D01*
X+7176780Y+1494790D01*
X+7240280Y+1494790D01*
D25*
X+5259080Y+1291590D02*
X+5258863Y+1296837D01*
X+5257098Y+1307332D01*
X+5253406Y+1317827D01*
X+5247378Y+1328322D01*
X+5238156Y+1338702D01*
X+5227661Y+1346390D01*
X+5217166Y+1351308D01*
X+5206671Y+1354114D01*
X+5196176Y+1355087D01*
X+5195580Y+1355090D01*
X+5132080Y+1291590D02*
X+5132297Y+1296837D01*
X+5134062Y+1307332D01*
X+5137754Y+1317827D01*
X+5143782Y+1328322D01*
X+5153004Y+1338702D01*
X+5163499Y+1346390D01*
X+5173994Y+1351308D01*
X+5184489Y+1354114D01*
X+5194984Y+1355087D01*
X+5195580Y+1355090D01*
X+5132080Y+1291590D02*
X+5132297Y+1286343D01*
X+5134062Y+1275848D01*
X+5137754Y+1265353D01*
X+5143782Y+1254858D01*
X+5153004Y+1244478D01*
X+5163499Y+1236790D01*
X+5173994Y+1231872D01*
X+5184489Y+1229066D01*
X+5194984Y+1228093D01*
X+5195580Y+1228090D01*
X+5259080Y+1291590D02*
X+5258863Y+1286343D01*
X+5257098Y+1275848D01*
X+5253406Y+1265353D01*
X+5247378Y+1254858D01*
X+5238156Y+1244478D01*
X+5227661Y+1236790D01*
X+5217166Y+1231872D01*
X+5206671Y+1229066D01*
X+5196176Y+1228093D01*
X+5195580Y+1228090D01*
X+5195580Y+1355090D02*
X+5195580Y+1228090D01*
X+5132080Y+1291590D02*
X+5259080Y+1291590D01*
D28*
X+5492760Y+1266190D02*
X+5492760Y+1316990D01*
X+5505460Y+1329690D01*
X+5556260Y+1329690D01*
X+5568960Y+1316990D01*
X+5568960Y+1266190D01*
X+5556260Y+1253490D01*
X+5505460Y+1253490D01*
X+5492760Y+1266190D01*
X+5492760Y+1253490D02*
X+5568960Y+1329690D01*
X+5632460Y+1266190D02*
X+5645160Y+1266190D01*
X+5645160Y+1253490D01*
X+5632460Y+1253490D01*
X+5632460Y+1266190D01*
X+5708660Y+1329690D02*
X+5772160Y+1329690D01*
X+5772160Y+1316990D01*
X+5708660Y+1253490D01*
X+5822960Y+1291590D02*
X+5810260Y+1304290D01*
X+5810260Y+1316990D01*
X+5822960Y+1329690D01*
X+5861060Y+1329690D01*
X+5873760Y+1316990D01*
X+5873760Y+1304290D01*
X+5861060Y+1291590D01*
X+5822960Y+1291590D01*
X+5810260Y+1278890D01*
X+5810260Y+1266190D01*
X+5822960Y+1253490D01*
X+5861060Y+1253490D01*
X+5873760Y+1266190D01*
X+5873760Y+1278890D01*
X+5861060Y+1291590D01*
X+5911860Y+1329690D02*
X+5975360Y+1329690D01*
X+5975360Y+1316990D01*
X+5911860Y+1253490D01*
X+6000760Y+1253490D02*
X+6000760Y+1304290D01*
X+6000760Y+1291590D02*
X+6013460Y+1304290D01*
X+6038860Y+1278890D01*
X+6064260Y+1304290D01*
X+6076960Y+1291590D01*
X+6076960Y+1253490D01*
X+6102360Y+1253490D02*
X+6102360Y+1304290D01*
X+6102360Y+1291590D02*
X+6115060Y+1304290D01*
X+6140460Y+1278890D01*
X+6165860Y+1304290D01*
X+6178560Y+1291590D01*
X+6178560Y+1253490D01*
X+6394460Y+1329690D02*
X+6318260Y+1253490D01*
X+6318260Y+1329690D02*
X+6356360Y+1291590D01*
X+6496060Y+1253490D02*
X+6419860Y+1253490D01*
X+6419860Y+1329690D01*
X+6496060Y+1329690D01*
X+6419860Y+1291590D02*
X+6470660Y+1291590D01*
X+6521460Y+1266190D02*
X+6534160Y+1253490D01*
X+6584960Y+1253490D01*
X+6597660Y+1266190D01*
X+6597660Y+1278890D01*
X+6584960Y+1291590D01*
X+6534160Y+1291590D01*
X+6521460Y+1304290D01*
X+6521460Y+1316990D01*
X+6534160Y+1329690D01*
X+6584960Y+1329690D01*
X+6597660Y+1316990D01*
X+7240280Y+1316990D02*
X+7227580Y+1329690D01*
X+7189480Y+1329690D01*
X+7176780Y+1316990D01*
X+7176780Y+1266190D01*
X+7189480Y+1253490D01*
X+7227580Y+1253490D01*
X+7240280Y+1266190D01*
X+7240280Y+1278890D01*
X+7227580Y+1291590D01*
X+7176780Y+1291590D01*
D25*
X+5259080Y+1050290D02*
X+5258863Y+1055537D01*
X+5257098Y+1066032D01*
X+5253406Y+1076527D01*
X+5247378Y+1087022D01*
X+5238156Y+1097402D01*
X+5227661Y+1105090D01*
X+5217166Y+1110008D01*
X+5206671Y+1112814D01*
X+5196176Y+1113787D01*
X+5195580Y+1113790D01*
X+5132080Y+1050290D02*
X+5132297Y+1055537D01*
X+5134062Y+1066032D01*
X+5137754Y+1076527D01*
X+5143782Y+1087022D01*
X+5153004Y+1097402D01*
X+5163499Y+1105090D01*
X+5173994Y+1110008D01*
X+5184489Y+1112814D01*
X+5194984Y+1113787D01*
X+5195580Y+1113790D01*
X+5132080Y+1050290D02*
X+5132297Y+1045043D01*
X+5134062Y+1034548D01*
X+5137754Y+1024053D01*
X+5143782Y+1013558D01*
X+5153004Y+1003178D01*
X+5163499Y+995490D01*
X+5173994Y+990572D01*
X+5184489Y+987766D01*
X+5194984Y+986793D01*
X+5195580Y+986790D01*
X+5259080Y+1050290D02*
X+5258863Y+1045043D01*
X+5257098Y+1034548D01*
X+5253406Y+1024053D01*
X+5247378Y+1013558D01*
X+5238156Y+1003178D01*
X+5227661Y+995490D01*
X+5217166Y+990572D01*
X+5206671Y+987766D01*
X+5196176Y+986793D01*
X+5195580Y+986790D01*
X+5150679Y+1095191D02*
X+5240481Y+1005389D01*
X+5150679Y+1005389D02*
X+5240481Y+1095191D01*
D28*
X+5492760Y+1024890D02*
X+5492760Y+1075690D01*
X+5505460Y+1088390D01*
X+5556260Y+1088390D01*
X+5568960Y+1075690D01*
X+5568960Y+1024890D01*
X+5556260Y+1012190D01*
X+5505460Y+1012190D01*
X+5492760Y+1024890D01*
X+5492760Y+1012190D02*
X+5568960Y+1088390D01*
X+5632460Y+1024890D02*
X+5645160Y+1024890D01*
X+5645160Y+1012190D01*
X+5632460Y+1012190D01*
X+5632460Y+1024890D01*
X+5721360Y+1050290D02*
X+5708660Y+1062990D01*
X+5708660Y+1075690D01*
X+5721360Y+1088390D01*
X+5759460Y+1088390D01*
X+5772160Y+1075690D01*
X+5772160Y+1062990D01*
X+5759460Y+1050290D01*
X+5721360Y+1050290D01*
X+5708660Y+1037590D01*
X+5708660Y+1024890D01*
X+5721360Y+1012190D01*
X+5759460Y+1012190D01*
X+5772160Y+1024890D01*
X+5772160Y+1037590D01*
X+5759460Y+1050290D01*
X+5822960Y+1062990D02*
X+5848360Y+1088390D01*
X+5848360Y+1012190D01*
X+5911860Y+1075690D02*
X+5924560Y+1088390D01*
X+5962660Y+1088390D01*
X+5975360Y+1075690D01*
X+5975360Y+1062990D01*
X+5962660Y+1050290D01*
X+5975360Y+1037590D01*
X+5975360Y+1024890D01*
X+5962660Y+1012190D01*
X+5924560Y+1012190D01*
X+5911860Y+1024890D01*
X+5937260Y+1050290D02*
X+5962660Y+1050290D01*
X+6000760Y+1012190D02*
X+6000760Y+1062990D01*
X+6000760Y+1050290D02*
X+6013460Y+1062990D01*
X+6038860Y+1037590D01*
X+6064260Y+1062990D01*
X+6076960Y+1050290D01*
X+6076960Y+1012190D01*
X+6102360Y+1012190D02*
X+6102360Y+1062990D01*
X+6102360Y+1050290D02*
X+6115060Y+1062990D01*
X+6140460Y+1037590D01*
X+6165860Y+1062990D01*
X+6178560Y+1050290D01*
X+6178560Y+1012190D01*
X+6394460Y+1088390D02*
X+6318260Y+1012190D01*
X+6318260Y+1088390D02*
X+6356360Y+1050290D01*
X+6496060Y+1012190D02*
X+6419860Y+1012190D01*
X+6419860Y+1088390D01*
X+6496060Y+1088390D01*
X+6419860Y+1050290D02*
X+6470660Y+1050290D01*
X+6521460Y+1024890D02*
X+6534160Y+1012190D01*
X+6584960Y+1012190D01*
X+6597660Y+1024890D01*
X+6597660Y+1037590D01*
X+6584960Y+1050290D01*
X+6534160Y+1050290D01*
X+6521460Y+1062990D01*
X+6521460Y+1075690D01*
X+6534160Y+1088390D01*
X+6584960Y+1088390D01*
X+6597660Y+1075690D01*
X+7176780Y+1075690D02*
X+7189480Y+1088390D01*
X+7227580Y+1088390D01*
X+7240280Y+1075690D01*
X+7240280Y+1062990D01*
X+7227580Y+1050290D01*
X+7240280Y+1037590D01*
X+7240280Y+1024890D01*
X+7227580Y+1012190D01*
X+7189480Y+1012190D01*
X+7176780Y+1024890D01*
X+7202180Y+1050290D02*
X+7227580Y+1050290D01*
X+7341880Y+1075690D02*
X+7329180Y+1088390D01*
X+7291080Y+1088390D01*
X+7278380Y+1075690D01*
X+7278380Y+1024890D01*
X+7291080Y+1012190D01*
X+7329180Y+1012190D01*
X+7341880Y+1024890D01*
X+7341880Y+1037590D01*
X+7329180Y+1050290D01*
X+7278380Y+1050290D01*
D25*
X+5259080Y+808990D02*
X+5258863Y+814237D01*
X+5257098Y+824732D01*
X+5253406Y+835227D01*
X+5247378Y+845722D01*
X+5238156Y+856102D01*
X+5227661Y+863790D01*
X+5217166Y+868708D01*
X+5206671Y+871514D01*
X+5196176Y+872487D01*
X+5195580Y+872490D01*
X+5132080Y+808990D02*
X+5132297Y+814237D01*
X+5134062Y+824732D01*
X+5137754Y+835227D01*
X+5143782Y+845722D01*
X+5153004Y+856102D01*
X+5163499Y+863790D01*
X+5173994Y+868708D01*
X+5184489Y+871514D01*
X+5194984Y+872487D01*
X+5195580Y+872490D01*
X+5132080Y+808990D02*
X+5132297Y+803743D01*
X+5134062Y+793248D01*
X+5137754Y+782753D01*
X+5143782Y+772258D01*
X+5153004Y+761878D01*
X+5163499Y+754190D01*
X+5173994Y+749272D01*
X+5184489Y+746466D01*
X+5194984Y+745493D01*
X+5195580Y+745490D01*
X+5259080Y+808990D02*
X+5258863Y+803743D01*
X+5257098Y+793248D01*
X+5253406Y+782753D01*
X+5247378Y+772258D01*
X+5238156Y+761878D01*
X+5227661Y+754190D01*
X+5217166Y+749272D01*
X+5206671Y+746466D01*
X+5196176Y+745493D01*
X+5195580Y+745490D01*
X+5195580Y+872490D02*
X+5195580Y+745490D01*
X+5132080Y+808990D02*
X+5259080Y+808990D01*
X+5258863Y+814237D01*
X+5257098Y+824732D01*
X+5253406Y+835227D01*
X+5247378Y+845722D01*
X+5238156Y+856102D01*
X+5227661Y+863790D01*
X+5217166Y+868708D01*
X+5206671Y+871514D01*
X+5196176Y+872487D01*
X+5195580Y+872490D01*
X+5132080Y+808990D02*
X+5132297Y+814237D01*
X+5134062Y+824732D01*
X+5137754Y+835227D01*
X+5143782Y+845722D01*
X+5153004Y+856102D01*
X+5163499Y+863790D01*
X+5173994Y+868708D01*
X+5184489Y+871514D01*
X+5194984Y+872487D01*
X+5195580Y+872490D01*
X+5132080Y+808990D02*
X+5132297Y+803743D01*
X+5134062Y+793248D01*
X+5137754Y+782753D01*
X+5143782Y+772258D01*
X+5153004Y+761878D01*
X+5163499Y+754190D01*
X+5173994Y+749272D01*
X+5184489Y+746466D01*
X+5194984Y+745493D01*
X+5195580Y+745490D01*
X+5259080Y+808990D02*
X+5258863Y+803743D01*
X+5257098Y+793248D01*
X+5253406Y+782753D01*
X+5247378Y+772258D01*
X+5238156Y+761878D01*
X+5227661Y+754190D01*
X+5217166Y+749272D01*
X+5206671Y+746466D01*
X+5196176Y+745493D01*
X+5195580Y+745490D01*
X+5150679Y+853891D02*
X+5240481Y+764089D01*
X+5150679Y+764089D02*
X+5240481Y+853891D01*
D28*
X+5492760Y+783590D02*
X+5492760Y+834390D01*
X+5505460Y+847090D01*
X+5556260Y+847090D01*
X+5568960Y+834390D01*
X+5568960Y+783590D01*
X+5556260Y+770890D01*
X+5505460Y+770890D01*
X+5492760Y+783590D01*
X+5492760Y+770890D02*
X+5568960Y+847090D01*
X+5632460Y+783590D02*
X+5645160Y+783590D01*
X+5645160Y+770890D01*
X+5632460Y+770890D01*
X+5632460Y+783590D01*
X+5772160Y+821690D02*
X+5759460Y+808990D01*
X+5721360Y+808990D01*
X+5708660Y+821690D01*
X+5708660Y+834390D01*
X+5721360Y+847090D01*
X+5759460Y+847090D01*
X+5772160Y+834390D01*
X+5772160Y+783590D01*
X+5759460Y+770890D01*
X+5721360Y+770890D01*
X+5873760Y+821690D02*
X+5861060Y+808990D01*
X+5822960Y+808990D01*
X+5810260Y+821690D01*
X+5810260Y+834390D01*
X+5822960Y+847090D01*
X+5861060Y+847090D01*
X+5873760Y+834390D01*
X+5873760Y+783590D01*
X+5861060Y+770890D01*
X+5822960Y+770890D01*
X+5924560Y+821690D02*
X+5949960Y+847090D01*
X+5949960Y+770890D01*
X+6000760Y+770890D02*
X+6000760Y+821690D01*
X+6000760Y+808990D02*
X+6013460Y+821690D01*
X+6038860Y+796290D01*
X+6064260Y+821690D01*
X+6076960Y+808990D01*
X+6076960Y+770890D01*
X+6102360Y+770890D02*
X+6102360Y+821690D01*
X+6102360Y+808990D02*
X+6115060Y+821690D01*
X+6140460Y+796290D01*
X+6165860Y+821690D01*
X+6178560Y+808990D01*
X+6178560Y+770890D01*
X+6394460Y+847090D02*
X+6318260Y+770890D01*
X+6318260Y+847090D02*
X+6356360Y+808990D01*
X+6496060Y+770890D02*
X+6419860Y+770890D01*
X+6419860Y+847090D01*
X+6496060Y+847090D01*
X+6419860Y+808990D02*
X+6470660Y+808990D01*
X+6521460Y+783590D02*
X+6534160Y+770890D01*
X+6584960Y+770890D01*
X+6597660Y+783590D01*
X+6597660Y+796290D01*
X+6584960Y+808990D01*
X+6534160Y+808990D01*
X+6521460Y+821690D01*
X+6521460Y+834390D01*
X+6534160Y+847090D01*
X+6584960Y+847090D01*
X+6597660Y+834390D01*
X+7176780Y+834390D02*
X+7189480Y+847090D01*
X+7227580Y+847090D01*
X+7240280Y+834390D01*
X+7240280Y+821690D01*
X+7227580Y+808990D01*
X+7240280Y+796290D01*
X+7240280Y+783590D01*
X+7227580Y+770890D01*
X+7189480Y+770890D01*
X+7176780Y+783590D01*
X+7202180Y+808990D02*
X+7227580Y+808990D01*
X+7265680Y+783590D02*
X+7265680Y+834390D01*
X+7278380Y+847090D01*
X+7329180Y+847090D01*
X+7341880Y+834390D01*
X+7341880Y+783590D01*
X+7329180Y+770890D01*
X+7278380Y+770890D01*
X+7265680Y+783590D01*
X+7265680Y+770890D02*
X+7341880Y+847090D01*
D25*
X+5195580Y+631190D02*
X+5195580Y+504190D01*
X+5132080Y+567690D02*
X+5259080Y+567690D01*
X+5132080Y+504190D02*
X+5259080Y+504190D01*
X+5259080Y+631190D01*
X+5132080Y+631190D01*
X+5132080Y+504190D01*
D28*
X+5518160Y+580390D02*
X+5543560Y+605790D01*
X+5543560Y+529590D01*
X+5632460Y+542290D02*
X+5645160Y+542290D01*
X+5645160Y+529590D01*
X+5632460Y+529590D01*
X+5632460Y+542290D01*
X+5695960Y+542290D02*
X+5695960Y+593090D01*
X+5708660Y+605790D01*
X+5759460Y+605790D01*
X+5772160Y+593090D01*
X+5772160Y+542290D01*
X+5759460Y+529590D01*
X+5708660Y+529590D01*
X+5695960Y+542290D01*
X+5695960Y+529590D02*
X+5772160Y+605790D01*
X+5822960Y+580390D02*
X+5848360Y+605790D01*
X+5848360Y+529590D01*
X+5975360Y+593090D02*
X+5962660Y+605790D01*
X+5924560Y+605790D01*
X+5911860Y+593090D01*
X+5911860Y+542290D01*
X+5924560Y+529590D01*
X+5962660Y+529590D01*
X+5975360Y+542290D01*
X+5975360Y+554990D01*
X+5962660Y+567690D01*
X+5911860Y+567690D01*
X+6000760Y+529590D02*
X+6000760Y+580390D01*
X+6000760Y+567690D02*
X+6013460Y+580390D01*
X+6038860Y+554990D01*
X+6064260Y+580390D01*
X+6076960Y+567690D01*
X+6076960Y+529590D01*
X+6102360Y+529590D02*
X+6102360Y+580390D01*
X+6102360Y+567690D02*
X+6115060Y+580390D01*
X+6140460Y+554990D01*
X+6165860Y+580390D01*
X+6178560Y+567690D01*
X+6178560Y+529590D01*
X+6394460Y+605790D02*
X+6318260Y+529590D01*
X+6318260Y+605790D02*
X+6356360Y+567690D01*
X+6496060Y+529590D02*
X+6419860Y+529590D01*
X+6419860Y+605790D01*
X+6496060Y+605790D01*
X+6419860Y+567690D02*
X+6470660Y+567690D01*
X+6521460Y+542290D02*
X+6534160Y+529590D01*
X+6584960Y+529590D01*
X+6597660Y+542290D01*
X+6597660Y+554990D01*
X+6584960Y+567690D01*
X+6534160Y+567690D01*
X+6521460Y+580390D01*
X+6521460Y+593090D01*
X+6534160Y+605790D01*
X+6584960Y+605790D01*
X+6597660Y+593090D01*
X+7176780Y+593090D02*
X+7189480Y+605790D01*
X+7227580Y+605790D01*
X+7240280Y+593090D01*
X+7240280Y+580390D01*
X+7227580Y+567690D01*
X+7189480Y+567690D01*
X+7176780Y+554990D01*
X+7176780Y+529590D01*
X+7240280Y+529590D01*
D25*
X+5132080Y+262890D02*
X+5259080Y+262890D01*
X+5259080Y+389890D01*
X+5132080Y+389890D01*
X+5132080Y+262890D01*
X+5132080Y+389890D02*
X+5259080Y+262890D01*
X+5132080Y+262890D02*
X+5259080Y+389890D01*
D28*
X+5518160Y+339090D02*
X+5543560Y+364490D01*
X+5543560Y+288290D01*
X+5632460Y+300990D02*
X+5645160Y+300990D01*
X+5645160Y+288290D01*
X+5632460Y+288290D01*
X+5632460Y+300990D01*
X+5708660Y+351790D02*
X+5721360Y+364490D01*
X+5759460Y+364490D01*
X+5772160Y+351790D01*
X+5772160Y+339090D01*
X+5759460Y+326390D01*
X+5721360Y+326390D01*
X+5708660Y+313690D01*
X+5708660Y+288290D01*
X+5772160Y+288290D01*
X+5873760Y+339090D02*
X+5861060Y+326390D01*
X+5822960Y+326390D01*
X+5810260Y+339090D01*
X+5810260Y+351790D01*
X+5822960Y+364490D01*
X+5861060Y+364490D01*
X+5873760Y+351790D01*
X+5873760Y+300990D01*
X+5861060Y+288290D01*
X+5822960Y+288290D01*
X+5899160Y+288290D02*
X+5899160Y+339090D01*
X+5899160Y+326390D02*
X+5911860Y+339090D01*
X+5937260Y+313690D01*
X+5962660Y+339090D01*
X+5975360Y+326390D01*
X+5975360Y+288290D01*
X+6000760Y+288290D02*
X+6000760Y+339090D01*
X+6000760Y+326390D02*
X+6013460Y+339090D01*
X+6038860Y+313690D01*
X+6064260Y+339090D01*
X+6076960Y+326390D01*
X+6076960Y+288290D01*
X+6394460Y+364490D02*
X+6318260Y+288290D01*
X+6318260Y+364490D02*
X+6356360Y+326390D01*
X+6496060Y+288290D02*
X+6419860Y+288290D01*
X+6419860Y+364490D01*
X+6496060Y+364490D01*
X+6419860Y+326390D02*
X+6470660Y+326390D01*
X+6521460Y+300990D02*
X+6534160Y+288290D01*
X+6584960Y+288290D01*
X+6597660Y+300990D01*
X+6597660Y+313690D01*
X+6584960Y+326390D01*
X+6534160Y+326390D01*
X+6521460Y+339090D01*
X+6521460Y+351790D01*
X+6534160Y+364490D01*
X+6584960Y+364490D01*
X+6597660Y+351790D01*
X+7176780Y+351790D02*
X+7189480Y+364490D01*
X+7227580Y+364490D01*
X+7240280Y+351790D01*
X+7240280Y+339090D01*
X+7227580Y+326390D01*
X+7240280Y+313690D01*
X+7240280Y+300990D01*
X+7227580Y+288290D01*
X+7189480Y+288290D01*
X+7176780Y+300990D01*
X+7202180Y+326390D02*
X+7227580Y+326390D01*
D25*
X+5195580Y+148590D02*
X+5195580Y+21590D01*
X+5132080Y+85090D02*
X+5259080Y+85090D01*
X+5132080Y+21590D02*
X+5259080Y+21590D01*
X+5259080Y+148590D01*
X+5132080Y+148590D01*
X+5132080Y+21590D01*
X+5132080Y+148590D02*
X+5259080Y+21590D01*
X+5132080Y+21590D02*
X+5259080Y+148590D01*
D28*
X+5518160Y+97790D02*
X+5543560Y+123190D01*
X+5543560Y+46990D01*
X+5632460Y+59690D02*
X+5645160Y+59690D01*
X+5645160Y+46990D01*
X+5632460Y+46990D01*
X+5632460Y+59690D01*
X+5772160Y+123190D02*
X+5708660Y+123190D01*
X+5708660Y+97790D01*
X+5759460Y+97790D01*
X+5772160Y+85090D01*
X+5772160Y+59690D01*
X+5759460Y+46990D01*
X+5721360Y+46990D01*
X+5708660Y+59690D01*
X+5810260Y+110490D02*
X+5822960Y+123190D01*
X+5861060Y+123190D01*
X+5873760Y+110490D01*
X+5873760Y+97790D01*
X+5861060Y+85090D01*
X+5822960Y+85090D01*
X+5810260Y+72390D01*
X+5810260Y+46990D01*
X+5873760Y+46990D01*
X+5975360Y+72390D02*
X+5899160Y+72390D01*
X+5949960Y+123190D01*
X+5949960Y+46990D01*
X+6000760Y+46990D02*
X+6000760Y+97790D01*
X+6000760Y+85090D02*
X+6013460Y+97790D01*
X+6038860Y+72390D01*
X+6064260Y+97790D01*
X+6076960Y+85090D01*
X+6076960Y+46990D01*
X+6102360Y+46990D02*
X+6102360Y+97790D01*
X+6102360Y+85090D02*
X+6115060Y+97790D01*
X+6140460Y+72390D01*
X+6165860Y+97790D01*
X+6178560Y+85090D01*
X+6178560Y+46990D01*
X+6394460Y+123190D02*
X+6318260Y+46990D01*
X+6318260Y+123190D02*
X+6356360Y+85090D01*
X+6496060Y+46990D02*
X+6419860Y+46990D01*
X+6419860Y+123190D01*
X+6496060Y+123190D01*
X+6419860Y+85090D02*
X+6470660Y+85090D01*
X+6521460Y+59690D02*
X+6534160Y+46990D01*
X+6584960Y+46990D01*
X+6597660Y+59690D01*
X+6597660Y+72390D01*
X+6584960Y+85090D01*
X+6534160Y+85090D01*
X+6521460Y+97790D01*
X+6521460Y+110490D01*
X+6534160Y+123190D01*
X+6584960Y+123190D01*
X+6597660Y+110490D01*
X+7176780Y+110490D02*
X+7189480Y+123190D01*
X+7227580Y+123190D01*
X+7240280Y+110490D01*
X+7240280Y+97790D01*
X+7227580Y+85090D01*
X+7189480Y+85090D01*
X+7176780Y+72390D01*
X+7176780Y+46990D01*
X+7240280Y+46990D01*
D25*
X+5195580Y-246013D02*
X+5285383Y-156210D01*
X+5195580Y-66408D01*
X+5105777Y-156210D01*
X+5195580Y-246013D01*
X+5105777Y-156210D02*
X+5285383Y-156210D01*
X+5195580Y-246013D02*
X+5195580Y-66407D01*
D28*
X+5518160Y-143510D02*
X+5543560Y-118110D01*
X+5543560Y-194310D01*
X+5632460Y-181610D02*
X+5645160Y-181610D01*
X+5645160Y-194310D01*
X+5632460Y-194310D01*
X+5632460Y-181610D01*
X+5772160Y-130810D02*
X+5759460Y-118110D01*
X+5721360Y-118110D01*
X+5708660Y-130810D01*
X+5708660Y-181610D01*
X+5721360Y-194310D01*
X+5759460Y-194310D01*
X+5772160Y-181610D01*
X+5772160Y-168910D01*
X+5759460Y-156210D01*
X+5708660Y-156210D01*
X+5873760Y-118110D02*
X+5810260Y-118110D01*
X+5810260Y-143510D01*
X+5861060Y-143510D01*
X+5873760Y-156210D01*
X+5873760Y-181610D01*
X+5861060Y-194310D01*
X+5822960Y-194310D01*
X+5810260Y-181610D01*
X+5924560Y-143510D02*
X+5949960Y-118110D01*
X+5949960Y-194310D01*
X+6000760Y-194310D02*
X+6000760Y-143510D01*
X+6000760Y-156210D02*
X+6013460Y-143510D01*
X+6038860Y-168910D01*
X+6064260Y-143510D01*
X+6076960Y-156210D01*
X+6076960Y-194310D01*
X+6102360Y-194310D02*
X+6102360Y-143510D01*
X+6102360Y-156210D02*
X+6115060Y-143510D01*
X+6140460Y-168910D01*
X+6165860Y-143510D01*
X+6178560Y-156210D01*
X+6178560Y-194310D01*
X+6318260Y-194310D02*
X+6318260Y-118110D01*
X+6394460Y-194310D01*
X+6394460Y-118110D01*
X+6419860Y-143510D02*
X+6445260Y-118110D01*
X+6470660Y-118110D01*
X+6496060Y-143510D01*
X+6496060Y-168910D01*
X+6470660Y-194310D01*
X+6445260Y-194310D01*
X+6419860Y-168910D01*
X+6419860Y-143510D01*
X+7240280Y-168910D02*
X+7164080Y-168910D01*
X+7214880Y-118110D01*
X+7214880Y-194310D01*
M02*
