G04 PROTEUS RS274X GERBER FILE*
%FSLAX45Y45*%
%MOMM*%
G01*
%ADD26C,0.254000*%
%ADD10C,0.508000*%
%ADD11C,0.762000*%
%ADD27C,1.016000*%
%ADD12R,1.510000X1.510000*%
%ADD13C,1.510000*%
%ADD14C,1.524000*%
%ADD15C,1.397000*%
%ADD16C,0.000000*%
%ADD17C,3.048000*%
%ADD18C,1.778000*%
%ADD19C,1.100000*%
%ADD70R,1.100000X1.100000*%
%ADD71R,1.308100X1.308100*%
%ADD20C,1.308100*%
%ADD21R,1.940000X1.940000*%
%ADD22C,0.254000*%
%ADD23C,1.940000*%
%ADD24R,2.032000X2.032000*%
%ADD25C,0.203200*%
G36*
X+9699000Y+9696636D02*
X+9542087Y+9853549D01*
X+9459876Y+9853549D01*
X+9369455Y+9943970D01*
X+8399190Y+9943970D01*
X+8216489Y+9761269D01*
X+7977759Y+10000000D01*
X+9699000Y+10000000D01*
X+9699000Y+9696636D01*
G37*
G36*
X+5950073Y+9975597D02*
X+5905875Y+9931399D01*
X+5484767Y+9931399D01*
X+5197601Y+9644233D01*
X+5197601Y+9625988D01*
X+5153151Y+9581538D01*
X+5153151Y+9418462D01*
X+5197601Y+9374012D01*
X+5197601Y+8625988D01*
X+5153151Y+8581538D01*
X+5153151Y+8568676D01*
X+5147601Y+8563126D01*
X+5147601Y+8436874D01*
X+5153151Y+8431324D01*
X+5153151Y+8418462D01*
X+5268462Y+8303151D01*
X+5331325Y+8303151D01*
X+5585101Y+8049375D01*
X+5585101Y+7137399D01*
X+5576874Y+7137399D01*
X+5487601Y+7048126D01*
X+5487601Y+7009616D01*
X+5487253Y+7009616D01*
X+5347601Y+6869964D01*
X+5347601Y+6186875D01*
X+5515642Y+6018834D01*
X+5391043Y+5894236D01*
X+5391043Y+5393433D01*
X+5470601Y+5313875D01*
X+5470601Y+5134269D01*
X+5597601Y+5007269D01*
X+5597601Y+4228599D01*
X+5271401Y+4228599D01*
X+5271401Y+3771401D01*
X+5360301Y+3771401D01*
X+5360301Y+3557865D01*
X+5268335Y+3465899D01*
X+5160572Y+3465899D01*
X+5034101Y+3339428D01*
X+5034101Y+3160572D01*
X+5160572Y+3034101D01*
X+5339428Y+3034101D01*
X+5465899Y+3160572D01*
X+5465899Y+3268335D01*
X+5639699Y+3442135D01*
X+5639699Y+3771401D01*
X+5933875Y+3771401D01*
X+5933875Y+3439238D01*
X+5956301Y+3416812D01*
X+5956301Y+3117135D01*
X+6101635Y+2971801D01*
X+8994365Y+2971801D01*
X+9139699Y+3117135D01*
X+9139699Y+3268001D01*
X+9223999Y+3268001D01*
X+9223999Y+3758475D01*
X+9671731Y+4206207D01*
X+9671731Y+5377890D01*
X+9443425Y+5606196D01*
X+9402399Y+5606196D01*
X+9402399Y+6145014D01*
X+9431999Y+6174614D01*
X+9431999Y+6325386D01*
X+9402399Y+6354986D01*
X+9402399Y+6895014D01*
X+9431999Y+6924614D01*
X+9431999Y+6966475D01*
X+9699000Y+7233476D01*
X+9699000Y+2750000D01*
X+5000000Y+2750000D01*
X+5000000Y+10000000D01*
X+5974476Y+10000000D01*
X+5950073Y+9975597D01*
G37*
G36*
X+5897601Y+8706500D02*
X+5889699Y+8714402D01*
X+5889699Y+9361312D01*
X+5897601Y+9369214D01*
X+5897601Y+8706500D01*
G37*
G36*
X+9444430Y+8696849D02*
X+9352399Y+8696849D01*
X+9352399Y+9118601D01*
X+9408279Y+9118601D01*
X+9444430Y+9154752D01*
X+9444430Y+8696849D01*
G37*
G36*
X+8281325Y+8696849D02*
X+8267699Y+8696849D01*
X+8267699Y+8813801D01*
X+8398277Y+8813801D01*
X+8281325Y+8696849D01*
G37*
G36*
X+7924801Y+8696849D02*
X+7902399Y+8696849D01*
X+7902399Y+8893375D01*
X+7924801Y+8915777D01*
X+7924801Y+8696849D01*
G37*
G36*
X+7597601Y+8956500D02*
X+7597601Y+8696849D01*
X+7569199Y+8696849D01*
X+7569199Y+8971635D01*
X+7597601Y+9000037D01*
X+7597601Y+8956500D01*
G37*
G36*
X+7226301Y+9276135D02*
X+7226301Y+8696849D01*
X+7152399Y+8696849D01*
X+7152399Y+9303151D01*
X+7199285Y+9303151D01*
X+7226301Y+9276135D01*
G37*
G36*
X+6464301Y+9288135D02*
X+6464301Y+8696849D01*
X+6402399Y+8696849D01*
X+6402399Y+9303151D01*
X+6449285Y+9303151D01*
X+6464301Y+9288135D01*
G37*
G36*
X+7924801Y+8204199D02*
X+7851763Y+8204199D01*
X+7924801Y+8277237D01*
X+7924801Y+8204199D01*
G37*
G36*
X+8845738Y+8083738D02*
X+8872622Y+8056854D01*
X+8839699Y+8023932D01*
X+8839699Y+8089777D01*
X+8845738Y+8083738D01*
G37*
G36*
X+6168462Y+8303151D02*
X+6310301Y+8303151D01*
X+6310301Y+7927902D01*
X+6091756Y+8146447D01*
X+6091756Y+8303151D01*
X+6131538Y+8303151D01*
X+6150000Y+8321613D01*
X+6168462Y+8303151D01*
G37*
G36*
X+8560301Y+7823199D02*
X+8266081Y+7823199D01*
X+8452399Y+8009517D01*
X+8452399Y+8303151D01*
X+8560301Y+8303151D01*
X+8560301Y+7823199D01*
G37*
G36*
X+6619112Y+7740480D02*
X+6589699Y+7711066D01*
X+6589699Y+7769893D01*
X+6619112Y+7740480D01*
G37*
G36*
X+7060301Y+7694419D02*
X+6779119Y+7975601D01*
X+7060301Y+7975601D01*
X+7060301Y+7694419D01*
G37*
G36*
X+8046801Y+7475832D02*
X+8054028Y+7468605D01*
X+8000141Y+7414718D01*
X+8000141Y+7543801D01*
X+8046801Y+7543801D01*
X+8046801Y+7475832D01*
G37*
G36*
X+9444430Y+7409954D02*
X+9216475Y+7181999D01*
X+8818001Y+7181999D01*
X+8818001Y+7139699D01*
X+8613865Y+7139699D01*
X+8468587Y+7284977D01*
X+8520773Y+7284977D01*
X+8932559Y+7696763D01*
X+8932559Y+7721664D01*
X+9403332Y+8192437D01*
X+9403332Y+8303151D01*
X+9444430Y+8303151D01*
X+9444430Y+7409954D01*
G37*
G36*
X+6072682Y+7629643D02*
X+6099654Y+7602671D01*
X+6099654Y+6902399D01*
X+5979986Y+6902399D01*
X+5950386Y+6931999D01*
X+5908526Y+6931999D01*
X+5880524Y+6960000D01*
X+5889899Y+6969375D01*
X+5889899Y+7812426D01*
X+6072682Y+7629643D01*
G37*
G36*
X+9097601Y+6431999D02*
X+8818001Y+6431999D01*
X+8818001Y+6389699D01*
X+8601865Y+6389699D01*
X+8452499Y+6539065D01*
X+8452499Y+6627878D01*
X+8409377Y+6671000D01*
X+8452499Y+6714122D01*
X+8452499Y+6737937D01*
X+9097601Y+6737937D01*
X+9097601Y+6431999D01*
G37*
G36*
X+5712661Y+6464775D02*
X+5753578Y+6423858D01*
X+6036656Y+6423858D01*
X+6036656Y+5679248D01*
X+6029399Y+5686505D01*
X+6029399Y+5866111D01*
X+5909260Y+5986250D01*
X+5929767Y+6035757D01*
X+5652399Y+6313125D01*
X+5652399Y+6525037D01*
X+5712661Y+6464775D01*
G37*
G36*
X+8445218Y+6151218D02*
X+8486135Y+6110301D01*
X+8818001Y+6110301D01*
X+8818001Y+6068001D01*
X+8860301Y+6068001D01*
X+8860301Y+5484384D01*
X+8849616Y+5473699D01*
X+8452499Y+5473699D01*
X+8452499Y+5611878D01*
X+8409377Y+5655000D01*
X+8452499Y+5698122D01*
X+8452499Y+5865878D01*
X+8409377Y+5909000D01*
X+8452499Y+5952122D01*
X+8452499Y+6119878D01*
X+8409377Y+6163000D01*
X+8421406Y+6175030D01*
X+8445218Y+6151218D01*
G37*
G36*
X+9057596Y+5079696D02*
X+9057596Y+5034877D01*
X+9054999Y+5034877D01*
X+8942404Y+4922282D01*
X+8942404Y+5079696D01*
X+8922100Y+5100000D01*
X+8942404Y+5120304D01*
X+8942404Y+5167086D01*
X+9057596Y+5167086D01*
X+9057596Y+5079696D01*
G37*
G36*
X+8937738Y+4884362D02*
X+8922100Y+4900000D01*
X+8937738Y+4915638D01*
X+8937738Y+4884362D01*
G37*
G36*
X+5933875Y+4228599D02*
X+5902399Y+4228599D01*
X+5902399Y+5007269D01*
X+5933875Y+5038745D01*
X+5933875Y+4228599D01*
G37*
G36*
X+6479135Y+4372301D02*
X+6553924Y+4372301D01*
X+6523501Y+4341878D01*
X+6523501Y+4225698D01*
X+6470176Y+4279023D01*
X+6470176Y+4381260D01*
X+6479135Y+4372301D01*
G37*
G36*
X+8557596Y+5120304D02*
X+8577900Y+5100000D01*
X+8557596Y+5079696D01*
X+8557596Y+4920304D01*
X+8577900Y+4900000D01*
X+8557596Y+4879696D01*
X+8557596Y+4720304D01*
X+8670304Y+4607596D01*
X+8829696Y+4607596D01*
X+8937738Y+4715638D01*
X+8937738Y+4653339D01*
X+8412388Y+4127989D01*
X+8409377Y+4131000D01*
X+8452499Y+4174122D01*
X+8452499Y+4341878D01*
X+8409377Y+4385000D01*
X+8452499Y+4428122D01*
X+8452499Y+4595878D01*
X+8409377Y+4639000D01*
X+8452499Y+4682122D01*
X+8452499Y+4849878D01*
X+8409377Y+4893000D01*
X+8452499Y+4936122D01*
X+8452499Y+5079935D01*
X+8539650Y+5167086D01*
X+8557596Y+5167086D01*
X+8557596Y+5120304D01*
G37*
G36*
X+7602134Y+4030163D02*
X+7148727Y+4030163D01*
X+7188199Y+4069635D01*
X+7188199Y+4880301D01*
X+7554365Y+4880301D01*
X+7602134Y+4928070D01*
X+7602134Y+4030163D01*
G37*
G36*
X+8047501Y+3754935D02*
X+8047501Y+3753343D01*
X+7947907Y+3753343D01*
X+7998500Y+3803936D01*
X+8047501Y+3754935D01*
G37*
G36*
X+6434173Y+3760092D02*
X+6455561Y+3738704D01*
X+6439177Y+3738704D01*
X+6316054Y+3861827D01*
X+6316054Y+3878211D01*
X+6434173Y+3760092D01*
G37*
G36*
X+8860301Y+3251199D02*
X+8838763Y+3251199D01*
X+8843199Y+3255635D01*
X+8843199Y+3268001D01*
X+8860301Y+3268001D01*
X+8860301Y+3251199D01*
G37*
D26*
X+6726000Y+6036000D02*
X+6858000Y+6036000D01*
X+6921500Y+6099500D01*
X+6921500Y+7635656D01*
X+6604000Y+7953156D01*
X+6604000Y+9346000D01*
X+6450000Y+9500000D01*
X+7200000Y+9500000D02*
X+7366000Y+9334000D01*
X+7366000Y+5905500D01*
X+7242500Y+5782000D01*
X+6726000Y+5782000D01*
X+7900000Y+9500000D02*
X+7429500Y+9029500D01*
X+7429500Y+5651500D01*
X+7306000Y+5528000D01*
X+6726000Y+5528000D01*
X+8650000Y+9500000D02*
X+8650000Y+9207500D01*
X+8523648Y+9081148D01*
X+8128000Y+9081148D01*
X+8064500Y+9017648D01*
X+8064500Y+8128000D01*
X+8001000Y+8064500D01*
X+7620000Y+8064500D01*
X+7556500Y+8001000D01*
X+7556500Y+5397500D01*
X+7433000Y+5274000D01*
X+6726000Y+5274000D01*
X+6450000Y+8500000D02*
X+6450000Y+6477000D01*
X+6513500Y+6413500D01*
X+6794500Y+6413500D01*
X+6858000Y+6350000D01*
X+6858000Y+6223000D01*
X+6794500Y+6159500D01*
X+6477000Y+6159500D01*
X+6413500Y+6096000D01*
X+6413500Y+4635500D01*
X+6537000Y+4512000D01*
X+6726000Y+4512000D01*
X+7200000Y+8500000D02*
X+7200000Y+5969000D01*
X+7136500Y+5905500D01*
X+6604000Y+5905500D01*
X+6540500Y+5842000D01*
X+6540500Y+4699000D01*
X+6604000Y+4635500D01*
X+6794500Y+4635500D01*
X+6858000Y+4572000D01*
X+6858000Y+4390000D01*
X+6726000Y+4258000D01*
X+7950000Y+8500000D02*
X+7736918Y+8286918D01*
X+7556500Y+8286918D01*
X+7493000Y+8223418D01*
X+7493000Y+5461000D01*
X+7429500Y+5397500D01*
X+6667500Y+5397500D01*
X+6604000Y+5334000D01*
X+6604000Y+4953000D01*
X+6667500Y+4889500D01*
X+6985000Y+4889500D01*
X+7048500Y+4826000D01*
X+7048500Y+4127500D01*
X+6925000Y+4004000D01*
X+6726000Y+4004000D01*
X+6726000Y+3750000D02*
X+7747000Y+3750000D01*
X+7860442Y+3863442D01*
X+7860442Y+7620000D01*
X+7923942Y+7683500D01*
X+8636000Y+7683500D01*
X+8700000Y+7747500D01*
X+8700000Y+8500000D01*
X+9250000Y+4800001D02*
X+9250000Y+4800000D01*
X+8250000Y+7306000D02*
X+8128000Y+7184000D01*
X+8128000Y+5207000D01*
X+8191500Y+5143500D01*
D10*
X+7000000Y+8500000D02*
X+7000000Y+8128000D01*
X+6794500Y+8128000D01*
X+6667500Y+8255000D01*
X+6667500Y+9560124D01*
X+6604000Y+9623624D01*
X+7000000Y+8500000D02*
X+7000000Y+9500000D01*
X+6250000Y+9500000D02*
X+6250000Y+8500000D01*
X+8128000Y+9334500D02*
X+7750000Y+8956500D01*
X+7750000Y+8500000D01*
X+8450000Y+9500000D02*
X+8450000Y+9271000D01*
X+8191500Y+9271000D01*
X+8128000Y+9334500D01*
X+6250000Y+9500000D02*
X+6373624Y+9623624D01*
X+6604000Y+9623624D01*
X+7700000Y+9500000D02*
X+7446433Y+9753567D01*
X+6733943Y+9753567D01*
X+6604000Y+9623624D01*
X+7700000Y+9500000D02*
X+7852000Y+9652000D01*
X+8001000Y+9652000D01*
X+8128000Y+9525000D01*
X+8128000Y+9334500D01*
X+6800000Y+9500000D02*
X+6800000Y+8500000D01*
X+7422132Y+9867835D02*
X+6057835Y+9867835D01*
X+5969000Y+9779000D01*
X+6050000Y+9500000D02*
X+6050000Y+9698000D01*
X+5969000Y+9779000D01*
X+6050000Y+9500000D02*
X+6050000Y+8500000D01*
X+6800000Y+9500000D02*
X+6952000Y+9652000D01*
X+7348000Y+9652000D01*
X+7500000Y+9500000D01*
X+7556500Y+9864263D02*
X+7810500Y+9864263D01*
X+7422132Y+9867835D02*
X+7422132Y+9864263D01*
X+7556500Y+9864263D01*
X+6800000Y+8500000D02*
X+6905332Y+8394668D01*
X+6919032Y+8394668D01*
X+6906387Y+8407313D01*
X+6896862Y+8407313D01*
X+8250000Y+9512234D02*
X+8250000Y+9500000D01*
X+7897971Y+9864263D02*
X+7810500Y+9864263D01*
D26*
X+9000000Y+4000000D02*
X+8703500Y+3703500D01*
X+8703500Y+3313500D01*
X+8640000Y+3250000D01*
X+6266000Y+3250000D01*
X+9250000Y+4800000D02*
X+9250000Y+4635500D01*
X+8640000Y+4025500D01*
X+8640000Y+3365500D01*
X+8576500Y+3302000D01*
X+6413500Y+3302000D01*
X+6286500Y+3429000D01*
X+6159500Y+3429000D01*
X+6096000Y+3365500D01*
X+6096000Y+3175000D01*
X+6159500Y+3111500D01*
X+8936500Y+3111500D01*
X+9000000Y+3175000D01*
X+9000000Y+3492000D01*
D10*
X+5875000Y+6750000D02*
X+6264597Y+6750000D01*
X+6266856Y+6752259D01*
X+6266856Y+4142933D01*
X+6541935Y+3867854D01*
X+6642387Y+3867854D01*
X+6652297Y+3877764D01*
X+7751798Y+3877764D01*
X+7754533Y+3875029D01*
X+7754533Y+7606101D01*
X+8012738Y+7864306D01*
X+8091664Y+7864306D01*
X+8300000Y+8072642D01*
X+8300000Y+8500000D01*
D26*
X+5625000Y+6750000D02*
X+5811443Y+6563557D01*
X+6176355Y+6563557D01*
X+6176355Y+3803962D01*
X+6381312Y+3599005D01*
X+6674108Y+3599005D01*
X+6688747Y+3613644D01*
X+8291801Y+3613644D01*
X+8365000Y+3686843D01*
X+8365000Y+3796993D01*
X+8271510Y+3890483D01*
X+8197960Y+3890483D01*
X+8131200Y+3957243D01*
X+8131200Y+5083200D01*
X+8191500Y+5143500D01*
X+8318500Y+5143500D01*
X+8481785Y+5306785D01*
X+9340315Y+5306785D01*
X+9354500Y+5292600D01*
X+9354500Y+4904501D01*
X+9354500Y+4904500D01*
X+9250000Y+4800000D01*
X+9354500Y+4904500D01*
X+9354500Y+4904501D01*
X+9402000Y+4952001D01*
X+9402000Y+5270500D01*
X+9338500Y+5334000D01*
X+8509000Y+5334000D01*
X+8481785Y+5306785D01*
D10*
X+5875000Y+6750000D02*
X+5767783Y+6857217D01*
X+5640000Y+6985000D01*
X+5767783Y+6857217D02*
X+5550378Y+6857217D01*
X+5500000Y+6806839D01*
X+5500000Y+6250000D01*
X+5750000Y+6000000D01*
X+5712331Y+6000000D01*
X+5543442Y+5831111D01*
X+5543442Y+5456558D01*
X+5750000Y+5250000D01*
X+5750000Y+5750380D02*
X+6086274Y+5414106D01*
X+6086274Y+3502363D01*
X+6536664Y+3502363D01*
X+6673563Y+3365464D01*
X+8533422Y+3365464D01*
X+8545523Y+3377565D01*
X+8545523Y+4045600D01*
X+8574887Y+4074964D01*
X+9065360Y+4565437D01*
X+9090137Y+4565437D01*
X+9090137Y+4854491D01*
X+9118124Y+4882478D01*
X+9154830Y+4882478D01*
X+9250000Y+4977648D01*
X+9250000Y+5000000D01*
D26*
X+5500000Y+4000000D02*
X+5500000Y+3500000D01*
X+5250000Y+3250000D01*
D10*
X+5750000Y+5250000D02*
X+5750000Y+4004000D01*
X+5754000Y+4000000D01*
X+5969000Y+9779000D02*
X+5969000Y+9581000D01*
X+6050000Y+9500000D01*
X+6165309Y+9698922D02*
X+6165309Y+9584691D01*
X+6250000Y+9500000D01*
X+5350000Y+9500000D02*
X+5350000Y+9581108D01*
X+5547892Y+9779000D01*
X+5969000Y+9779000D01*
X+5550000Y+9500000D02*
X+5723559Y+9673559D01*
X+5880156Y+9673559D01*
X+5350000Y+8500000D02*
X+5737500Y+8112500D01*
X+5737500Y+7032500D01*
X+5690000Y+6985000D01*
X+5640000Y+6985000D01*
X+5350000Y+9500000D02*
X+5350000Y+8500000D01*
X+5300000Y+8500000D01*
D26*
X+5750000Y+8500000D02*
X+5750000Y+8192758D01*
X+5821365Y+8121393D01*
X+5821365Y+8078524D01*
X+6171464Y+7728425D01*
X+6239353Y+7728425D01*
X+6239353Y+6939580D01*
X+6330477Y+6848456D01*
X+6330477Y+4221158D01*
X+6500885Y+4050750D01*
X+6608513Y+4050750D01*
X+6702225Y+4144462D01*
X+6777564Y+4144462D01*
X+6909868Y+4276766D01*
X+6909868Y+4601779D01*
X+6745647Y+4766000D01*
X+6726000Y+4766000D01*
D10*
X+5550000Y+9500000D02*
X+5600000Y+9500000D01*
X+5600000Y+8500000D01*
X+5550000Y+8500000D01*
X+5350000Y+9500000D02*
X+5400000Y+9500000D01*
X+5400000Y+8500000D01*
X+5350000Y+8500000D01*
D26*
X+5750000Y+9500000D02*
X+5750000Y+8656537D01*
X+5952057Y+8454480D01*
X+5952057Y+8088582D01*
X+6399214Y+7641425D01*
X+6399214Y+6452645D01*
X+6561859Y+6290000D01*
X+6726000Y+6290000D01*
X+9400000Y+9500000D02*
X+9248000Y+9652000D01*
X+8826500Y+9652000D01*
X+8763000Y+9588500D01*
X+8763000Y+9017000D01*
X+8699500Y+8953500D01*
X+8191500Y+8953500D01*
X+8128000Y+8890000D01*
X+8128000Y+8001000D01*
X+8054727Y+7927727D01*
X+7683500Y+7927727D01*
X+7620000Y+7864227D01*
X+7620000Y+5143500D01*
X+7496500Y+5020000D01*
X+6726000Y+5020000D01*
D10*
X+8840000Y+8826500D02*
X+9000000Y+8986500D01*
X+9000000Y+9500000D01*
X+8300000Y+8500000D02*
X+8626500Y+8826500D01*
X+8840000Y+8826500D01*
X+9200000Y+8500000D02*
X+9200000Y+9186500D01*
X+9284500Y+9271000D01*
X+9200000Y+8500000D02*
X+9200000Y+8361000D01*
X+9030500Y+8191500D01*
X+8953500Y+8191500D01*
X+8826500Y+8318500D01*
X+8826500Y+8636000D01*
X+8569850Y+8636000D01*
X+8500000Y+8566150D01*
X+8500000Y+8500000D01*
X+8890000Y+8826500D02*
X+8840000Y+8826500D01*
X+9000000Y+8666500D01*
X+9000000Y+8500000D01*
X+8450000Y+9500000D02*
X+8665471Y+9715471D01*
X+9274687Y+9715471D01*
X+9317535Y+9672623D01*
X+9317535Y+9672249D01*
X+9364762Y+9625022D01*
X+9447389Y+9625022D01*
X+9520639Y+9551772D01*
X+9520639Y+9446485D01*
X+9345154Y+9271000D01*
X+9284500Y+9271000D01*
X+9200000Y+9355500D01*
X+9200000Y+9500000D01*
D26*
X+9400000Y+8500000D02*
X+9263633Y+8363633D01*
X+9263633Y+8250302D01*
X+8792860Y+7779529D01*
X+8792860Y+7754628D01*
X+8462908Y+7424676D01*
X+8207663Y+7424676D01*
X+8076124Y+7293137D01*
X+8076124Y+3923876D01*
X+8250000Y+3750000D01*
X+9000000Y+6250000D02*
X+9000000Y+5426519D01*
X+8961284Y+5387803D01*
X+9356506Y+5387803D01*
X+9455877Y+5288432D01*
X+9455877Y+4455877D01*
X+9000000Y+4000000D01*
X+9000000Y+6250000D02*
X+8544000Y+6250000D01*
X+8250000Y+6544000D01*
X+9000000Y+7000000D02*
X+8556000Y+7000000D01*
X+8250000Y+7306000D01*
D10*
X+9250000Y+7000000D02*
X+9250000Y+6250000D01*
X+9250000Y+5476225D01*
X+9227572Y+5453797D01*
X+9380300Y+5453797D01*
X+9519332Y+5314765D01*
X+9519332Y+4269332D01*
X+9500000Y+4250000D01*
X+9000000Y+3750000D01*
X+9000000Y+3746000D01*
X+8250000Y+9500000D02*
X+8210372Y+9539628D01*
X+8216489Y+9545745D01*
X+8462315Y+9791571D01*
X+9306330Y+9791571D01*
X+9396751Y+9701150D01*
X+9478962Y+9701150D01*
X+9596829Y+9583283D01*
X+9596829Y+7346829D01*
X+9250000Y+7000000D01*
X+8250000Y+9512234D02*
X+8216489Y+9545745D01*
X+7897971Y+9864263D01*
X+9250000Y+7000000D02*
X+9140336Y+6890336D01*
X+8411664Y+6890336D01*
X+8250000Y+7052000D01*
D11*
X+6896862Y+8407313D03*
X+6800000Y+8500000D03*
X+7422132Y+9867835D03*
X+5880156Y+9673559D03*
X+6165309Y+9698922D03*
D27*
X+9699000Y+9696636D02*
X+9542087Y+9853549D01*
X+9459876Y+9853549D01*
X+9369455Y+9943970D01*
X+8399190Y+9943970D01*
X+8216489Y+9761269D01*
X+7977759Y+10000000D01*
X+9699000Y+10000000D01*
X+9699000Y+9696636D01*
X+5950073Y+9975597D02*
X+5905875Y+9931399D01*
X+5484767Y+9931399D01*
X+5197601Y+9644233D01*
X+5197601Y+9625988D01*
X+5153151Y+9581538D01*
X+5153151Y+9418462D01*
X+5197601Y+9374012D01*
X+5197601Y+8625988D01*
X+5153151Y+8581538D01*
X+5153151Y+8568676D01*
X+5147601Y+8563126D01*
X+5147601Y+8436874D01*
X+5153151Y+8431324D01*
X+5153151Y+8418462D01*
X+5268462Y+8303151D01*
X+5331325Y+8303151D01*
X+5585101Y+8049375D01*
X+5585101Y+7137399D01*
X+5576874Y+7137399D01*
X+5487601Y+7048126D01*
X+5487601Y+7009616D01*
X+5487253Y+7009616D01*
X+5347601Y+6869964D01*
X+5347601Y+6186875D01*
X+5515642Y+6018834D01*
X+5391043Y+5894236D01*
X+5391043Y+5393433D01*
X+5470601Y+5313875D01*
X+5470601Y+5134269D01*
X+5597601Y+5007269D01*
X+5597601Y+4228599D01*
X+5271401Y+4228599D01*
X+5271401Y+3771401D01*
X+5360301Y+3771401D01*
X+5360301Y+3557865D01*
X+5268335Y+3465899D01*
X+5160572Y+3465899D01*
X+5034101Y+3339428D01*
X+5034101Y+3160572D01*
X+5160572Y+3034101D01*
X+5339428Y+3034101D01*
X+5465899Y+3160572D01*
X+5465899Y+3268335D01*
X+5639699Y+3442135D01*
X+5639699Y+3771401D01*
X+5933875Y+3771401D01*
X+5933875Y+3439238D01*
X+5956301Y+3416812D01*
X+5956301Y+3117135D01*
X+6101635Y+2971801D01*
X+8994365Y+2971801D01*
X+9139699Y+3117135D01*
X+9139699Y+3268001D01*
X+9223999Y+3268001D01*
X+9223999Y+3758475D01*
X+9671731Y+4206207D01*
X+9671731Y+5377890D01*
X+9443425Y+5606196D01*
X+9402399Y+5606196D01*
X+9402399Y+6145014D01*
X+9431999Y+6174614D01*
X+9431999Y+6325386D01*
X+9402399Y+6354986D01*
X+9402399Y+6895014D01*
X+9431999Y+6924614D01*
X+9431999Y+6966475D01*
X+9699000Y+7233476D01*
X+9699000Y+2750000D01*
X+5000000Y+2750000D01*
X+5000000Y+10000000D01*
X+5974476Y+10000000D01*
X+5950073Y+9975597D01*
X+5897601Y+8706500D02*
X+5889699Y+8714402D01*
X+5889699Y+9361312D01*
X+5897601Y+9369214D01*
X+5897601Y+8706500D01*
X+9444430Y+8696849D02*
X+9352399Y+8696849D01*
X+9352399Y+9118601D01*
X+9408279Y+9118601D01*
X+9444430Y+9154752D01*
X+9444430Y+8696849D01*
X+8281325Y+8696849D02*
X+8267699Y+8696849D01*
X+8267699Y+8813801D01*
X+8398277Y+8813801D01*
X+8281325Y+8696849D01*
X+7924801Y+8696849D02*
X+7902399Y+8696849D01*
X+7902399Y+8893375D01*
X+7924801Y+8915777D01*
X+7924801Y+8696849D01*
X+7597601Y+8956500D02*
X+7597601Y+8696849D01*
X+7569199Y+8696849D01*
X+7569199Y+8971635D01*
X+7597601Y+9000037D01*
X+7597601Y+8956500D01*
X+7226301Y+9276135D02*
X+7226301Y+8696849D01*
X+7152399Y+8696849D01*
X+7152399Y+9303151D01*
X+7199285Y+9303151D01*
X+7226301Y+9276135D01*
X+6464301Y+9288135D02*
X+6464301Y+8696849D01*
X+6402399Y+8696849D01*
X+6402399Y+9303151D01*
X+6449285Y+9303151D01*
X+6464301Y+9288135D01*
X+7924801Y+8204199D02*
X+7851763Y+8204199D01*
X+7924801Y+8277237D01*
X+7924801Y+8204199D01*
X+8845738Y+8083738D02*
X+8872622Y+8056854D01*
X+8839699Y+8023932D01*
X+8839699Y+8089777D01*
X+8845738Y+8083738D01*
X+6168462Y+8303151D02*
X+6310301Y+8303151D01*
X+6310301Y+7927902D01*
X+6091756Y+8146447D01*
X+6091756Y+8303151D01*
X+6131538Y+8303151D01*
X+6150000Y+8321613D01*
X+6168462Y+8303151D01*
X+8560301Y+7823199D02*
X+8266081Y+7823199D01*
X+8452399Y+8009517D01*
X+8452399Y+8303151D01*
X+8560301Y+8303151D01*
X+8560301Y+7823199D01*
X+6619112Y+7740480D02*
X+6589699Y+7711066D01*
X+6589699Y+7769893D01*
X+6619112Y+7740480D01*
X+7060301Y+7694419D02*
X+6779119Y+7975601D01*
X+7060301Y+7975601D01*
X+7060301Y+7694419D01*
X+8046801Y+7475832D02*
X+8054028Y+7468605D01*
X+8000141Y+7414718D01*
X+8000141Y+7543801D01*
X+8046801Y+7543801D01*
X+8046801Y+7475832D01*
X+9444430Y+7409954D02*
X+9216475Y+7181999D01*
X+8818001Y+7181999D01*
X+8818001Y+7139699D01*
X+8613865Y+7139699D01*
X+8468587Y+7284977D01*
X+8520773Y+7284977D01*
X+8932559Y+7696763D01*
X+8932559Y+7721664D01*
X+9403332Y+8192437D01*
X+9403332Y+8303151D01*
X+9444430Y+8303151D01*
X+9444430Y+7409954D01*
X+6072682Y+7629643D02*
X+6099654Y+7602671D01*
X+6099654Y+6902399D01*
X+5979986Y+6902399D01*
X+5950386Y+6931999D01*
X+5908526Y+6931999D01*
X+5880524Y+6960000D01*
X+5889899Y+6969375D01*
X+5889899Y+7812426D01*
X+6072682Y+7629643D01*
X+9097601Y+6431999D02*
X+8818001Y+6431999D01*
X+8818001Y+6389699D01*
X+8601865Y+6389699D01*
X+8452499Y+6539065D01*
X+8452499Y+6627878D01*
X+8409377Y+6671000D01*
X+8452499Y+6714122D01*
X+8452499Y+6737937D01*
X+9097601Y+6737937D01*
X+9097601Y+6431999D01*
X+5712661Y+6464775D02*
X+5753578Y+6423858D01*
X+6036656Y+6423858D01*
X+6036656Y+5679248D01*
X+6029399Y+5686505D01*
X+6029399Y+5866111D01*
X+5909260Y+5986250D01*
X+5929767Y+6035757D01*
X+5652399Y+6313125D01*
X+5652399Y+6525037D01*
X+5712661Y+6464775D01*
X+8445218Y+6151218D02*
X+8486135Y+6110301D01*
X+8818001Y+6110301D01*
X+8818001Y+6068001D01*
X+8860301Y+6068001D01*
X+8860301Y+5484384D01*
X+8849616Y+5473699D01*
X+8452499Y+5473699D01*
X+8452499Y+5611878D01*
X+8409377Y+5655000D01*
X+8452499Y+5698122D01*
X+8452499Y+5865878D01*
X+8409377Y+5909000D01*
X+8452499Y+5952122D01*
X+8452499Y+6119878D01*
X+8409377Y+6163000D01*
X+8421406Y+6175030D01*
X+8445218Y+6151218D01*
X+9057596Y+5079696D02*
X+9057596Y+5034877D01*
X+9054999Y+5034877D01*
X+8942404Y+4922282D01*
X+8942404Y+5079696D01*
X+8922100Y+5100000D01*
X+8942404Y+5120304D01*
X+8942404Y+5167086D01*
X+9057596Y+5167086D01*
X+9057596Y+5079696D01*
X+8937738Y+4884362D02*
X+8922100Y+4900000D01*
X+8937738Y+4915638D01*
X+8937738Y+4884362D01*
X+5933875Y+4228599D02*
X+5902399Y+4228599D01*
X+5902399Y+5007269D01*
X+5933875Y+5038745D01*
X+5933875Y+4228599D01*
X+6479135Y+4372301D02*
X+6553924Y+4372301D01*
X+6523501Y+4341878D01*
X+6523501Y+4225698D01*
X+6470176Y+4279023D01*
X+6470176Y+4381260D01*
X+6479135Y+4372301D01*
X+8557596Y+5120304D02*
X+8577900Y+5100000D01*
X+8557596Y+5079696D01*
X+8557596Y+4920304D01*
X+8577900Y+4900000D01*
X+8557596Y+4879696D01*
X+8557596Y+4720304D01*
X+8670304Y+4607596D01*
X+8829696Y+4607596D01*
X+8937738Y+4715638D01*
X+8937738Y+4653339D01*
X+8412388Y+4127989D01*
X+8409377Y+4131000D01*
X+8452499Y+4174122D01*
X+8452499Y+4341878D01*
X+8409377Y+4385000D01*
X+8452499Y+4428122D01*
X+8452499Y+4595878D01*
X+8409377Y+4639000D01*
X+8452499Y+4682122D01*
X+8452499Y+4849878D01*
X+8409377Y+4893000D01*
X+8452499Y+4936122D01*
X+8452499Y+5079935D01*
X+8539650Y+5167086D01*
X+8557596Y+5167086D01*
X+8557596Y+5120304D01*
X+7602134Y+4030163D02*
X+7148727Y+4030163D01*
X+7188199Y+4069635D01*
X+7188199Y+4880301D01*
X+7554365Y+4880301D01*
X+7602134Y+4928070D01*
X+7602134Y+4030163D01*
X+8047501Y+3754935D02*
X+8047501Y+3753343D01*
X+7947907Y+3753343D01*
X+7998500Y+3803936D01*
X+8047501Y+3754935D01*
X+6434173Y+3760092D02*
X+6455561Y+3738704D01*
X+6439177Y+3738704D01*
X+6316054Y+3861827D01*
X+6316054Y+3878211D01*
X+6434173Y+3760092D01*
X+8860301Y+3251199D02*
X+8838763Y+3251199D01*
X+8843199Y+3255635D01*
X+8843199Y+3268001D01*
X+8860301Y+3268001D01*
X+8860301Y+3251199D01*
D12*
X+6726000Y+7306000D03*
D13*
X+6726000Y+7052000D03*
X+6726000Y+6798000D03*
X+6726000Y+6544000D03*
X+6726000Y+6290000D03*
X+6726000Y+6036000D03*
X+6726000Y+5782000D03*
X+6726000Y+5528000D03*
X+6726000Y+5274000D03*
X+6726000Y+5020000D03*
X+6726000Y+4766000D03*
X+6726000Y+4512000D03*
X+6726000Y+4258000D03*
X+6726000Y+4004000D03*
X+6726000Y+3750000D03*
X+8250000Y+3750000D03*
X+8250000Y+4004000D03*
X+8250000Y+4258000D03*
X+8250000Y+4512000D03*
X+8250000Y+4766000D03*
X+8250000Y+5020000D03*
X+8250000Y+5274000D03*
X+8250000Y+5528000D03*
X+8250000Y+5782000D03*
X+8250000Y+6036000D03*
X+8250000Y+6290000D03*
X+8250000Y+6544000D03*
X+8250000Y+6798000D03*
X+8250000Y+7052000D03*
X+8250000Y+7306000D03*
D14*
X+6726000Y+3496000D03*
X+8250000Y+3496000D03*
X+6726000Y+7560000D03*
X+8250000Y+7560000D03*
D15*
X+5750000Y+9500000D03*
D16*
X+5750000Y+9500000D03*
D15*
X+5550000Y+9500000D03*
D16*
X+5550000Y+9500000D03*
D15*
X+5350000Y+9500000D03*
D16*
X+5350000Y+9500000D03*
D15*
X+6450000Y+9500000D03*
D16*
X+6450000Y+9500000D03*
D15*
X+6250000Y+9500000D03*
D16*
X+6250000Y+9500000D03*
D15*
X+6050000Y+9500000D03*
D16*
X+6050000Y+9500000D03*
D15*
X+7200000Y+9500000D03*
D16*
X+7200000Y+9500000D03*
D15*
X+7000000Y+9500000D03*
D16*
X+7000000Y+9500000D03*
D15*
X+6800000Y+9500000D03*
D16*
X+6800000Y+9500000D03*
D15*
X+7900000Y+9500000D03*
D16*
X+7900000Y+9500000D03*
D15*
X+7700000Y+9500000D03*
D16*
X+7700000Y+9500000D03*
D15*
X+7500000Y+9500000D03*
D16*
X+7500000Y+9500000D03*
D15*
X+8650000Y+9500000D03*
D16*
X+8650000Y+9500000D03*
D15*
X+8450000Y+9500000D03*
D16*
X+8450000Y+9500000D03*
D15*
X+8250000Y+9500000D03*
D16*
X+8250000Y+9500000D03*
D15*
X+9400000Y+9500000D03*
D16*
X+9400000Y+9500000D03*
D15*
X+9200000Y+9500000D03*
D16*
X+9200000Y+9500000D03*
D15*
X+9000000Y+9500000D03*
D16*
X+9000000Y+9500000D03*
D15*
X+5750000Y+8500000D03*
D16*
X+5750000Y+8500000D03*
D15*
X+5550000Y+8500000D03*
D16*
X+5550000Y+8500000D03*
D15*
X+5350000Y+8500000D03*
D16*
X+5350000Y+8500000D03*
D15*
X+6450000Y+8500000D03*
D16*
X+6450000Y+8500000D03*
D15*
X+6250000Y+8500000D03*
D16*
X+6250000Y+8500000D03*
D15*
X+6050000Y+8500000D03*
D16*
X+6050000Y+8500000D03*
D15*
X+7200000Y+8500000D03*
D16*
X+7200000Y+8500000D03*
D15*
X+7000000Y+8500000D03*
D16*
X+7000000Y+8500000D03*
D15*
X+6800000Y+8500000D03*
D16*
X+6800000Y+8500000D03*
D15*
X+7950000Y+8500000D03*
D16*
X+7950000Y+8500000D03*
D15*
X+7750000Y+8500000D03*
D16*
X+7750000Y+8500000D03*
D15*
X+7550000Y+8500000D03*
D16*
X+7550000Y+8500000D03*
D15*
X+8700000Y+8500000D03*
D16*
X+8700000Y+8500000D03*
D15*
X+8500000Y+8500000D03*
D16*
X+8500000Y+8500000D03*
D15*
X+8300000Y+8500000D03*
D16*
X+8300000Y+8500000D03*
D15*
X+9400000Y+8500000D03*
D16*
X+9400000Y+8500000D03*
D15*
X+9200000Y+8500000D03*
D16*
X+9200000Y+8500000D03*
D15*
X+9000000Y+8500000D03*
D16*
X+9000000Y+8500000D03*
D17*
X+5750000Y+5250000D03*
X+5750000Y+5750380D03*
D18*
X+5250000Y+3250000D03*
X+6266000Y+3250000D03*
D19*
X+9250000Y+7000000D03*
D70*
X+9000000Y+7000000D03*
D19*
X+9250000Y+6250000D03*
D70*
X+9000000Y+6250000D03*
D19*
X+5875000Y+6750000D03*
D70*
X+5625000Y+6750000D03*
D71*
X+9250000Y+5200000D03*
D20*
X+9250000Y+5000000D03*
X+9250000Y+4800000D03*
X+8750000Y+5200000D03*
X+8750000Y+5000000D03*
X+8750000Y+4800000D03*
D21*
X+9000000Y+3492000D03*
D22*
X+9000000Y+3492000D03*
D23*
X+9000000Y+3746000D03*
X+9000000Y+4000000D03*
D24*
X+5500000Y+4000000D03*
X+5754000Y+4000000D03*
D25*
X+5000000Y+2667000D02*
X+9699000Y+2667000D01*
X+9699000Y+10033000D01*
X+5000000Y+10033000D01*
X+5000000Y+2667000D01*
M02*
