M48
METRIC,TZ
T01C0.3810
T02C0.9910
T03C1.6510
T04C0.8130
T05C1.5240
T06C0.7620
T07C0.7370
T08C0.7870
T09C1.2900
T10C1.0160
%
T01
X+68969Y+84073
X+68000Y+85000
X+74221Y+98678
X+58802Y+96736
X+61653Y+96989
T02
X+67260Y+73060
X+67260Y+70520
X+67260Y+67980
X+67260Y+65440
X+67260Y+62900
X+67260Y+60360
X+67260Y+57820
X+67260Y+55280
X+67260Y+52740
X+67260Y+50200
X+67260Y+47660
X+67260Y+45120
X+67260Y+42580
X+67260Y+40040
X+67260Y+37500
X+82500Y+37500
X+82500Y+40040
X+82500Y+42580
X+82500Y+45120
X+82500Y+47660
X+82500Y+50200
X+82500Y+52740
X+82500Y+55280
X+82500Y+57820
X+82500Y+60360
X+82500Y+62900
X+82500Y+65440
X+82500Y+67980
X+82500Y+70520
X+82500Y+73060
T03
X+67260Y+34960
X+82500Y+34960
X+67260Y+75600
X+82500Y+75600
T04
X+57500Y+95000
X+55500Y+95000
X+53500Y+95000
X+64500Y+95000
X+62500Y+95000
X+60500Y+95000
X+72000Y+95000
X+70000Y+95000
X+68000Y+95000
X+79000Y+95000
X+77000Y+95000
X+75000Y+95000
X+86500Y+95000
X+84500Y+95000
X+82500Y+95000
X+94000Y+95000
X+92000Y+95000
X+90000Y+95000
X+57500Y+85000
X+55500Y+85000
X+53500Y+85000
X+64500Y+85000
X+62500Y+85000
X+60500Y+85000
X+72000Y+85000
X+70000Y+85000
X+68000Y+85000
X+79500Y+85000
X+77500Y+85000
X+75500Y+85000
X+87000Y+85000
X+85000Y+85000
X+83000Y+85000
X+94000Y+85000
X+92000Y+85000
X+90000Y+85000
T05
X+57500Y+52500
X+57500Y+57504
T06
X+52500Y+32500
X+62660Y+32500
T07
X+92500Y+70000
X+90000Y+70000
X+92500Y+62500
X+90000Y+62500
X+58750Y+67500
X+56250Y+67500
T08
X+92500Y+52000
X+92500Y+50000
X+92500Y+48000
X+87500Y+52000
X+87500Y+50000
X+87500Y+48000
T09
X+90000Y+34920
X+90000Y+37460
X+90000Y+40000
T10
X+55000Y+40000
X+57540Y+40000
M30
