G04 PROTEUS RS274X GERBER FILE*
%FSLAX45Y45*%
%MOMM*%
G01*
%ADD41C,0.050000*%
%ADD42C,0.604000*%
%ADD43C,0.903560*%
%ADD72C,0.152400*%
%ADD44C,0.558800*%
%ADD25C,0.203200*%
%ADD45C,1.219200*%
%ADD46C,0.229610*%
%ADD47C,0.711200*%
%ADD48C,0.110230*%
%ADD49C,0.174660*%
%ADD50C,0.523240*%
%ADD51C,0.235150*%
%ADD52C,0.776000*%
%ADD53C,0.249790*%
%ADD54C,0.812800*%
%ADD55C,0.190500*%
D41*
X+6574000Y+7712000D02*
X+8402000Y+7712000D01*
X+8402000Y+3344000D01*
X+6574000Y+3344000D01*
X+6574000Y+7712000D01*
D42*
X+6726000Y+7306000D02*
X+6726000Y+7306000D01*
D43*
X+7216930Y+4495442D02*
X+7668713Y+4495442D01*
X+7759069Y+4597093D01*
X+7759069Y+5003697D01*
X+7668713Y+5105348D01*
X+7216930Y+5105348D01*
X+7397643Y+5511952D02*
X+7216930Y+5715254D01*
X+7759069Y+5715254D01*
D72*
X+5254750Y+9644780D02*
X+5254750Y+9355220D01*
X+5845250Y+9355220D01*
X+5845250Y+9644780D01*
X+5254750Y+9644780D01*
X+5254750Y+9355220D01*
X+5845250Y+9355220D01*
X+5845250Y+9644780D01*
X+5254750Y+9644780D01*
D44*
X+5750000Y+9500000D02*
X+5750000Y+9500000D01*
D72*
X+5348213Y+9484846D02*
X+5348213Y+9469692D01*
X+5365260Y+9454539D01*
X+5433451Y+9454539D01*
X+5450499Y+9469692D01*
X+5450499Y+9545460D01*
X+5518690Y+9515153D02*
X+5552786Y+9545460D01*
X+5552786Y+9454539D01*
X+5954750Y+9644780D02*
X+5954750Y+9355220D01*
X+6545250Y+9355220D01*
X+6545250Y+9644780D01*
X+5954750Y+9644780D01*
X+5954750Y+9355220D01*
X+6545250Y+9355220D01*
X+6545250Y+9644780D01*
X+5954750Y+9644780D01*
D44*
X+6450000Y+9500000D02*
X+6450000Y+9500000D01*
D72*
X+6048213Y+9484846D02*
X+6048213Y+9469692D01*
X+6065260Y+9454539D01*
X+6133451Y+9454539D01*
X+6150499Y+9469692D01*
X+6150499Y+9545460D01*
X+6201642Y+9530307D02*
X+6218690Y+9545460D01*
X+6269833Y+9545460D01*
X+6286881Y+9530307D01*
X+6286881Y+9515153D01*
X+6269833Y+9500000D01*
X+6218690Y+9500000D01*
X+6201642Y+9484846D01*
X+6201642Y+9454539D01*
X+6286881Y+9454539D01*
X+6704750Y+9644780D02*
X+6704750Y+9355220D01*
X+7295250Y+9355220D01*
X+7295250Y+9644780D01*
X+6704750Y+9644780D01*
X+6704750Y+9355220D01*
X+7295250Y+9355220D01*
X+7295250Y+9644780D01*
X+6704750Y+9644780D01*
D44*
X+7200000Y+9500000D02*
X+7200000Y+9500000D01*
D72*
X+6798213Y+9484846D02*
X+6798213Y+9469692D01*
X+6815260Y+9454539D01*
X+6883451Y+9454539D01*
X+6900499Y+9469692D01*
X+6900499Y+9545460D01*
X+6951642Y+9530307D02*
X+6968690Y+9545460D01*
X+7019833Y+9545460D01*
X+7036881Y+9530307D01*
X+7036881Y+9515153D01*
X+7019833Y+9500000D01*
X+7036881Y+9484846D01*
X+7036881Y+9469692D01*
X+7019833Y+9454539D01*
X+6968690Y+9454539D01*
X+6951642Y+9469692D01*
X+6985738Y+9500000D02*
X+7019833Y+9500000D01*
X+7404750Y+9644780D02*
X+7404750Y+9355220D01*
X+7995250Y+9355220D01*
X+7995250Y+9644780D01*
X+7404750Y+9644780D01*
X+7404750Y+9355220D01*
X+7995250Y+9355220D01*
X+7995250Y+9644780D01*
X+7404750Y+9644780D01*
D44*
X+7900000Y+9500000D02*
X+7900000Y+9500000D01*
D72*
X+7498213Y+9484846D02*
X+7498213Y+9469692D01*
X+7515260Y+9454539D01*
X+7583451Y+9454539D01*
X+7600499Y+9469692D01*
X+7600499Y+9545460D01*
X+7736881Y+9484846D02*
X+7634595Y+9484846D01*
X+7702786Y+9545460D01*
X+7702786Y+9454539D01*
X+8154750Y+9644780D02*
X+8154750Y+9355220D01*
X+8745250Y+9355220D01*
X+8745250Y+9644780D01*
X+8154750Y+9644780D01*
X+8154750Y+9355220D01*
X+8745250Y+9355220D01*
X+8745250Y+9644780D01*
X+8154750Y+9644780D01*
D44*
X+8650000Y+9500000D02*
X+8650000Y+9500000D01*
D72*
X+8248213Y+9484846D02*
X+8248213Y+9469692D01*
X+8265260Y+9454539D01*
X+8333451Y+9454539D01*
X+8350499Y+9469692D01*
X+8350499Y+9545460D01*
X+8486881Y+9545460D02*
X+8401642Y+9545460D01*
X+8401642Y+9515153D01*
X+8469833Y+9515153D01*
X+8486881Y+9500000D01*
X+8486881Y+9469692D01*
X+8469833Y+9454539D01*
X+8418690Y+9454539D01*
X+8401642Y+9469692D01*
X+8904750Y+9644780D02*
X+8904750Y+9355220D01*
X+9495250Y+9355220D01*
X+9495250Y+9644780D01*
X+8904750Y+9644780D01*
X+8904750Y+9355220D01*
X+9495250Y+9355220D01*
X+9495250Y+9644780D01*
X+8904750Y+9644780D01*
D44*
X+9400000Y+9500000D02*
X+9400000Y+9500000D01*
D72*
X+8998213Y+9484846D02*
X+8998213Y+9469692D01*
X+9015260Y+9454539D01*
X+9083451Y+9454539D01*
X+9100499Y+9469692D01*
X+9100499Y+9545460D01*
X+9236881Y+9530307D02*
X+9219833Y+9545460D01*
X+9168690Y+9545460D01*
X+9151642Y+9530307D01*
X+9151642Y+9469692D01*
X+9168690Y+9454539D01*
X+9219833Y+9454539D01*
X+9236881Y+9469692D01*
X+9236881Y+9484846D01*
X+9219833Y+9500000D01*
X+9151642Y+9500000D01*
X+5254750Y+8644780D02*
X+5254750Y+8355220D01*
X+5845250Y+8355220D01*
X+5845250Y+8644780D01*
X+5254750Y+8644780D01*
X+5254750Y+8355220D01*
X+5845250Y+8355220D01*
X+5845250Y+8644780D01*
X+5254750Y+8644780D01*
D44*
X+5750000Y+8500000D02*
X+5750000Y+8500000D01*
D72*
X+5348213Y+8484846D02*
X+5348213Y+8469692D01*
X+5365260Y+8454539D01*
X+5433451Y+8454539D01*
X+5450499Y+8469692D01*
X+5450499Y+8545460D01*
X+5501642Y+8545460D02*
X+5586881Y+8545460D01*
X+5586881Y+8530307D01*
X+5501642Y+8454539D01*
X+5954750Y+8644780D02*
X+5954750Y+8355220D01*
X+6545250Y+8355220D01*
X+6545250Y+8644780D01*
X+5954750Y+8644780D01*
X+5954750Y+8355220D01*
X+6545250Y+8355220D01*
X+6545250Y+8644780D01*
X+5954750Y+8644780D01*
D44*
X+6450000Y+8500000D02*
X+6450000Y+8500000D01*
D72*
X+6048213Y+8484846D02*
X+6048213Y+8469692D01*
X+6065260Y+8454539D01*
X+6133451Y+8454539D01*
X+6150499Y+8469692D01*
X+6150499Y+8545460D01*
X+6218690Y+8500000D02*
X+6201642Y+8515153D01*
X+6201642Y+8530307D01*
X+6218690Y+8545460D01*
X+6269833Y+8545460D01*
X+6286881Y+8530307D01*
X+6286881Y+8515153D01*
X+6269833Y+8500000D01*
X+6218690Y+8500000D01*
X+6201642Y+8484846D01*
X+6201642Y+8469692D01*
X+6218690Y+8454539D01*
X+6269833Y+8454539D01*
X+6286881Y+8469692D01*
X+6286881Y+8484846D01*
X+6269833Y+8500000D01*
X+6704750Y+8644780D02*
X+6704750Y+8355220D01*
X+7295250Y+8355220D01*
X+7295250Y+8644780D01*
X+6704750Y+8644780D01*
X+6704750Y+8355220D01*
X+7295250Y+8355220D01*
X+7295250Y+8644780D01*
X+6704750Y+8644780D01*
D44*
X+7200000Y+8500000D02*
X+7200000Y+8500000D01*
D72*
X+6798213Y+8484846D02*
X+6798213Y+8469692D01*
X+6815260Y+8454539D01*
X+6883451Y+8454539D01*
X+6900499Y+8469692D01*
X+6900499Y+8545460D01*
X+7036881Y+8515153D02*
X+7019833Y+8500000D01*
X+6968690Y+8500000D01*
X+6951642Y+8515153D01*
X+6951642Y+8530307D01*
X+6968690Y+8545460D01*
X+7019833Y+8545460D01*
X+7036881Y+8530307D01*
X+7036881Y+8469692D01*
X+7019833Y+8454539D01*
X+6968690Y+8454539D01*
X+7454750Y+8644780D02*
X+7454750Y+8355220D01*
X+8045250Y+8355220D01*
X+8045250Y+8644780D01*
X+7454750Y+8644780D01*
X+7454750Y+8355220D01*
X+8045250Y+8355220D01*
X+8045250Y+8644780D01*
X+7454750Y+8644780D01*
D44*
X+7950000Y+8500000D02*
X+7950000Y+8500000D01*
D72*
X+7480022Y+8484846D02*
X+7480022Y+8469692D01*
X+7497069Y+8454539D01*
X+7565260Y+8454539D01*
X+7582308Y+8469692D01*
X+7582308Y+8545460D01*
X+7650499Y+8515153D02*
X+7684595Y+8545460D01*
X+7684595Y+8454539D01*
X+7752786Y+8469692D02*
X+7752786Y+8530307D01*
X+7769833Y+8545460D01*
X+7838024Y+8545460D01*
X+7855072Y+8530307D01*
X+7855072Y+8469692D01*
X+7838024Y+8454539D01*
X+7769833Y+8454539D01*
X+7752786Y+8469692D01*
X+7752786Y+8454539D02*
X+7855072Y+8545460D01*
X+8204750Y+8644780D02*
X+8204750Y+8355220D01*
X+8795250Y+8355220D01*
X+8795250Y+8644780D01*
X+8204750Y+8644780D01*
X+8204750Y+8355220D01*
X+8795250Y+8355220D01*
X+8795250Y+8644780D01*
X+8204750Y+8644780D01*
D44*
X+8700000Y+8500000D02*
X+8700000Y+8500000D01*
D72*
X+8230022Y+8484846D02*
X+8230022Y+8469692D01*
X+8247069Y+8454539D01*
X+8315260Y+8454539D01*
X+8332308Y+8469692D01*
X+8332308Y+8545460D01*
X+8400499Y+8515153D02*
X+8434595Y+8545460D01*
X+8434595Y+8454539D01*
X+8536881Y+8515153D02*
X+8570977Y+8545460D01*
X+8570977Y+8454539D01*
X+8904750Y+8644780D02*
X+8904750Y+8355220D01*
X+9495250Y+8355220D01*
X+9495250Y+8644780D01*
X+8904750Y+8644780D01*
X+8904750Y+8355220D01*
X+9495250Y+8355220D01*
X+9495250Y+8644780D01*
X+8904750Y+8644780D01*
D44*
X+9400000Y+8500000D02*
X+9400000Y+8500000D01*
D72*
X+8930022Y+8484846D02*
X+8930022Y+8469692D01*
X+8947069Y+8454539D01*
X+9015260Y+8454539D01*
X+9032308Y+8469692D01*
X+9032308Y+8545460D01*
X+9100499Y+8515153D02*
X+9134595Y+8545460D01*
X+9134595Y+8454539D01*
X+9219833Y+8530307D02*
X+9236881Y+8545460D01*
X+9288024Y+8545460D01*
X+9305072Y+8530307D01*
X+9305072Y+8515153D01*
X+9288024Y+8500000D01*
X+9236881Y+8500000D01*
X+9219833Y+8484846D01*
X+9219833Y+8454539D01*
X+9305072Y+8454539D01*
D25*
X+5358840Y+4985840D02*
X+6141160Y+4985840D01*
X+6141160Y+6022160D01*
X+5358840Y+6022160D01*
X+5358840Y+4985840D01*
D45*
X+5750000Y+5250000D02*
X+5750000Y+5250000D01*
D46*
X+5543346Y+5735444D02*
X+5543346Y+5620636D01*
X+5569177Y+5597675D01*
X+5672504Y+5597675D01*
X+5698336Y+5620636D01*
X+5698336Y+5735444D01*
X+5775831Y+5712483D02*
X+5801663Y+5735444D01*
X+5879158Y+5735444D01*
X+5904990Y+5712483D01*
X+5904990Y+5689521D01*
X+5879158Y+5666560D01*
X+5904990Y+5643598D01*
X+5904990Y+5620636D01*
X+5879158Y+5597675D01*
X+5801663Y+5597675D01*
X+5775831Y+5620636D01*
X+5827495Y+5666560D02*
X+5879158Y+5666560D01*
D25*
X+5161100Y+3161100D02*
X+6354900Y+3161100D01*
X+6354900Y+3338900D01*
X+5161100Y+3338900D01*
X+5161100Y+3161100D01*
D47*
X+5250000Y+3250000D02*
X+5250000Y+3250000D01*
D48*
X+5721018Y+3216929D02*
X+5721018Y+3283070D01*
X+5783025Y+3283070D01*
X+5795427Y+3272047D01*
X+5795427Y+3261023D01*
X+5783025Y+3250000D01*
X+5721018Y+3250000D01*
X+5783025Y+3250000D02*
X+5795427Y+3238976D01*
X+5795427Y+3216929D01*
X+5845033Y+3261023D02*
X+5869836Y+3283070D01*
X+5869836Y+3216929D01*
D41*
X+9400000Y+7000000D02*
X+9399109Y+7022117D01*
X+9391875Y+7066353D01*
X+9376784Y+7110589D01*
X+9352276Y+7154825D01*
X+9314848Y+7198954D01*
X+9270612Y+7233286D01*
X+9226376Y+7255632D01*
X+9182140Y+7268998D01*
X+9137904Y+7274697D01*
X+9125000Y+7275000D01*
X+8850000Y+7000000D02*
X+8850891Y+7022117D01*
X+8858125Y+7066353D01*
X+8873216Y+7110589D01*
X+8897724Y+7154825D01*
X+8935152Y+7198954D01*
X+8979388Y+7233286D01*
X+9023624Y+7255632D01*
X+9067860Y+7268998D01*
X+9112096Y+7274697D01*
X+9125000Y+7275000D01*
X+8850000Y+7000000D02*
X+8850891Y+6977883D01*
X+8858125Y+6933647D01*
X+8873216Y+6889411D01*
X+8897724Y+6845175D01*
X+8935152Y+6801046D01*
X+8979388Y+6766714D01*
X+9023624Y+6744368D01*
X+9067860Y+6731002D01*
X+9112096Y+6725303D01*
X+9125000Y+6725000D01*
X+9400000Y+7000000D02*
X+9399109Y+6977883D01*
X+9391875Y+6933647D01*
X+9376784Y+6889411D01*
X+9352276Y+6845175D01*
X+9314848Y+6801046D01*
X+9270612Y+6766714D01*
X+9226376Y+6744368D01*
X+9182140Y+6731002D01*
X+9137904Y+6725303D01*
X+9125000Y+6725000D01*
D49*
X+9085699Y+6965066D02*
X+9066049Y+6947599D01*
X+9007098Y+6947599D01*
X+8967798Y+6982533D01*
X+8967798Y+7017467D01*
X+9007098Y+7052401D01*
X+9066049Y+7052401D01*
X+9085699Y+7034934D01*
X+9164300Y+7017467D02*
X+9203601Y+7052401D01*
X+9203601Y+6947599D01*
D41*
X+9400000Y+6250000D02*
X+9399109Y+6272117D01*
X+9391875Y+6316353D01*
X+9376784Y+6360589D01*
X+9352276Y+6404825D01*
X+9314848Y+6448954D01*
X+9270612Y+6483286D01*
X+9226376Y+6505632D01*
X+9182140Y+6518998D01*
X+9137904Y+6524697D01*
X+9125000Y+6525000D01*
X+8850000Y+6250000D02*
X+8850891Y+6272117D01*
X+8858125Y+6316353D01*
X+8873216Y+6360589D01*
X+8897724Y+6404825D01*
X+8935152Y+6448954D01*
X+8979388Y+6483286D01*
X+9023624Y+6505632D01*
X+9067860Y+6518998D01*
X+9112096Y+6524697D01*
X+9125000Y+6525000D01*
X+8850000Y+6250000D02*
X+8850891Y+6227883D01*
X+8858125Y+6183647D01*
X+8873216Y+6139411D01*
X+8897724Y+6095175D01*
X+8935152Y+6051046D01*
X+8979388Y+6016714D01*
X+9023624Y+5994368D01*
X+9067860Y+5981002D01*
X+9112096Y+5975303D01*
X+9125000Y+5975000D01*
X+9400000Y+6250000D02*
X+9399109Y+6227883D01*
X+9391875Y+6183647D01*
X+9376784Y+6139411D01*
X+9352276Y+6095175D01*
X+9314848Y+6051046D01*
X+9270612Y+6016714D01*
X+9226376Y+5994368D01*
X+9182140Y+5981002D01*
X+9137904Y+5975303D01*
X+9125000Y+5975000D01*
D49*
X+9085699Y+6215066D02*
X+9066049Y+6197599D01*
X+9007098Y+6197599D01*
X+8967798Y+6232533D01*
X+8967798Y+6267467D01*
X+9007098Y+6302401D01*
X+9066049Y+6302401D01*
X+9085699Y+6284934D01*
X+9144650Y+6284934D02*
X+9164300Y+6302401D01*
X+9223251Y+6302401D01*
X+9242901Y+6284934D01*
X+9242901Y+6267467D01*
X+9223251Y+6250000D01*
X+9164300Y+6250000D01*
X+9144650Y+6232533D01*
X+9144650Y+6197599D01*
X+9242901Y+6197599D01*
D41*
X+6025000Y+6750000D02*
X+6024109Y+6772117D01*
X+6016875Y+6816353D01*
X+6001784Y+6860589D01*
X+5977276Y+6904825D01*
X+5939848Y+6948954D01*
X+5895612Y+6983286D01*
X+5851376Y+7005632D01*
X+5807140Y+7018998D01*
X+5762904Y+7024697D01*
X+5750000Y+7025000D01*
X+5475000Y+6750000D02*
X+5475891Y+6772117D01*
X+5483125Y+6816353D01*
X+5498216Y+6860589D01*
X+5522724Y+6904825D01*
X+5560152Y+6948954D01*
X+5604388Y+6983286D01*
X+5648624Y+7005632D01*
X+5692860Y+7018998D01*
X+5737096Y+7024697D01*
X+5750000Y+7025000D01*
X+5475000Y+6750000D02*
X+5475891Y+6727883D01*
X+5483125Y+6683647D01*
X+5498216Y+6639411D01*
X+5522724Y+6595175D01*
X+5560152Y+6551046D01*
X+5604388Y+6516714D01*
X+5648624Y+6494368D01*
X+5692860Y+6481002D01*
X+5737096Y+6475303D01*
X+5750000Y+6475000D01*
X+6025000Y+6750000D02*
X+6024109Y+6727883D01*
X+6016875Y+6683647D01*
X+6001784Y+6639411D01*
X+5977276Y+6595175D01*
X+5939848Y+6551046D01*
X+5895612Y+6516714D01*
X+5851376Y+6494368D01*
X+5807140Y+6481002D01*
X+5762904Y+6475303D01*
X+5750000Y+6475000D01*
D49*
X+5710699Y+6715066D02*
X+5691049Y+6697599D01*
X+5632098Y+6697599D01*
X+5592798Y+6732533D01*
X+5592798Y+6767467D01*
X+5632098Y+6802401D01*
X+5691049Y+6802401D01*
X+5710699Y+6784934D01*
X+5769650Y+6784934D02*
X+5789300Y+6802401D01*
X+5848251Y+6802401D01*
X+5867901Y+6784934D01*
X+5867901Y+6767467D01*
X+5848251Y+6750000D01*
X+5867901Y+6732533D01*
X+5867901Y+6715066D01*
X+5848251Y+6697599D01*
X+5789300Y+6697599D01*
X+5769650Y+6715066D01*
X+5808950Y+6750000D02*
X+5848251Y+6750000D01*
D41*
X+9375000Y+5375000D02*
X+9375000Y+4625000D01*
X+8625000Y+4625000D01*
X+8625000Y+5375000D01*
X+9375000Y+5375000D01*
D50*
X+9250000Y+5200000D02*
X+9250000Y+5200000D01*
D51*
X+8852622Y+4788358D02*
X+8970201Y+4788358D01*
X+8993717Y+4814813D01*
X+8993717Y+4920634D01*
X+8970201Y+4947089D01*
X+8852622Y+4947089D01*
X+8876138Y+5026455D02*
X+8852622Y+5052910D01*
X+8852622Y+5132276D01*
X+8876138Y+5158731D01*
X+8899654Y+5158731D01*
X+8923169Y+5132276D01*
X+8923169Y+5052910D01*
X+8946685Y+5026455D01*
X+8993717Y+5026455D01*
X+8993717Y+5158731D01*
D41*
X+8642000Y+3194000D02*
X+9162000Y+3194000D01*
X+9162000Y+4298000D01*
X+8642000Y+4298000D01*
X+8642000Y+3194000D01*
D52*
X+9000000Y+3492000D02*
X+9000000Y+3492000D01*
D53*
X+8827062Y+3690837D02*
X+8951959Y+3690837D01*
X+8976938Y+3718938D01*
X+8976938Y+3831345D01*
X+8951959Y+3859446D01*
X+8827062Y+3859446D01*
X+8926979Y+4084259D02*
X+8926979Y+3915650D01*
X+8827062Y+4028056D01*
X+8976938Y+4028056D01*
D25*
X+5299340Y+3735840D02*
X+5891160Y+3735840D01*
X+5891160Y+4327660D01*
X+5299340Y+4327660D01*
X+5299340Y+3735840D01*
D54*
X+5754000Y+4000000D02*
X+5754000Y+4000000D01*
D55*
X+5563500Y+3860300D02*
X+5449200Y+3860300D01*
X+5449200Y+3946025D01*
X+5487300Y+3988887D01*
X+5525400Y+3988887D01*
X+5563500Y+3946025D01*
X+5563500Y+3860300D01*
X+5487300Y+4074612D02*
X+5449200Y+4117475D01*
X+5563500Y+4117475D01*
D25*
X+5000000Y+2667000D02*
X+9699000Y+2667000D01*
X+9699000Y+10033000D01*
X+5000000Y+10033000D01*
X+5000000Y+2667000D01*
M02*
