G04 PROTEUS RS274X GERBER FILE*
%FSLAX45Y45*%
%MOMM*%
G01*
%ADD28C,0.127000*%
%ADD29C,0.200000*%
%ADD25C,0.203200*%
%ADD10C,0.508000*%
%ADD72C,0.152400*%
D28*
X+6599000Y+7687000D02*
X+8377000Y+7687000D01*
X+8377000Y+3369000D01*
X+6599000Y+3369000D01*
X+6599000Y+7687000D01*
D29*
X+6523000Y+7328000D02*
X+6522965Y+7328832D01*
X+6522683Y+7330497D01*
X+6522093Y+7332162D01*
X+6521128Y+7333827D01*
X+6519653Y+7335468D01*
X+6517988Y+7336671D01*
X+6516323Y+7337436D01*
X+6514658Y+7337867D01*
X+6512994Y+7338006D01*
X+6502988Y+7328000D02*
X+6503023Y+7328832D01*
X+6503305Y+7330497D01*
X+6503895Y+7332162D01*
X+6504860Y+7333827D01*
X+6506335Y+7335468D01*
X+6508000Y+7336671D01*
X+6509665Y+7337436D01*
X+6511330Y+7337867D01*
X+6512994Y+7338006D01*
X+6502988Y+7328000D02*
X+6503023Y+7327168D01*
X+6503305Y+7325503D01*
X+6503895Y+7323838D01*
X+6504860Y+7322173D01*
X+6506335Y+7320532D01*
X+6508000Y+7319329D01*
X+6509665Y+7318564D01*
X+6511330Y+7318133D01*
X+6512994Y+7317994D01*
X+6523000Y+7328000D02*
X+6522965Y+7327168D01*
X+6522683Y+7325503D01*
X+6522093Y+7323838D01*
X+6521128Y+7322173D01*
X+6519653Y+7320532D01*
X+6517988Y+7319329D01*
X+6516323Y+7318564D01*
X+6514658Y+7318133D01*
X+6512994Y+7317994D01*
D25*
X+7321744Y+7815270D02*
X+7321744Y+7739070D01*
X+7337619Y+7723830D01*
X+7401119Y+7723830D01*
X+7416994Y+7739070D01*
X+7416994Y+7815270D01*
X+7480494Y+7784790D02*
X+7512244Y+7815270D01*
X+7512244Y+7723830D01*
D10*
X+5788100Y+9309500D02*
X+5787969Y+9312658D01*
X+5786903Y+9318976D01*
X+5784672Y+9325294D01*
X+5781027Y+9331612D01*
X+5775452Y+9337851D01*
X+5769134Y+9342447D01*
X+5762816Y+9345380D01*
X+5756498Y+9347042D01*
X+5750180Y+9347600D01*
X+5750000Y+9347600D01*
X+5711900Y+9309500D02*
X+5712031Y+9312658D01*
X+5713097Y+9318976D01*
X+5715328Y+9325294D01*
X+5718973Y+9331612D01*
X+5724548Y+9337851D01*
X+5730866Y+9342447D01*
X+5737184Y+9345380D01*
X+5743502Y+9347042D01*
X+5749820Y+9347600D01*
X+5750000Y+9347600D01*
X+5711900Y+9309500D02*
X+5712031Y+9306342D01*
X+5713097Y+9300024D01*
X+5715328Y+9293706D01*
X+5718973Y+9287388D01*
X+5724548Y+9281149D01*
X+5730866Y+9276553D01*
X+5737184Y+9273620D01*
X+5743502Y+9271958D01*
X+5749820Y+9271400D01*
X+5750000Y+9271400D01*
X+5788100Y+9309500D02*
X+5787969Y+9306342D01*
X+5786903Y+9300024D01*
X+5784672Y+9293706D01*
X+5781027Y+9287388D01*
X+5775452Y+9281149D01*
X+5769134Y+9276553D01*
X+5762816Y+9273620D01*
X+5756498Y+9271958D01*
X+5750180Y+9271400D01*
X+5750000Y+9271400D01*
D72*
X+5280150Y+9380620D02*
X+5819850Y+9380620D01*
X+5819850Y+9424135D01*
X+5819850Y+9619380D02*
X+5280150Y+9619380D01*
X+5280150Y+9575865D01*
X+5280150Y+9424135D02*
X+5280150Y+9380620D01*
X+5819850Y+9575865D02*
X+5819850Y+9619380D01*
D25*
X+5423000Y+9687960D02*
X+5423000Y+9672720D01*
X+5438875Y+9657480D01*
X+5502375Y+9657480D01*
X+5518250Y+9672720D01*
X+5518250Y+9748920D01*
X+5581750Y+9718440D02*
X+5613500Y+9748920D01*
X+5613500Y+9657480D01*
D10*
X+6488100Y+9309500D02*
X+6487969Y+9312658D01*
X+6486903Y+9318976D01*
X+6484672Y+9325294D01*
X+6481027Y+9331612D01*
X+6475452Y+9337851D01*
X+6469134Y+9342447D01*
X+6462816Y+9345380D01*
X+6456498Y+9347042D01*
X+6450180Y+9347600D01*
X+6450000Y+9347600D01*
X+6411900Y+9309500D02*
X+6412031Y+9312658D01*
X+6413097Y+9318976D01*
X+6415328Y+9325294D01*
X+6418973Y+9331612D01*
X+6424548Y+9337851D01*
X+6430866Y+9342447D01*
X+6437184Y+9345380D01*
X+6443502Y+9347042D01*
X+6449820Y+9347600D01*
X+6450000Y+9347600D01*
X+6411900Y+9309500D02*
X+6412031Y+9306342D01*
X+6413097Y+9300024D01*
X+6415328Y+9293706D01*
X+6418973Y+9287388D01*
X+6424548Y+9281149D01*
X+6430866Y+9276553D01*
X+6437184Y+9273620D01*
X+6443502Y+9271958D01*
X+6449820Y+9271400D01*
X+6450000Y+9271400D01*
X+6488100Y+9309500D02*
X+6487969Y+9306342D01*
X+6486903Y+9300024D01*
X+6484672Y+9293706D01*
X+6481027Y+9287388D01*
X+6475452Y+9281149D01*
X+6469134Y+9276553D01*
X+6462816Y+9273620D01*
X+6456498Y+9271958D01*
X+6450180Y+9271400D01*
X+6450000Y+9271400D01*
D72*
X+5980150Y+9380620D02*
X+6519850Y+9380620D01*
X+6519850Y+9424135D01*
X+6519850Y+9619380D02*
X+5980150Y+9619380D01*
X+5980150Y+9575865D01*
X+5980150Y+9424135D02*
X+5980150Y+9380620D01*
X+6519850Y+9575865D02*
X+6519850Y+9619380D01*
D25*
X+6123000Y+9687960D02*
X+6123000Y+9672720D01*
X+6138875Y+9657480D01*
X+6202375Y+9657480D01*
X+6218250Y+9672720D01*
X+6218250Y+9748920D01*
X+6265875Y+9733680D02*
X+6281750Y+9748920D01*
X+6329375Y+9748920D01*
X+6345250Y+9733680D01*
X+6345250Y+9718440D01*
X+6329375Y+9703200D01*
X+6281750Y+9703200D01*
X+6265875Y+9687960D01*
X+6265875Y+9657480D01*
X+6345250Y+9657480D01*
D10*
X+7238100Y+9309500D02*
X+7237969Y+9312658D01*
X+7236903Y+9318976D01*
X+7234672Y+9325294D01*
X+7231027Y+9331612D01*
X+7225452Y+9337851D01*
X+7219134Y+9342447D01*
X+7212816Y+9345380D01*
X+7206498Y+9347042D01*
X+7200180Y+9347600D01*
X+7200000Y+9347600D01*
X+7161900Y+9309500D02*
X+7162031Y+9312658D01*
X+7163097Y+9318976D01*
X+7165328Y+9325294D01*
X+7168973Y+9331612D01*
X+7174548Y+9337851D01*
X+7180866Y+9342447D01*
X+7187184Y+9345380D01*
X+7193502Y+9347042D01*
X+7199820Y+9347600D01*
X+7200000Y+9347600D01*
X+7161900Y+9309500D02*
X+7162031Y+9306342D01*
X+7163097Y+9300024D01*
X+7165328Y+9293706D01*
X+7168973Y+9287388D01*
X+7174548Y+9281149D01*
X+7180866Y+9276553D01*
X+7187184Y+9273620D01*
X+7193502Y+9271958D01*
X+7199820Y+9271400D01*
X+7200000Y+9271400D01*
X+7238100Y+9309500D02*
X+7237969Y+9306342D01*
X+7236903Y+9300024D01*
X+7234672Y+9293706D01*
X+7231027Y+9287388D01*
X+7225452Y+9281149D01*
X+7219134Y+9276553D01*
X+7212816Y+9273620D01*
X+7206498Y+9271958D01*
X+7200180Y+9271400D01*
X+7200000Y+9271400D01*
D72*
X+6730150Y+9380620D02*
X+7269850Y+9380620D01*
X+7269850Y+9424135D01*
X+7269850Y+9619380D02*
X+6730150Y+9619380D01*
X+6730150Y+9575865D01*
X+6730150Y+9424135D02*
X+6730150Y+9380620D01*
X+7269850Y+9575865D02*
X+7269850Y+9619380D01*
D25*
X+6873000Y+9687960D02*
X+6873000Y+9672720D01*
X+6888875Y+9657480D01*
X+6952375Y+9657480D01*
X+6968250Y+9672720D01*
X+6968250Y+9748920D01*
X+7015875Y+9733680D02*
X+7031750Y+9748920D01*
X+7079375Y+9748920D01*
X+7095250Y+9733680D01*
X+7095250Y+9718440D01*
X+7079375Y+9703200D01*
X+7095250Y+9687960D01*
X+7095250Y+9672720D01*
X+7079375Y+9657480D01*
X+7031750Y+9657480D01*
X+7015875Y+9672720D01*
X+7047625Y+9703200D02*
X+7079375Y+9703200D01*
D10*
X+7938100Y+9309500D02*
X+7937969Y+9312658D01*
X+7936903Y+9318976D01*
X+7934672Y+9325294D01*
X+7931027Y+9331612D01*
X+7925452Y+9337851D01*
X+7919134Y+9342447D01*
X+7912816Y+9345380D01*
X+7906498Y+9347042D01*
X+7900180Y+9347600D01*
X+7900000Y+9347600D01*
X+7861900Y+9309500D02*
X+7862031Y+9312658D01*
X+7863097Y+9318976D01*
X+7865328Y+9325294D01*
X+7868973Y+9331612D01*
X+7874548Y+9337851D01*
X+7880866Y+9342447D01*
X+7887184Y+9345380D01*
X+7893502Y+9347042D01*
X+7899820Y+9347600D01*
X+7900000Y+9347600D01*
X+7861900Y+9309500D02*
X+7862031Y+9306342D01*
X+7863097Y+9300024D01*
X+7865328Y+9293706D01*
X+7868973Y+9287388D01*
X+7874548Y+9281149D01*
X+7880866Y+9276553D01*
X+7887184Y+9273620D01*
X+7893502Y+9271958D01*
X+7899820Y+9271400D01*
X+7900000Y+9271400D01*
X+7938100Y+9309500D02*
X+7937969Y+9306342D01*
X+7936903Y+9300024D01*
X+7934672Y+9293706D01*
X+7931027Y+9287388D01*
X+7925452Y+9281149D01*
X+7919134Y+9276553D01*
X+7912816Y+9273620D01*
X+7906498Y+9271958D01*
X+7900180Y+9271400D01*
X+7900000Y+9271400D01*
D72*
X+7430150Y+9380620D02*
X+7969850Y+9380620D01*
X+7969850Y+9424135D01*
X+7969850Y+9619380D02*
X+7430150Y+9619380D01*
X+7430150Y+9575865D01*
X+7430150Y+9424135D02*
X+7430150Y+9380620D01*
X+7969850Y+9575865D02*
X+7969850Y+9619380D01*
D25*
X+7573000Y+9687960D02*
X+7573000Y+9672720D01*
X+7588875Y+9657480D01*
X+7652375Y+9657480D01*
X+7668250Y+9672720D01*
X+7668250Y+9748920D01*
X+7795250Y+9687960D02*
X+7700000Y+9687960D01*
X+7763500Y+9748920D01*
X+7763500Y+9657480D01*
D10*
X+8688100Y+9309500D02*
X+8687969Y+9312658D01*
X+8686903Y+9318976D01*
X+8684672Y+9325294D01*
X+8681027Y+9331612D01*
X+8675452Y+9337851D01*
X+8669134Y+9342447D01*
X+8662816Y+9345380D01*
X+8656498Y+9347042D01*
X+8650180Y+9347600D01*
X+8650000Y+9347600D01*
X+8611900Y+9309500D02*
X+8612031Y+9312658D01*
X+8613097Y+9318976D01*
X+8615328Y+9325294D01*
X+8618973Y+9331612D01*
X+8624548Y+9337851D01*
X+8630866Y+9342447D01*
X+8637184Y+9345380D01*
X+8643502Y+9347042D01*
X+8649820Y+9347600D01*
X+8650000Y+9347600D01*
X+8611900Y+9309500D02*
X+8612031Y+9306342D01*
X+8613097Y+9300024D01*
X+8615328Y+9293706D01*
X+8618973Y+9287388D01*
X+8624548Y+9281149D01*
X+8630866Y+9276553D01*
X+8637184Y+9273620D01*
X+8643502Y+9271958D01*
X+8649820Y+9271400D01*
X+8650000Y+9271400D01*
X+8688100Y+9309500D02*
X+8687969Y+9306342D01*
X+8686903Y+9300024D01*
X+8684672Y+9293706D01*
X+8681027Y+9287388D01*
X+8675452Y+9281149D01*
X+8669134Y+9276553D01*
X+8662816Y+9273620D01*
X+8656498Y+9271958D01*
X+8650180Y+9271400D01*
X+8650000Y+9271400D01*
D72*
X+8180150Y+9380620D02*
X+8719850Y+9380620D01*
X+8719850Y+9424135D01*
X+8719850Y+9619380D02*
X+8180150Y+9619380D01*
X+8180150Y+9575865D01*
X+8180150Y+9424135D02*
X+8180150Y+9380620D01*
X+8719850Y+9575865D02*
X+8719850Y+9619380D01*
D25*
X+8323000Y+9687960D02*
X+8323000Y+9672720D01*
X+8338875Y+9657480D01*
X+8402375Y+9657480D01*
X+8418250Y+9672720D01*
X+8418250Y+9748920D01*
X+8545250Y+9748920D02*
X+8465875Y+9748920D01*
X+8465875Y+9718440D01*
X+8529375Y+9718440D01*
X+8545250Y+9703200D01*
X+8545250Y+9672720D01*
X+8529375Y+9657480D01*
X+8481750Y+9657480D01*
X+8465875Y+9672720D01*
D10*
X+9438100Y+9309500D02*
X+9437969Y+9312658D01*
X+9436903Y+9318976D01*
X+9434672Y+9325294D01*
X+9431027Y+9331612D01*
X+9425452Y+9337851D01*
X+9419134Y+9342447D01*
X+9412816Y+9345380D01*
X+9406498Y+9347042D01*
X+9400180Y+9347600D01*
X+9400000Y+9347600D01*
X+9361900Y+9309500D02*
X+9362031Y+9312658D01*
X+9363097Y+9318976D01*
X+9365328Y+9325294D01*
X+9368973Y+9331612D01*
X+9374548Y+9337851D01*
X+9380866Y+9342447D01*
X+9387184Y+9345380D01*
X+9393502Y+9347042D01*
X+9399820Y+9347600D01*
X+9400000Y+9347600D01*
X+9361900Y+9309500D02*
X+9362031Y+9306342D01*
X+9363097Y+9300024D01*
X+9365328Y+9293706D01*
X+9368973Y+9287388D01*
X+9374548Y+9281149D01*
X+9380866Y+9276553D01*
X+9387184Y+9273620D01*
X+9393502Y+9271958D01*
X+9399820Y+9271400D01*
X+9400000Y+9271400D01*
X+9438100Y+9309500D02*
X+9437969Y+9306342D01*
X+9436903Y+9300024D01*
X+9434672Y+9293706D01*
X+9431027Y+9287388D01*
X+9425452Y+9281149D01*
X+9419134Y+9276553D01*
X+9412816Y+9273620D01*
X+9406498Y+9271958D01*
X+9400180Y+9271400D01*
X+9400000Y+9271400D01*
D72*
X+8930150Y+9380620D02*
X+9469850Y+9380620D01*
X+9469850Y+9424135D01*
X+9469850Y+9619380D02*
X+8930150Y+9619380D01*
X+8930150Y+9575865D01*
X+8930150Y+9424135D02*
X+8930150Y+9380620D01*
X+9469850Y+9575865D02*
X+9469850Y+9619380D01*
D25*
X+9073000Y+9687960D02*
X+9073000Y+9672720D01*
X+9088875Y+9657480D01*
X+9152375Y+9657480D01*
X+9168250Y+9672720D01*
X+9168250Y+9748920D01*
X+9295250Y+9733680D02*
X+9279375Y+9748920D01*
X+9231750Y+9748920D01*
X+9215875Y+9733680D01*
X+9215875Y+9672720D01*
X+9231750Y+9657480D01*
X+9279375Y+9657480D01*
X+9295250Y+9672720D01*
X+9295250Y+9687960D01*
X+9279375Y+9703200D01*
X+9215875Y+9703200D01*
D10*
X+5788100Y+8309500D02*
X+5787969Y+8312658D01*
X+5786903Y+8318976D01*
X+5784672Y+8325294D01*
X+5781027Y+8331612D01*
X+5775452Y+8337851D01*
X+5769134Y+8342447D01*
X+5762816Y+8345380D01*
X+5756498Y+8347042D01*
X+5750180Y+8347600D01*
X+5750000Y+8347600D01*
X+5711900Y+8309500D02*
X+5712031Y+8312658D01*
X+5713097Y+8318976D01*
X+5715328Y+8325294D01*
X+5718973Y+8331612D01*
X+5724548Y+8337851D01*
X+5730866Y+8342447D01*
X+5737184Y+8345380D01*
X+5743502Y+8347042D01*
X+5749820Y+8347600D01*
X+5750000Y+8347600D01*
X+5711900Y+8309500D02*
X+5712031Y+8306342D01*
X+5713097Y+8300024D01*
X+5715328Y+8293706D01*
X+5718973Y+8287388D01*
X+5724548Y+8281149D01*
X+5730866Y+8276553D01*
X+5737184Y+8273620D01*
X+5743502Y+8271958D01*
X+5749820Y+8271400D01*
X+5750000Y+8271400D01*
X+5788100Y+8309500D02*
X+5787969Y+8306342D01*
X+5786903Y+8300024D01*
X+5784672Y+8293706D01*
X+5781027Y+8287388D01*
X+5775452Y+8281149D01*
X+5769134Y+8276553D01*
X+5762816Y+8273620D01*
X+5756498Y+8271958D01*
X+5750180Y+8271400D01*
X+5750000Y+8271400D01*
D72*
X+5280150Y+8380620D02*
X+5819850Y+8380620D01*
X+5819850Y+8424135D01*
X+5819850Y+8619380D02*
X+5280150Y+8619380D01*
X+5280150Y+8575865D01*
X+5280150Y+8424135D02*
X+5280150Y+8380620D01*
X+5819850Y+8575865D02*
X+5819850Y+8619380D01*
D25*
X+5423000Y+8687960D02*
X+5423000Y+8672720D01*
X+5438875Y+8657480D01*
X+5502375Y+8657480D01*
X+5518250Y+8672720D01*
X+5518250Y+8748920D01*
X+5565875Y+8748920D02*
X+5645250Y+8748920D01*
X+5645250Y+8733680D01*
X+5565875Y+8657480D01*
D10*
X+6488100Y+8309500D02*
X+6487969Y+8312658D01*
X+6486903Y+8318976D01*
X+6484672Y+8325294D01*
X+6481027Y+8331612D01*
X+6475452Y+8337851D01*
X+6469134Y+8342447D01*
X+6462816Y+8345380D01*
X+6456498Y+8347042D01*
X+6450180Y+8347600D01*
X+6450000Y+8347600D01*
X+6411900Y+8309500D02*
X+6412031Y+8312658D01*
X+6413097Y+8318976D01*
X+6415328Y+8325294D01*
X+6418973Y+8331612D01*
X+6424548Y+8337851D01*
X+6430866Y+8342447D01*
X+6437184Y+8345380D01*
X+6443502Y+8347042D01*
X+6449820Y+8347600D01*
X+6450000Y+8347600D01*
X+6411900Y+8309500D02*
X+6412031Y+8306342D01*
X+6413097Y+8300024D01*
X+6415328Y+8293706D01*
X+6418973Y+8287388D01*
X+6424548Y+8281149D01*
X+6430866Y+8276553D01*
X+6437184Y+8273620D01*
X+6443502Y+8271958D01*
X+6449820Y+8271400D01*
X+6450000Y+8271400D01*
X+6488100Y+8309500D02*
X+6487969Y+8306342D01*
X+6486903Y+8300024D01*
X+6484672Y+8293706D01*
X+6481027Y+8287388D01*
X+6475452Y+8281149D01*
X+6469134Y+8276553D01*
X+6462816Y+8273620D01*
X+6456498Y+8271958D01*
X+6450180Y+8271400D01*
X+6450000Y+8271400D01*
D72*
X+5980150Y+8380620D02*
X+6519850Y+8380620D01*
X+6519850Y+8424135D01*
X+6519850Y+8619380D02*
X+5980150Y+8619380D01*
X+5980150Y+8575865D01*
X+5980150Y+8424135D02*
X+5980150Y+8380620D01*
X+6519850Y+8575865D02*
X+6519850Y+8619380D01*
D25*
X+6123000Y+8687960D02*
X+6123000Y+8672720D01*
X+6138875Y+8657480D01*
X+6202375Y+8657480D01*
X+6218250Y+8672720D01*
X+6218250Y+8748920D01*
X+6281750Y+8703200D02*
X+6265875Y+8718440D01*
X+6265875Y+8733680D01*
X+6281750Y+8748920D01*
X+6329375Y+8748920D01*
X+6345250Y+8733680D01*
X+6345250Y+8718440D01*
X+6329375Y+8703200D01*
X+6281750Y+8703200D01*
X+6265875Y+8687960D01*
X+6265875Y+8672720D01*
X+6281750Y+8657480D01*
X+6329375Y+8657480D01*
X+6345250Y+8672720D01*
X+6345250Y+8687960D01*
X+6329375Y+8703200D01*
D10*
X+7238100Y+8309500D02*
X+7237969Y+8312658D01*
X+7236903Y+8318976D01*
X+7234672Y+8325294D01*
X+7231027Y+8331612D01*
X+7225452Y+8337851D01*
X+7219134Y+8342447D01*
X+7212816Y+8345380D01*
X+7206498Y+8347042D01*
X+7200180Y+8347600D01*
X+7200000Y+8347600D01*
X+7161900Y+8309500D02*
X+7162031Y+8312658D01*
X+7163097Y+8318976D01*
X+7165328Y+8325294D01*
X+7168973Y+8331612D01*
X+7174548Y+8337851D01*
X+7180866Y+8342447D01*
X+7187184Y+8345380D01*
X+7193502Y+8347042D01*
X+7199820Y+8347600D01*
X+7200000Y+8347600D01*
X+7161900Y+8309500D02*
X+7162031Y+8306342D01*
X+7163097Y+8300024D01*
X+7165328Y+8293706D01*
X+7168973Y+8287388D01*
X+7174548Y+8281149D01*
X+7180866Y+8276553D01*
X+7187184Y+8273620D01*
X+7193502Y+8271958D01*
X+7199820Y+8271400D01*
X+7200000Y+8271400D01*
X+7238100Y+8309500D02*
X+7237969Y+8306342D01*
X+7236903Y+8300024D01*
X+7234672Y+8293706D01*
X+7231027Y+8287388D01*
X+7225452Y+8281149D01*
X+7219134Y+8276553D01*
X+7212816Y+8273620D01*
X+7206498Y+8271958D01*
X+7200180Y+8271400D01*
X+7200000Y+8271400D01*
D72*
X+6730150Y+8380620D02*
X+7269850Y+8380620D01*
X+7269850Y+8424135D01*
X+7269850Y+8619380D02*
X+6730150Y+8619380D01*
X+6730150Y+8575865D01*
X+6730150Y+8424135D02*
X+6730150Y+8380620D01*
X+7269850Y+8575865D02*
X+7269850Y+8619380D01*
D25*
X+6873000Y+8687960D02*
X+6873000Y+8672720D01*
X+6888875Y+8657480D01*
X+6952375Y+8657480D01*
X+6968250Y+8672720D01*
X+6968250Y+8748920D01*
X+7095250Y+8718440D02*
X+7079375Y+8703200D01*
X+7031750Y+8703200D01*
X+7015875Y+8718440D01*
X+7015875Y+8733680D01*
X+7031750Y+8748920D01*
X+7079375Y+8748920D01*
X+7095250Y+8733680D01*
X+7095250Y+8672720D01*
X+7079375Y+8657480D01*
X+7031750Y+8657480D01*
D10*
X+7988100Y+8309500D02*
X+7987969Y+8312658D01*
X+7986903Y+8318976D01*
X+7984672Y+8325294D01*
X+7981027Y+8331612D01*
X+7975452Y+8337851D01*
X+7969134Y+8342447D01*
X+7962816Y+8345380D01*
X+7956498Y+8347042D01*
X+7950180Y+8347600D01*
X+7950000Y+8347600D01*
X+7911900Y+8309500D02*
X+7912031Y+8312658D01*
X+7913097Y+8318976D01*
X+7915328Y+8325294D01*
X+7918973Y+8331612D01*
X+7924548Y+8337851D01*
X+7930866Y+8342447D01*
X+7937184Y+8345380D01*
X+7943502Y+8347042D01*
X+7949820Y+8347600D01*
X+7950000Y+8347600D01*
X+7911900Y+8309500D02*
X+7912031Y+8306342D01*
X+7913097Y+8300024D01*
X+7915328Y+8293706D01*
X+7918973Y+8287388D01*
X+7924548Y+8281149D01*
X+7930866Y+8276553D01*
X+7937184Y+8273620D01*
X+7943502Y+8271958D01*
X+7949820Y+8271400D01*
X+7950000Y+8271400D01*
X+7988100Y+8309500D02*
X+7987969Y+8306342D01*
X+7986903Y+8300024D01*
X+7984672Y+8293706D01*
X+7981027Y+8287388D01*
X+7975452Y+8281149D01*
X+7969134Y+8276553D01*
X+7962816Y+8273620D01*
X+7956498Y+8271958D01*
X+7950180Y+8271400D01*
X+7950000Y+8271400D01*
D72*
X+7480150Y+8380620D02*
X+8019850Y+8380620D01*
X+8019850Y+8424135D01*
X+8019850Y+8619380D02*
X+7480150Y+8619380D01*
X+7480150Y+8575865D01*
X+7480150Y+8424135D02*
X+7480150Y+8380620D01*
X+8019850Y+8575865D02*
X+8019850Y+8619380D01*
D25*
X+7559500Y+8687960D02*
X+7559500Y+8672720D01*
X+7575375Y+8657480D01*
X+7638875Y+8657480D01*
X+7654750Y+8672720D01*
X+7654750Y+8748920D01*
X+7718250Y+8718440D02*
X+7750000Y+8748920D01*
X+7750000Y+8657480D01*
X+7813500Y+8672720D02*
X+7813500Y+8733680D01*
X+7829375Y+8748920D01*
X+7892875Y+8748920D01*
X+7908750Y+8733680D01*
X+7908750Y+8672720D01*
X+7892875Y+8657480D01*
X+7829375Y+8657480D01*
X+7813500Y+8672720D01*
X+7813500Y+8657480D02*
X+7908750Y+8748920D01*
D10*
X+8738100Y+8309500D02*
X+8737969Y+8312658D01*
X+8736903Y+8318976D01*
X+8734672Y+8325294D01*
X+8731027Y+8331612D01*
X+8725452Y+8337851D01*
X+8719134Y+8342447D01*
X+8712816Y+8345380D01*
X+8706498Y+8347042D01*
X+8700180Y+8347600D01*
X+8700000Y+8347600D01*
X+8661900Y+8309500D02*
X+8662031Y+8312658D01*
X+8663097Y+8318976D01*
X+8665328Y+8325294D01*
X+8668973Y+8331612D01*
X+8674548Y+8337851D01*
X+8680866Y+8342447D01*
X+8687184Y+8345380D01*
X+8693502Y+8347042D01*
X+8699820Y+8347600D01*
X+8700000Y+8347600D01*
X+8661900Y+8309500D02*
X+8662031Y+8306342D01*
X+8663097Y+8300024D01*
X+8665328Y+8293706D01*
X+8668973Y+8287388D01*
X+8674548Y+8281149D01*
X+8680866Y+8276553D01*
X+8687184Y+8273620D01*
X+8693502Y+8271958D01*
X+8699820Y+8271400D01*
X+8700000Y+8271400D01*
X+8738100Y+8309500D02*
X+8737969Y+8306342D01*
X+8736903Y+8300024D01*
X+8734672Y+8293706D01*
X+8731027Y+8287388D01*
X+8725452Y+8281149D01*
X+8719134Y+8276553D01*
X+8712816Y+8273620D01*
X+8706498Y+8271958D01*
X+8700180Y+8271400D01*
X+8700000Y+8271400D01*
D72*
X+8230150Y+8380620D02*
X+8769850Y+8380620D01*
X+8769850Y+8424135D01*
X+8769850Y+8619380D02*
X+8230150Y+8619380D01*
X+8230150Y+8575865D01*
X+8230150Y+8424135D02*
X+8230150Y+8380620D01*
X+8769850Y+8575865D02*
X+8769850Y+8619380D01*
D25*
X+8309500Y+8687960D02*
X+8309500Y+8672720D01*
X+8325375Y+8657480D01*
X+8388875Y+8657480D01*
X+8404750Y+8672720D01*
X+8404750Y+8748920D01*
X+8468250Y+8718440D02*
X+8500000Y+8748920D01*
X+8500000Y+8657480D01*
X+8595250Y+8718440D02*
X+8627000Y+8748920D01*
X+8627000Y+8657480D01*
D10*
X+9438100Y+8309500D02*
X+9437969Y+8312658D01*
X+9436903Y+8318976D01*
X+9434672Y+8325294D01*
X+9431027Y+8331612D01*
X+9425452Y+8337851D01*
X+9419134Y+8342447D01*
X+9412816Y+8345380D01*
X+9406498Y+8347042D01*
X+9400180Y+8347600D01*
X+9400000Y+8347600D01*
X+9361900Y+8309500D02*
X+9362031Y+8312658D01*
X+9363097Y+8318976D01*
X+9365328Y+8325294D01*
X+9368973Y+8331612D01*
X+9374548Y+8337851D01*
X+9380866Y+8342447D01*
X+9387184Y+8345380D01*
X+9393502Y+8347042D01*
X+9399820Y+8347600D01*
X+9400000Y+8347600D01*
X+9361900Y+8309500D02*
X+9362031Y+8306342D01*
X+9363097Y+8300024D01*
X+9365328Y+8293706D01*
X+9368973Y+8287388D01*
X+9374548Y+8281149D01*
X+9380866Y+8276553D01*
X+9387184Y+8273620D01*
X+9393502Y+8271958D01*
X+9399820Y+8271400D01*
X+9400000Y+8271400D01*
X+9438100Y+8309500D02*
X+9437969Y+8306342D01*
X+9436903Y+8300024D01*
X+9434672Y+8293706D01*
X+9431027Y+8287388D01*
X+9425452Y+8281149D01*
X+9419134Y+8276553D01*
X+9412816Y+8273620D01*
X+9406498Y+8271958D01*
X+9400180Y+8271400D01*
X+9400000Y+8271400D01*
D72*
X+8930150Y+8380620D02*
X+9469850Y+8380620D01*
X+9469850Y+8424135D01*
X+9469850Y+8619380D02*
X+8930150Y+8619380D01*
X+8930150Y+8575865D01*
X+8930150Y+8424135D02*
X+8930150Y+8380620D01*
X+9469850Y+8575865D02*
X+9469850Y+8619380D01*
D25*
X+9009500Y+8687960D02*
X+9009500Y+8672720D01*
X+9025375Y+8657480D01*
X+9088875Y+8657480D01*
X+9104750Y+8672720D01*
X+9104750Y+8748920D01*
X+9168250Y+8718440D02*
X+9200000Y+8748920D01*
X+9200000Y+8657480D01*
X+9279375Y+8733680D02*
X+9295250Y+8748920D01*
X+9342875Y+8748920D01*
X+9358750Y+8733680D01*
X+9358750Y+8718440D01*
X+9342875Y+8703200D01*
X+9295250Y+8703200D01*
X+9279375Y+8687960D01*
X+9279375Y+8657480D01*
X+9358750Y+8657480D01*
X+6131000Y+4996000D02*
X+5369000Y+4996000D01*
X+5369000Y+6012000D02*
X+6131000Y+6012000D01*
X+6131000Y+4996000D02*
X+6131000Y+6012000D01*
X+5369000Y+4996000D02*
X+5369000Y+6012000D01*
X+5236920Y+5377000D02*
X+5313120Y+5377000D01*
X+5328360Y+5392875D01*
X+5328360Y+5456375D01*
X+5313120Y+5472250D01*
X+5236920Y+5472250D01*
X+5252160Y+5519875D02*
X+5236920Y+5535750D01*
X+5236920Y+5583375D01*
X+5252160Y+5599250D01*
X+5267400Y+5599250D01*
X+5282640Y+5583375D01*
X+5297880Y+5599250D01*
X+5313120Y+5599250D01*
X+5328360Y+5583375D01*
X+5328360Y+5535750D01*
X+5313120Y+5519875D01*
X+5282640Y+5551625D02*
X+5282640Y+5583375D01*
X+5377000Y+3250000D02*
X+5504000Y+3250000D01*
X+5504000Y+3186500D02*
X+6012000Y+3186500D01*
X+6012000Y+3313500D01*
X+5504000Y+3313500D01*
X+5504000Y+3186500D01*
X+6012000Y+3250000D02*
X+6139000Y+3250000D01*
X+5631000Y+3354140D02*
X+5631000Y+3445580D01*
X+5710375Y+3445580D01*
X+5726250Y+3430340D01*
X+5726250Y+3415100D01*
X+5710375Y+3399860D01*
X+5631000Y+3399860D01*
X+5710375Y+3399860D02*
X+5726250Y+3384620D01*
X+5726250Y+3354140D01*
X+5789750Y+3415100D02*
X+5821500Y+3445580D01*
X+5821500Y+3354140D01*
D28*
X+9375000Y+7000000D02*
X+9374185Y+7020171D01*
X+9367566Y+7060514D01*
X+9353753Y+7100857D01*
X+9331307Y+7141200D01*
X+9297010Y+7181418D01*
X+9256667Y+7212518D01*
X+9216324Y+7232723D01*
X+9175981Y+7244747D01*
X+9135638Y+7249774D01*
X+9125000Y+7250000D01*
X+8875000Y+7000000D02*
X+8875815Y+7020171D01*
X+8882434Y+7060514D01*
X+8896247Y+7100857D01*
X+8918693Y+7141200D01*
X+8952990Y+7181418D01*
X+8993333Y+7212518D01*
X+9033676Y+7232723D01*
X+9074019Y+7244747D01*
X+9114362Y+7249774D01*
X+9125000Y+7250000D01*
X+8875000Y+7000000D02*
X+8875815Y+6979829D01*
X+8882434Y+6939486D01*
X+8896247Y+6899143D01*
X+8918693Y+6858800D01*
X+8952990Y+6818582D01*
X+8993333Y+6787482D01*
X+9033676Y+6767277D01*
X+9074019Y+6755253D01*
X+9114362Y+6750226D01*
X+9125000Y+6750000D01*
X+9375000Y+7000000D02*
X+9374185Y+6979829D01*
X+9367566Y+6939486D01*
X+9353753Y+6899143D01*
X+9331307Y+6858800D01*
X+9297010Y+6818582D01*
X+9256667Y+6787482D01*
X+9216324Y+6767277D01*
X+9175981Y+6755253D01*
X+9135638Y+6750226D01*
X+9125000Y+6750000D01*
D29*
X+8810000Y+7000000D02*
X+8809965Y+7000831D01*
X+8809684Y+7002495D01*
X+8809094Y+7004159D01*
X+8808130Y+7005823D01*
X+8806655Y+7007464D01*
X+8804991Y+7008665D01*
X+8803327Y+7009430D01*
X+8801663Y+7009861D01*
X+8800000Y+7010000D01*
X+8790000Y+7000000D02*
X+8790035Y+7000831D01*
X+8790316Y+7002495D01*
X+8790906Y+7004159D01*
X+8791870Y+7005823D01*
X+8793345Y+7007464D01*
X+8795009Y+7008665D01*
X+8796673Y+7009430D01*
X+8798337Y+7009861D01*
X+8800000Y+7010000D01*
X+8790000Y+7000000D02*
X+8790035Y+6999169D01*
X+8790316Y+6997505D01*
X+8790906Y+6995841D01*
X+8791870Y+6994177D01*
X+8793345Y+6992536D01*
X+8795009Y+6991335D01*
X+8796673Y+6990570D01*
X+8798337Y+6990139D01*
X+8800000Y+6990000D01*
X+8810000Y+7000000D02*
X+8809965Y+6999169D01*
X+8809684Y+6997505D01*
X+8809094Y+6995841D01*
X+8808130Y+6994177D01*
X+8806655Y+6992536D01*
X+8804991Y+6991335D01*
X+8803327Y+6990570D01*
X+8801663Y+6990139D01*
X+8800000Y+6990000D01*
D25*
X+9059500Y+7302070D02*
X+9043625Y+7286830D01*
X+8996000Y+7286830D01*
X+8964250Y+7317310D01*
X+8964250Y+7347790D01*
X+8996000Y+7378270D01*
X+9043625Y+7378270D01*
X+9059500Y+7363030D01*
X+9123000Y+7347790D02*
X+9154750Y+7378270D01*
X+9154750Y+7286830D01*
D28*
X+9375000Y+6250000D02*
X+9374185Y+6270171D01*
X+9367566Y+6310514D01*
X+9353753Y+6350857D01*
X+9331307Y+6391200D01*
X+9297010Y+6431418D01*
X+9256667Y+6462518D01*
X+9216324Y+6482723D01*
X+9175981Y+6494747D01*
X+9135638Y+6499774D01*
X+9125000Y+6500000D01*
X+8875000Y+6250000D02*
X+8875815Y+6270171D01*
X+8882434Y+6310514D01*
X+8896247Y+6350857D01*
X+8918693Y+6391200D01*
X+8952990Y+6431418D01*
X+8993333Y+6462518D01*
X+9033676Y+6482723D01*
X+9074019Y+6494747D01*
X+9114362Y+6499774D01*
X+9125000Y+6500000D01*
X+8875000Y+6250000D02*
X+8875815Y+6229829D01*
X+8882434Y+6189486D01*
X+8896247Y+6149143D01*
X+8918693Y+6108800D01*
X+8952990Y+6068582D01*
X+8993333Y+6037482D01*
X+9033676Y+6017277D01*
X+9074019Y+6005253D01*
X+9114362Y+6000226D01*
X+9125000Y+6000000D01*
X+9375000Y+6250000D02*
X+9374185Y+6229829D01*
X+9367566Y+6189486D01*
X+9353753Y+6149143D01*
X+9331307Y+6108800D01*
X+9297010Y+6068582D01*
X+9256667Y+6037482D01*
X+9216324Y+6017277D01*
X+9175981Y+6005253D01*
X+9135638Y+6000226D01*
X+9125000Y+6000000D01*
D29*
X+8810000Y+6250000D02*
X+8809965Y+6250831D01*
X+8809684Y+6252495D01*
X+8809094Y+6254159D01*
X+8808130Y+6255823D01*
X+8806655Y+6257464D01*
X+8804991Y+6258665D01*
X+8803327Y+6259430D01*
X+8801663Y+6259861D01*
X+8800000Y+6260000D01*
X+8790000Y+6250000D02*
X+8790035Y+6250831D01*
X+8790316Y+6252495D01*
X+8790906Y+6254159D01*
X+8791870Y+6255823D01*
X+8793345Y+6257464D01*
X+8795009Y+6258665D01*
X+8796673Y+6259430D01*
X+8798337Y+6259861D01*
X+8800000Y+6260000D01*
X+8790000Y+6250000D02*
X+8790035Y+6249169D01*
X+8790316Y+6247505D01*
X+8790906Y+6245841D01*
X+8791870Y+6244177D01*
X+8793345Y+6242536D01*
X+8795009Y+6241335D01*
X+8796673Y+6240570D01*
X+8798337Y+6240139D01*
X+8800000Y+6240000D01*
X+8810000Y+6250000D02*
X+8809965Y+6249169D01*
X+8809684Y+6247505D01*
X+8809094Y+6245841D01*
X+8808130Y+6244177D01*
X+8806655Y+6242536D01*
X+8804991Y+6241335D01*
X+8803327Y+6240570D01*
X+8801663Y+6240139D01*
X+8800000Y+6240000D01*
D25*
X+9059500Y+6552070D02*
X+9043625Y+6536830D01*
X+8996000Y+6536830D01*
X+8964250Y+6567310D01*
X+8964250Y+6597790D01*
X+8996000Y+6628270D01*
X+9043625Y+6628270D01*
X+9059500Y+6613030D01*
X+9107125Y+6613030D02*
X+9123000Y+6628270D01*
X+9170625Y+6628270D01*
X+9186500Y+6613030D01*
X+9186500Y+6597790D01*
X+9170625Y+6582550D01*
X+9123000Y+6582550D01*
X+9107125Y+6567310D01*
X+9107125Y+6536830D01*
X+9186500Y+6536830D01*
D28*
X+6000000Y+6750000D02*
X+5999185Y+6770171D01*
X+5992566Y+6810514D01*
X+5978753Y+6850857D01*
X+5956307Y+6891200D01*
X+5922010Y+6931418D01*
X+5881667Y+6962518D01*
X+5841324Y+6982723D01*
X+5800981Y+6994747D01*
X+5760638Y+6999774D01*
X+5750000Y+7000000D01*
X+5500000Y+6750000D02*
X+5500815Y+6770171D01*
X+5507434Y+6810514D01*
X+5521247Y+6850857D01*
X+5543693Y+6891200D01*
X+5577990Y+6931418D01*
X+5618333Y+6962518D01*
X+5658676Y+6982723D01*
X+5699019Y+6994747D01*
X+5739362Y+6999774D01*
X+5750000Y+7000000D01*
X+5500000Y+6750000D02*
X+5500815Y+6729829D01*
X+5507434Y+6689486D01*
X+5521247Y+6649143D01*
X+5543693Y+6608800D01*
X+5577990Y+6568582D01*
X+5618333Y+6537482D01*
X+5658676Y+6517277D01*
X+5699019Y+6505253D01*
X+5739362Y+6500226D01*
X+5750000Y+6500000D01*
X+6000000Y+6750000D02*
X+5999185Y+6729829D01*
X+5992566Y+6689486D01*
X+5978753Y+6649143D01*
X+5956307Y+6608800D01*
X+5922010Y+6568582D01*
X+5881667Y+6537482D01*
X+5841324Y+6517277D01*
X+5800981Y+6505253D01*
X+5760638Y+6500226D01*
X+5750000Y+6500000D01*
D29*
X+5435000Y+6750000D02*
X+5434965Y+6750831D01*
X+5434684Y+6752495D01*
X+5434094Y+6754159D01*
X+5433130Y+6755823D01*
X+5431655Y+6757464D01*
X+5429991Y+6758665D01*
X+5428327Y+6759430D01*
X+5426663Y+6759861D01*
X+5425000Y+6760000D01*
X+5415000Y+6750000D02*
X+5415035Y+6750831D01*
X+5415316Y+6752495D01*
X+5415906Y+6754159D01*
X+5416870Y+6755823D01*
X+5418345Y+6757464D01*
X+5420009Y+6758665D01*
X+5421673Y+6759430D01*
X+5423337Y+6759861D01*
X+5425000Y+6760000D01*
X+5415000Y+6750000D02*
X+5415035Y+6749169D01*
X+5415316Y+6747505D01*
X+5415906Y+6745841D01*
X+5416870Y+6744177D01*
X+5418345Y+6742536D01*
X+5420009Y+6741335D01*
X+5421673Y+6740570D01*
X+5423337Y+6740139D01*
X+5425000Y+6740000D01*
X+5435000Y+6750000D02*
X+5434965Y+6749169D01*
X+5434684Y+6747505D01*
X+5434094Y+6745841D01*
X+5433130Y+6744177D01*
X+5431655Y+6742536D01*
X+5429991Y+6741335D01*
X+5428327Y+6740570D01*
X+5426663Y+6740139D01*
X+5425000Y+6740000D01*
D25*
X+5684500Y+7052070D02*
X+5668625Y+7036830D01*
X+5621000Y+7036830D01*
X+5589250Y+7067310D01*
X+5589250Y+7097790D01*
X+5621000Y+7128270D01*
X+5668625Y+7128270D01*
X+5684500Y+7113030D01*
X+5732125Y+7113030D02*
X+5748000Y+7128270D01*
X+5795625Y+7128270D01*
X+5811500Y+7113030D01*
X+5811500Y+7097790D01*
X+5795625Y+7082550D01*
X+5811500Y+7067310D01*
X+5811500Y+7052070D01*
X+5795625Y+7036830D01*
X+5748000Y+7036830D01*
X+5732125Y+7052070D01*
X+5763875Y+7082550D02*
X+5795625Y+7082550D01*
D28*
X+9350012Y+4649988D02*
X+8649988Y+4649988D01*
X+8649988Y+5350012D02*
X+9350012Y+5350012D01*
D29*
X+9410000Y+5204000D02*
X+9409965Y+5204831D01*
X+9409684Y+5206495D01*
X+9409094Y+5208159D01*
X+9408130Y+5209823D01*
X+9406655Y+5211464D01*
X+9404991Y+5212665D01*
X+9403327Y+5213430D01*
X+9401663Y+5213861D01*
X+9400000Y+5214000D01*
X+9390000Y+5204000D02*
X+9390035Y+5204831D01*
X+9390316Y+5206495D01*
X+9390906Y+5208159D01*
X+9391870Y+5209823D01*
X+9393345Y+5211464D01*
X+9395009Y+5212665D01*
X+9396673Y+5213430D01*
X+9398337Y+5213861D01*
X+9400000Y+5214000D01*
X+9390000Y+5204000D02*
X+9390035Y+5203169D01*
X+9390316Y+5201505D01*
X+9390906Y+5199841D01*
X+9391870Y+5198177D01*
X+9393345Y+5196536D01*
X+9395009Y+5195335D01*
X+9396673Y+5194570D01*
X+9398337Y+5194139D01*
X+9400000Y+5194000D01*
X+9410000Y+5204000D02*
X+9409965Y+5203169D01*
X+9409684Y+5201505D01*
X+9409094Y+5199841D01*
X+9408130Y+5198177D01*
X+9406655Y+5196536D01*
X+9404991Y+5195335D01*
X+9403327Y+5194570D01*
X+9401663Y+5194139D01*
X+9400000Y+5194000D01*
D28*
X+9350012Y+5350012D02*
X+9350012Y+5300000D01*
X+9350012Y+4700000D02*
X+9350012Y+4649988D01*
X+8649988Y+5350012D02*
X+8649988Y+5300000D01*
X+8649988Y+4700000D02*
X+8649988Y+4649988D01*
D25*
X+9450480Y+4873000D02*
X+9526680Y+4873000D01*
X+9541920Y+4888875D01*
X+9541920Y+4952375D01*
X+9526680Y+4968250D01*
X+9450480Y+4968250D01*
X+9465720Y+5015875D02*
X+9450480Y+5031750D01*
X+9450480Y+5079375D01*
X+9465720Y+5095250D01*
X+9480960Y+5095250D01*
X+9496200Y+5079375D01*
X+9496200Y+5031750D01*
X+9511440Y+5015875D01*
X+9541920Y+5015875D01*
X+9541920Y+5095250D01*
D29*
X+9137000Y+4273000D02*
X+8667000Y+4273000D01*
X+8667000Y+3219000D01*
X+9000000Y+3219000D01*
D25*
X+8535080Y+3619000D02*
X+8611280Y+3619000D01*
X+8626520Y+3634875D01*
X+8626520Y+3698375D01*
X+8611280Y+3714250D01*
X+8535080Y+3714250D01*
X+8596040Y+3841250D02*
X+8596040Y+3746000D01*
X+8535080Y+3809500D01*
X+8626520Y+3809500D01*
X+5881000Y+4000000D02*
X+5880173Y+4020483D01*
X+5873455Y+4061450D01*
X+5859437Y+4102417D01*
X+5836659Y+4143384D01*
X+5801859Y+4184229D01*
X+5760892Y+4215845D01*
X+5719925Y+4236392D01*
X+5678958Y+4248629D01*
X+5637991Y+4253762D01*
X+5627000Y+4254000D01*
X+5373000Y+4000000D02*
X+5373827Y+4020483D01*
X+5380545Y+4061450D01*
X+5394563Y+4102417D01*
X+5417341Y+4143384D01*
X+5452141Y+4184229D01*
X+5493108Y+4215845D01*
X+5534075Y+4236392D01*
X+5575042Y+4248629D01*
X+5616009Y+4253762D01*
X+5627000Y+4254000D01*
X+5373000Y+4000000D02*
X+5373827Y+3979517D01*
X+5380545Y+3938550D01*
X+5394563Y+3897583D01*
X+5417341Y+3856616D01*
X+5452141Y+3815771D01*
X+5493108Y+3784155D01*
X+5534075Y+3763608D01*
X+5575042Y+3751371D01*
X+5616009Y+3746238D01*
X+5627000Y+3746000D01*
X+5881000Y+4000000D02*
X+5880173Y+3979517D01*
X+5873455Y+3938550D01*
X+5859437Y+3897583D01*
X+5836659Y+3856616D01*
X+5801859Y+3815771D01*
X+5760892Y+3784155D01*
X+5719925Y+3763608D01*
X+5678958Y+3751371D01*
X+5637991Y+3746238D01*
X+5627000Y+3746000D01*
X+5309500Y+4254000D02*
X+5436500Y+4254000D01*
X+5373000Y+4317500D02*
X+5373000Y+4190500D01*
X+5468250Y+4358140D02*
X+5468250Y+4449580D01*
X+5531750Y+4449580D01*
X+5563500Y+4419100D01*
X+5563500Y+4388620D01*
X+5531750Y+4358140D01*
X+5468250Y+4358140D01*
X+5627000Y+4419100D02*
X+5658750Y+4449580D01*
X+5658750Y+4358140D01*
X+5000000Y+2667000D02*
X+9699000Y+2667000D01*
X+9699000Y+10033000D01*
X+5000000Y+10033000D01*
X+5000000Y+2667000D01*
X+9699000Y+10033000D02*
X+5000000Y+10040000D01*
X+9699000Y+10033000D02*
X+9572189Y+10160189D01*
X+9699000Y+10033000D02*
X+9571810Y+9906189D01*
X+5000000Y+10040000D02*
X+5126810Y+9912810D01*
X+5000000Y+10040000D02*
X+5127189Y+10166810D01*
X+7381250Y+10036500D02*
X+7381141Y+10039134D01*
X+7380251Y+10044403D01*
X+7378389Y+10049672D01*
X+7375346Y+10054941D01*
X+7370691Y+10060143D01*
X+7365422Y+10063969D01*
X+7360153Y+10066409D01*
X+7354884Y+10067790D01*
X+7349615Y+10068250D01*
X+7349500Y+10068250D01*
X+7317750Y+10036500D02*
X+7317859Y+10039134D01*
X+7318749Y+10044403D01*
X+7320611Y+10049672D01*
X+7323654Y+10054941D01*
X+7328309Y+10060143D01*
X+7333578Y+10063969D01*
X+7338847Y+10066409D01*
X+7344116Y+10067790D01*
X+7349385Y+10068250D01*
X+7349500Y+10068250D01*
X+7317750Y+10036500D02*
X+7317859Y+10033866D01*
X+7318749Y+10028597D01*
X+7320611Y+10023328D01*
X+7323654Y+10018059D01*
X+7328309Y+10012857D01*
X+7333578Y+10009031D01*
X+7338847Y+10006591D01*
X+7344116Y+10005210D01*
X+7349385Y+10004750D01*
X+7349500Y+10004750D01*
X+7381250Y+10036500D02*
X+7381141Y+10033866D01*
X+7380251Y+10028597D01*
X+7378389Y+10023328D01*
X+7375346Y+10018059D01*
X+7370691Y+10012857D01*
X+7365422Y+10009031D01*
X+7360153Y+10006591D01*
X+7354884Y+10005210D01*
X+7349615Y+10004750D01*
X+7349500Y+10004750D01*
X+7000250Y+10107620D02*
X+6905000Y+10107620D01*
X+6968500Y+10168580D01*
X+6968500Y+10077140D01*
X+7127250Y+10153340D02*
X+7111375Y+10168580D01*
X+7063750Y+10168580D01*
X+7047875Y+10153340D01*
X+7047875Y+10092380D01*
X+7063750Y+10077140D01*
X+7111375Y+10077140D01*
X+7127250Y+10092380D01*
X+7127250Y+10107620D01*
X+7111375Y+10122860D01*
X+7047875Y+10122860D01*
X+7206625Y+10092380D02*
X+7222500Y+10092380D01*
X+7222500Y+10077140D01*
X+7206625Y+10077140D01*
X+7206625Y+10092380D01*
X+7381250Y+10138100D02*
X+7365375Y+10122860D01*
X+7317750Y+10122860D01*
X+7301875Y+10138100D01*
X+7301875Y+10153340D01*
X+7317750Y+10168580D01*
X+7365375Y+10168580D01*
X+7381250Y+10153340D01*
X+7381250Y+10092380D01*
X+7365375Y+10077140D01*
X+7317750Y+10077140D01*
X+7508250Y+10138100D02*
X+7492375Y+10122860D01*
X+7444750Y+10122860D01*
X+7428875Y+10138100D01*
X+7428875Y+10153340D01*
X+7444750Y+10168580D01*
X+7492375Y+10168580D01*
X+7508250Y+10153340D01*
X+7508250Y+10092380D01*
X+7492375Y+10077140D01*
X+7444750Y+10077140D01*
X+7540000Y+10077140D02*
X+7540000Y+10138100D01*
X+7540000Y+10122860D02*
X+7555875Y+10138100D01*
X+7587625Y+10107620D01*
X+7619375Y+10138100D01*
X+7635250Y+10122860D01*
X+7635250Y+10077140D01*
X+7667000Y+10077140D02*
X+7667000Y+10138100D01*
X+7667000Y+10122860D02*
X+7682875Y+10138100D01*
X+7714625Y+10107620D01*
X+7746375Y+10138100D01*
X+7762250Y+10122860D01*
X+7762250Y+10077140D01*
M02*
