G04 PROTEUS RS274X GERBER FILE*
%FSLAX45Y45*%
%MOMM*%
G01*
%ADD73C,1.016000*%
%AMPPAD024*
4,1,4,
-0.755000,0.755000,
0.755000,0.755000,
0.755000,-0.755000,
-0.755000,-0.755000,
-0.755000,0.755000,
0*%
%ADD30PPAD024*%
%ADD31C,0.750000*%
%ADD14C,1.524000*%
%ADD32C,1.651000*%
%ADD33C,3.302000*%
%ADD34C,2.032000*%
%ADD35C,0.550000*%
%AMPPAD030*
4,1,4,
-0.550000,0.550000,
0.550000,0.550000,
0.550000,-0.550000,
-0.550000,-0.550000,
-0.550000,0.550000,
0*%
%ADD36PPAD030*%
%AMPPAD031*
4,1,4,
0.654050,0.654050,
0.654050,-0.654050,
-0.654050,-0.654050,
-0.654050,0.654050,
0.654050,0.654050,
0*%
%ADD37PPAD031*%
%ADD38C,0.650000*%
%AMPPAD033*
4,1,4,
-0.970000,-0.970000,
-0.970000,0.970000,
0.970000,0.970000,
0.970000,-0.970000,
-0.970000,-0.970000,
0*%
%ADD39PPAD033*%
%ADD23C,1.940000*%
%AMPPAD034*
4,1,36,
-1.016000,1.143000,
1.016000,1.143000,
1.041970,1.140470,
1.065980,1.133200,
1.087580,1.121650,
1.106290,1.106290,
1.121650,1.087570,
1.133200,1.065980,
1.140470,1.041970,
1.143000,1.016000,
1.143000,-1.016000,
1.140470,-1.041970,
1.133200,-1.065980,
1.121650,-1.087570,
1.106290,-1.106290,
1.087580,-1.121650,
1.065980,-1.133200,
1.041970,-1.140470,
1.016000,-1.143000,
-1.016000,-1.143000,
-1.041970,-1.140470,
-1.065980,-1.133200,
-1.087580,-1.121650,
-1.106290,-1.106290,
-1.121650,-1.087570,
-1.133200,-1.065980,
-1.140470,-1.041970,
-1.143000,-1.016000,
-1.143000,1.016000,
-1.140470,1.041970,
-1.133200,1.065980,
-1.121650,1.087570,
-1.106290,1.106290,
-1.087580,1.121650,
-1.065980,1.133200,
-1.041970,1.140470,
-1.016000,1.143000,
0*%
%ADD40PPAD034*%
%ADD25C,0.203200*%
D73*
X+6896862Y+8407313D03*
X+6800000Y+8500000D03*
X+7422132Y+9867835D03*
X+5880156Y+9673559D03*
X+6165309Y+9698922D03*
D30*
X+6726000Y+7306000D03*
D31*
X+6726000Y+7052000D03*
X+6726000Y+6798000D03*
X+6726000Y+6544000D03*
X+6726000Y+6290000D03*
X+6726000Y+6036000D03*
X+6726000Y+5782000D03*
X+6726000Y+5528000D03*
X+6726000Y+5274000D03*
X+6726000Y+5020000D03*
X+6726000Y+4766000D03*
X+6726000Y+4512000D03*
X+6726000Y+4258000D03*
X+6726000Y+4004000D03*
X+6726000Y+3750000D03*
X+8250000Y+3750000D03*
X+8250000Y+4004000D03*
X+8250000Y+4258000D03*
X+8250000Y+4512000D03*
X+8250000Y+4766000D03*
X+8250000Y+5020000D03*
X+8250000Y+5274000D03*
X+8250000Y+5528000D03*
X+8250000Y+5782000D03*
X+8250000Y+6036000D03*
X+8250000Y+6290000D03*
X+8250000Y+6544000D03*
X+8250000Y+6798000D03*
X+8250000Y+7052000D03*
X+8250000Y+7306000D03*
D14*
X+6726000Y+3496000D03*
X+8250000Y+3496000D03*
X+6726000Y+7560000D03*
X+8250000Y+7560000D03*
D32*
X+5750000Y+9500000D03*
X+5550000Y+9500000D03*
X+5350000Y+9500000D03*
X+6450000Y+9500000D03*
X+6250000Y+9500000D03*
X+6050000Y+9500000D03*
X+7200000Y+9500000D03*
X+7000000Y+9500000D03*
X+6800000Y+9500000D03*
X+7900000Y+9500000D03*
X+7700000Y+9500000D03*
X+7500000Y+9500000D03*
X+8650000Y+9500000D03*
X+8450000Y+9500000D03*
X+8250000Y+9500000D03*
X+9400000Y+9500000D03*
X+9200000Y+9500000D03*
X+9000000Y+9500000D03*
X+5750000Y+8500000D03*
X+5550000Y+8500000D03*
X+5350000Y+8500000D03*
X+6450000Y+8500000D03*
X+6250000Y+8500000D03*
X+6050000Y+8500000D03*
X+7200000Y+8500000D03*
X+7000000Y+8500000D03*
X+6800000Y+8500000D03*
X+7950000Y+8500000D03*
X+7750000Y+8500000D03*
X+7550000Y+8500000D03*
X+8700000Y+8500000D03*
X+8500000Y+8500000D03*
X+8300000Y+8500000D03*
X+9400000Y+8500000D03*
X+9200000Y+8500000D03*
X+9000000Y+8500000D03*
D33*
X+5750000Y+5250000D03*
X+5750000Y+5750380D03*
D34*
X+5250000Y+3250000D03*
X+6266000Y+3250000D03*
D35*
X+9250000Y+7000000D03*
D36*
X+9000000Y+7000000D03*
D35*
X+9250000Y+6250000D03*
D36*
X+9000000Y+6250000D03*
D35*
X+5875000Y+6750000D03*
D36*
X+5625000Y+6750000D03*
D37*
X+9250000Y+5200000D03*
D38*
X+9250000Y+5000000D03*
X+9250000Y+4800000D03*
X+8750000Y+5200000D03*
X+8750000Y+5000000D03*
X+8750000Y+4800000D03*
D39*
X+9000000Y+3492000D03*
D23*
X+9000000Y+3746000D03*
X+9000000Y+4000000D03*
D40*
X+5500000Y+4000000D03*
X+5754000Y+4000000D03*
D25*
X+5000000Y+2667000D02*
X+9699000Y+2667000D01*
X+9699000Y+10033000D01*
X+5000000Y+10033000D01*
X+5000000Y+2667000D01*
M02*
